<?xml version="1.0" encoding="utf-8"?>
<!-- Generator: Adobe Illustrator 18.0.0, SVG Export Plug-In . SVG Version: 6.00 Build 0)  -->
<!DOCTYPE svg PUBLIC "-//W3C//DTD SVG 1.1//EN" "http://www.w3.org/Graphics/SVG/1.1/DTD/svg11.dtd">
<svg version="1.1" id="Layer_1" xmlns="http://www.w3.org/2000/svg" xmlns:xlink="http://www.w3.org/1999/xlink" x="0px" y="0px"
	 viewBox="0 0 148.2 116.3" enable-background="new 0 0 148.2 116.3" xml:space="preserve">
<g>
	<rect x="0" y="0" fill="#27B78E" width="148.2" height="116.3"/>
	<g>
		<g>
			<g>
				<path fill="#FFFFFF" d="M32.8,72.6v18.1c0,1.1,0.9,1.9,1.9,1.9h34.7C69.2,92,69,91.3,69,90.6V72.6H32.8z"/>
				<path fill="#FFFFFF" d="M30.5,69.7h2.3H69V68v-2.3c0,0,0,0,0-0.1c0-1.5,0.4-2.8,1-4.1c0.3-0.5,0.6-1,0.9-1.5
					c0.4-0.5,0.9-1,1.5-1.5c1.6-1.3,3.6-2,5.7-2h2.2v-4.2c0-3.1-2.6-5.7-5.7-5.7h-5.2c-1,0-1.9,0.7-2.1,1.7l-2.4,10.2l-0.3,1.5
					l-0.2,1.1c0,0.1-0.1,0.3-0.1,0.4h-1.6c0-0.5-0.1-1-0.2-1.5c0-0.1,0-0.2,0-0.3l-0.3-1.2l-1.9-7.2l1.5-3.3
					c0.3-0.6-0.2-1.3-0.9-1.3h-3.2c-0.7,0-1.1,0.7-0.9,1.3l1.5,3.3l-1.9,7.2L56,59.7c0,0.1,0,0.3-0.1,0.4c-0.1,0.5-0.1,1-0.1,1.5
					h-1.5c0-0.1-0.1-0.3-0.1-0.4l-0.2-1.1l-0.3-1.5l-2.4-10.2c-0.2-1-1.1-1.7-2.1-1.7h-5.2c-3.1,0-5.7,2.6-5.7,5.7v6.2v1.5v1.5h-7.7
					c-1.6,0-2.9,1.3-2.9,2.9v2.4C27.6,68.4,28.9,69.7,30.5,69.7z"/>
				<path fill="#FFFFFF" d="M59.2,43.6c7.1,0,12.8-5.7,12.8-12.8V17.2c0-1.8-1.6-3.1-3.3-2.8C64.9,15,56.4,16.7,51,17.8
					c-2.7,0.5-4.6,2.9-4.6,5.6v7.4C46.4,37.9,52.2,43.6,59.2,43.6z"/>
				<path fill="#FFFFFF" d="M78.1,59.4c-1,0-1.9,0.2-2.8,0.6c-0.7,0.4-1.4,0.9-1.9,1.5c-1,1.1-1.5,2.5-1.6,4.1c0,0,0,0,0,0.1V68v1.7
					v1.5v1.5v17.9c0,1.2,0.9,2.1,2.1,2.1h32h9.9c1.2,0,2.1-0.9,2.1-2.1V65.7c0-3-2.2-5.6-5-6.1c-0.4-0.1-0.8-0.1-1.2-0.1H80.3
					L78.1,59.4L78.1,59.4z"/>
				<path fill="#FFFFFF" d="M95,56c7.8,0,14-6.3,14-14v-8.1c0-3-2.1-5.5-5-6.1c-5.9-1.2-15.3-3.1-19.4-3.8c-0.2,0-0.4,0-0.5,0
					c-1.7,0-3.1,1.4-3.1,3.1V42C80.9,49.7,87.2,56,95,56z"/>
			</g>
		</g>
	</g>
</g>
</svg>
