<?xml version="1.0" encoding="utf-8"?>
<!-- Generator: Adobe Illustrator 18.0.0, SVG Export Plug-In . SVG Version: 6.00 Build 0)  -->
<!DOCTYPE svg PUBLIC "-//W3C//DTD SVG 1.1//EN" "http://www.w3.org/Graphics/SVG/1.1/DTD/svg11.dtd">
<svg version="1.1" id="Layer_1" xmlns="http://www.w3.org/2000/svg" xmlns:xlink="http://www.w3.org/1999/xlink" x="0px" y="0px"
	 viewBox="0 0 151.5 118.9" enable-background="new 0 0 151.5 118.9" xml:space="preserve">
<g>
	<rect x="0" y="0" fill="#BA4599" width="151.5" height="118.9"/>
	<g>
		<g id="Layer_1_1_">
			<g>
				<path fill="#FFFFFF" d="M74.4,27.8c-15.3,0-27.8,12.1-27.8,26.9c0,9.6,3.9,15.3,6.8,19.6c1.8,2.6,2.8,4.1,2.8,5.7
					c0,3.5,1.9,6.8,5.2,9.2c0.1,2.1,0.4,7.1,0.4,7.1c0,0,0,0,0,0c0.1,1.4,0.8,4.4,5.8,6c0.6,0.9,1.3,1.6,2.3,2.2
					c0.6,0.4,1.3,0.6,2,0.6h5.4c0.7,0,1.4-0.2,2-0.6c0.9-0.6,1.7-1.4,2.3-2.2c5-1.7,5.7-4.6,5.8-6c0,0,0.3-5,0.4-7.1
					c3.3-2.5,5.2-5.8,5.2-9.2c0-1.6,1-3.1,2.8-5.7c2.9-4.2,6.8-9.9,6.8-19.6C102.2,39.8,89.7,27.8,74.4,27.8z M89.6,70.3
					c-2.1,3-4,5.9-4,9.7c0,1.7-1.5,3-2.6,3.8H65.8c-1.1-0.8-2.6-2.1-2.6-3.8c0-3.8-1.9-6.6-4-9.7c-2.6-3.8-5.5-8.1-5.5-15.6
					c0-11,9.3-19.9,20.8-19.9c11.5,0,20.8,8.9,20.8,19.9C95.2,62.1,92.2,66.5,89.6,70.3z"/>
				<path fill="#FFFFFF" d="M74.4,22.5c1,0,1.8-0.8,1.8-1.8v-5.3c0-1-0.8-1.8-1.8-1.8s-1.8,0.8-1.8,1.8v5.3
					C72.6,21.7,73.4,22.5,74.4,22.5z"/>
				<path fill="#FFFFFF" d="M55.7,26.2c0.3,0.6,0.9,0.9,1.5,0.9c0.3,0,0.6-0.1,0.9-0.2c0.8-0.5,1.1-1.6,0.6-2.4l-2.6-4.6
					c-0.5-0.8-1.6-1.1-2.4-0.6c-0.8,0.5-1.1,1.6-0.6,2.4L55.7,26.2z"/>
				<path fill="#FFFFFF" d="M45.5,36.4L41,33.7c-0.8-0.5-1.9-0.2-2.4,0.6c-0.5,0.8-0.2,1.9,0.6,2.4l4.6,2.6c0.3,0.2,0.6,0.2,0.9,0.2
					c0.6,0,1.2-0.3,1.5-0.9C46.7,37.9,46.4,36.9,45.5,36.4z"/>
				<path fill="#FFFFFF" d="M41.8,55.1c0-1-0.8-1.8-1.8-1.8h-5.3c-1,0-1.8,0.8-1.8,1.8c0,1,0.8,1.8,1.8,1.8h5.3
					C41,56.8,41.8,56,41.8,55.1z"/>
				<path fill="#FFFFFF" d="M43.8,70.7l-4.6,2.6c-0.8,0.5-1.1,1.6-0.6,2.4c0.3,0.6,0.9,0.9,1.5,0.9c0.3,0,0.6-0.1,0.9-0.2l4.6-2.6
					c0.8-0.5,1.1-1.6,0.6-2.4C45.7,70.5,44.6,70.2,43.8,70.7z"/>
				<path fill="#FFFFFF" d="M109.6,73.3l-4.6-2.6c-0.8-0.5-1.9-0.2-2.4,0.6c-0.5,0.8-0.2,1.9,0.6,2.4l4.6,2.6
					c0.3,0.2,0.6,0.2,0.9,0.2c0.6,0,1.2-0.3,1.5-0.9C110.7,74.9,110.4,73.8,109.6,73.3z"/>
				<path fill="#FFFFFF" d="M114,53.3l-5.3,0l0,0c-1,0-1.8,0.8-1.8,1.8c0,1,0.8,1.8,1.8,1.8l5.3,0l0,0c1,0,1.8-0.8,1.8-1.8
					C115.7,54.1,115,53.3,114,53.3z"/>
				<path fill="#FFFFFF" d="M104.1,39.7c0.3,0,0.6-0.1,0.9-0.2l4.6-2.6c0.8-0.5,1.1-1.6,0.6-2.4c-0.5-0.8-1.6-1.1-2.4-0.6l-4.6,2.6
					c-0.8,0.5-1.1,1.6-0.6,2.4C102.9,39.3,103.5,39.7,104.1,39.7z"/>
				<path fill="#FFFFFF" d="M90.7,26.9c0.3,0.2,0.6,0.2,0.9,0.2c0.6,0,1.2-0.3,1.5-0.9l2.6-4.6c0.5-0.8,0.2-1.9-0.6-2.4
					c-0.8-0.5-1.9-0.2-2.4,0.6L90,24.5C89.5,25.3,89.8,26.4,90.7,26.9z"/>
				<path fill="#FFFFFF" d="M72,65.7c0.2,1.6,1,2,2.4,2c1.4,0,2.1-0.4,2.4-2l1.7-12.5c0.1-0.9,0.2-1.7,0.2-2.5v-6.2
					c0-2.7-1.6-4.1-4.2-4.1c-2.7,0-4.2,1.4-4.2,4.1v6.2c0,0.8,0.1,1.7,0.2,2.5L72,65.7z"/>
				<path fill="#FFFFFF" d="M74.4,71.2c-2.4,0-4.4,2-4.4,4.4c0,2.4,2,4.4,4.4,4.4c2.4,0,4.4-2,4.4-4.4
					C78.8,73.1,76.8,71.2,74.4,71.2z"/>
			</g>
		</g>
	</g>
</g>
</svg>
