<?xml version="1.0" encoding="utf-8"?>
<!-- Generator: Adobe Illustrator 18.0.0, SVG Export Plug-In . SVG Version: 6.00 Build 0)  -->
<!DOCTYPE svg PUBLIC "-//W3C//DTD SVG 1.1//EN" "http://www.w3.org/Graphics/SVG/1.1/DTD/svg11.dtd">
<svg version="1.1" id="Layer_1" xmlns="http://www.w3.org/2000/svg" xmlns:xlink="http://www.w3.org/1999/xlink" x="0px" y="0px"
	 viewBox="0 0 149.6 117.4" enable-background="new 0 0 149.6 117.4" xml:space="preserve">
<g>
	<rect x="0" y="0" fill="#F47421" width="149.6" height="117.4"/>
	<g>
		<path fill="#FFFFFF" d="M124.2,58.2C124.2,58.2,124.2,58.2,124.2,58.2c-0.1-27.8-22.6-50.3-50.3-50.3c-13.1,0-25.5,5-35,14.1
			c-9.4,9.1-14.9,21.3-15.3,34.2h0c-0.1,0.7-0.1,1.4-0.1,2c0,0.6,0.1,2.1,0.1,2.2c0.5,13,6,25.1,15.4,34.2c9.4,9.1,21.8,14,34.9,14
			c27.7,0,50.3-22.5,50.3-50.2C124.2,58.3,124.2,58.3,124.2,58.2z M73.9,103.2c-11.7,0-22.7-4.4-31.1-12.5
			c-3.3-3.2-6.1-6.9-8.3-10.8c2.5,1.8,5.4,3.2,8.4,4.1c0,0,0,0,0,0c2.3,0.7,4.8,1,7.2,1c6.9,0,13.5-2.7,18.5-7.5
			c5-4.8,7.8-11.3,8.1-18.2c0-1.7,0-1.7,0-1.7l0,0c0.4-11.4,9.6-20.3,21-20.3c11.6,0,21,9.4,21,21.1c0,0,0,0,0,0
			c0,0,0.1,0.1,0.1,0.2C118.6,83.1,98.6,103.2,73.9,103.2z M56.9,58.3c0,3.8-3.1,6.8-6.8,6.8c-3.8,0-6.8-3.1-6.8-6.8
			s3.1-6.8,6.8-6.8C53.8,51.5,56.9,54.5,56.9,58.3z"/>
		<path fill="#FFFFFF" d="M97.7,51.5c-3.8,0-6.8,3.1-6.8,6.8s3.1,6.8,6.8,6.8c3.8,0,6.8-3.1,6.8-6.8
			C104.5,54.5,101.4,51.5,97.7,51.5z"/>
	</g>
</g>
</svg>
