<?xml version="1.0" encoding="utf-8"?>
<!-- Generator: Adobe Illustrator 18.0.0, SVG Export Plug-In . SVG Version: 6.00 Build 0)  -->
<!DOCTYPE svg PUBLIC "-//W3C//DTD SVG 1.1//EN" "http://www.w3.org/Graphics/SVG/1.1/DTD/svg11.dtd">
<svg version="1.1" id="Layer_1" xmlns="http://www.w3.org/2000/svg" xmlns:xlink="http://www.w3.org/1999/xlink" x="0px" y="0px"
	 viewBox="0 0 151.2 118.6" enable-background="new 0 0 151.2 118.6" xml:space="preserve">
<rect x="0" y="0" fill="#EF452D" width="151.2" height="118.6"/>
<g>
	<path fill="#FFFFFF" d="M76.1,86.8c0-0.8,0.6-1.4,1.4-1.4h4.7c2,1.3,4.2,2.2,6.6,2.7c-0.1,0-0.2,0.1-0.3,0.1h-11
		C76.7,88.1,76.1,87.5,76.1,86.8z M72.7,75.8h2.4c-0.3-0.9-0.4-1.8-0.6-2.7h-1.9c-0.8,0-1.4,0.6-1.4,1.4S72,75.8,72.7,75.8z
		 M62.7,41.3c-1.7-1.1-2.8-3.4-2.8-5.4c0-2.8,2.3-5.1,5.1-5.1c2.8,0,5.1,2.3,5.1,5.1c0,2-1.2,4.2-2.8,5.4c4,1,7,4.5,7,7.1
		c0,3.1-18.6,3.1-18.6,0C55.7,45.8,58.7,42.3,62.7,41.3z M62.4,48.1l2.6,2.6l2.6-2.6l-2.2-5.3h0l0.9-1C65.8,41.9,65.4,42,65,42
		c-0.4,0-0.9-0.1-1.3-0.2l0.9,1h0L62.4,48.1z M96.7,93.4L96.7,93.4l-0.1-0.1c0,0-0.1,0-0.1,0H48.9c-2.5,0-4.5-2-4.5-4.5V29.3
		c0-2.5,2-4.5,4.5-4.5h47.6c2.5,0,4.5,2,4.5,4.5v27.3c1.1,0.7,2.1,1.4,3,2.3V29.3c0-4.1-3.3-7.4-7.4-7.4H48.9
		c-4.1,0-7.4,3.3-7.4,7.4v59.6c0,4.1,3.3,7.4,7.4,7.4h47.6c0.6,0,1.1-0.1,1.7-0.2L96.7,93.4z M57,69.6h17.5c0.1-0.9,0.2-1.8,0.5-2.7
		H57c-0.8,0-1.4,0.6-1.4,1.4C55.7,69,56.3,69.6,57,69.6z M57,57.1h24.6c0.5-0.4,1-0.7,1.5-1c1.3-0.8,2.8-1.4,4.3-1.7H57
		c-0.8,0-1.4,0.6-1.4,1.4C55.7,56.5,56.3,57.1,57,57.1z M57,63.4h19.3c0.5-1,1-1.9,1.7-2.7H57c-0.8,0-1.4,0.6-1.4,1.4
		S56.3,63.4,57,63.4z M103.8,64.2c3.8,6.6,1.5,15.1-5.1,18.9c-6.6,3.8-15.1,1.6-18.9-5.1c-3.8-6.6-1.5-15.1,5.1-18.9
		C91.5,55.3,100,57.6,103.8,64.2z M101.8,65.3c-3.2-5.5-10.3-7.4-15.8-4.2c-5.5,3.2-7.4,10.3-4.2,15.8c3.2,5.5,10.3,7.4,15.8,4.2
		C103.1,77.9,105,70.9,101.8,65.3z M102.2,82.2l-5.9,3.4l4.6,7.9l5.9-3.4L102.2,82.2z M107.4,91.3l-6,3.4c1,1.6,3.1,2.2,4.7,1.3
		C107.8,95,108.3,92.9,107.4,91.3z"/>
</g>
</svg>
