<?xml version="1.0" encoding="utf-8" standalone="no"?>
<!-- Generator: Adobe Illustrator 17.0.0, SVG Export Plug-In . SVG Version: 6.00 Build 0)  -->
<svg id="Capa_1" xmlns:rdf="http://www.w3.org/1999/02/22-rdf-syntax-ns#" xmlns="http://www.w3.org/2000/svg" enable-background="new 0 0 31.348 31.348" xml:space="preserve" viewBox="0 0 31.348 31.348" version="1.1" y="0px" x="0px" xmlns:cc="http://creativecommons.org/ns#" xmlns:dc="http://purl.org/dc/elements/1.1/"><metadata id="metadata29"><rdf:RDF><cc:Work rdf:about=""><dc:format>image/svg+xml</dc:format><dc:type rdf:resource="http://purl.org/dc/dcmitype/StillImage"/><dc:title/></cc:Work></rdf:RDF></metadata><g id="g3" fill="#FFF"><g id="g5" fill="#FFF"><path id="path7" d="M6.035,3.912l-6.035-2.118,0.001,27.76,7.966-2.134v-1.638l0.294,0.133,0.696-1.533h1.023l0.669,1.531,0.377-0.165-0.598-1.366h0.434v-0.618h-0.753l0.729-1.53h2.074v-0.359h-2.301l-0.9,1.89h-0.055l0.107-1.981-0.096-1.788h0.323v-1.222l0.104,0.541,0.741-0.096-0.609-2.865h-1.878v3.642h0.257l0.18,1.788-0.2,1.981h-0.08l-0.539-2.155v-6.321c0.136,0.51,0.597,0.887,1.149,0.887,0.66,0,1.195-0.534,1.195-1.195,0-0.659-0.536-1.193-1.195-1.193-0.552,0-1.013,0.377-1.149,0.886v-10.169l-0.591-0.182v-0.166h13.014v23.25h1.34v-24.591h-15.694v1.096zm-3.876,12.887c-0.451,0-0.816-0.431-0.816-0.961,0-0.531,0.366-0.962,0.816-0.962s0.816,0.431,0.816,0.962c0.001,0.53-0.365,0.961-0.816,0.961zm5.808,7.356l0.056,0.227h0.483l-0.539,1.188v-1.415z"/><circle id="circle9" cy="19.199" cx="18.863" r="1.233"/><polygon id="polygon11" points="17.309,21.853,16.607,23.321,16.516,23.514,15.271,23.514,14.406,20.056,13.788,20.21,14.774,24.149,15.271,24.149,14.633,25.56,15.02,25.735,15.739,24.149,16.793,24.149,17.482,25.731,17.874,25.562,17.256,24.149,17.704,24.149,17.704,23.514,16.926,23.514,17.018,23.321,17.238,22.856,17.678,21.933,19.82,21.933,19.82,21.563,17.443,21.563"/><polygon id="polygon13" points="17.705,20.269,17.018,19.287,16.662,19.346,15.157,22.284,15.372,23.321,16.081,23.321,16.373,23.321,17.253,21.472,17.309,21.358,17.309,21.333,20.105,21.333,20.105,20.685,17.67,20.685"/><polygon id="polygon15" points="18.357,22.458,17.664,22.458,17.253,23.321,17.309,23.321,18.357,23.321,18.357,25.916,19.468,25.916,19.468,22.458,19.379,22.458"/><circle id="circle17" cy="8.483" cx="14.671" r="1.26"/><polygon id="polygon19" points="13.62,13.356,13.089,14.342,12.04,13.785,11.628,14.565,11.518,14.772,11.793,14.918,11.903,14.71,13.379,15.493,13.791,14.714,13.79,14.713,14.521,13.356,14.838,13.356,15.212,14.874,14.328,16.183,14.33,16.183,14.328,16.187,15.238,16.802,15.453,16.483,15.258,16.351,16.154,15.024,16.15,15.022,15.74,13.356,15.74,13.145,15.74,12.857,15.82,12.857,15.979,10.793,17.904,9.625,17.764,8.982,15.729,9.933,15.129,9.933,14.649,10.49,14.184,9.933,13.278,10.103,13.279,10.112,11.323,8.867,10.865,9.585,13.399,11.199,13.531,12.387,13.554,12.857,13.62,12.857,13.62,13.145"/><path id="path21" d="M28.461,3.898c-1.593,0-2.888,1.293-2.888,2.888,0,1.594,1.295,2.887,2.888,2.887,1.591,0,2.887-1.293,2.887-2.887,0-1.595-1.296-2.888-2.887-2.888z"/><polygon id="polygon23" points="23.046,7.509,23.046,18.67,23.668,18.67,24.104,22.987,23.627,27.696,26.211,27.696,26.466,22.987,26.232,18.67,27.016,18.67,26.887,13.818,28.038,15.005,28.721,13.829,25.252,7.915"/></g></g></svg>
