<?xml version="1.0" encoding="utf-8"?>
<!-- Generator: Adobe Illustrator 18.0.0, SVG Export Plug-In . SVG Version: 6.00 Build 0)  -->
<!DOCTYPE svg PUBLIC "-//W3C//DTD SVG 1.1//EN" "http://www.w3.org/Graphics/SVG/1.1/DTD/svg11.dtd">
<svg version="1.1" id="Position_1" xmlns="http://www.w3.org/2000/svg" xmlns:xlink="http://www.w3.org/1999/xlink" x="0px" y="0px"
	 viewBox="0 0 612 792" enable-background="new 0 0 612 792" xml:space="preserve">
<g id="kickman">
	<circle id="head" fill="#444444" cx="289.1" cy="69.7" r="69.7"/>
	<path id="body" fill="#444444" d="M279.9,168.3c19.6-18.1,43.8-28.2,53.7,18.2c1.1,4.8,1.6,9.5,1.5,14.4
		c-0.5,27.3,0.1,140,6.5,209.2c2.6,28.3,15.8,53.1-15.4,65.5c-16.1,6.5-37.6,10.7-69.5,1.5c-76.9-22.2-33.2-186.4-13.2-250.3
		C250.6,204.6,262.6,184.1,279.9,168.3z"/>
	<g id="leftleg">
		<path id="leftfoot" fill="#444444" d="M291.2,794.6L291.2,794.6c18.4-0.2,33.4-15.4,33.2-33.8l-1.8-158.3
			c-0.2-18.4-15.4-33.4-33.8-33.2l0,0c-18.4,0.2-33.4,15.4-33.2,33.8l1.8,158.3C257.6,779.8,272.8,794.9,291.2,794.6z"/>
		<path id="leftthey" fill="#444444" d="M289.8,636.6L289.8,636.6c18.5-0.5,33-16.1,32.5-34.6l-5.4-181c-0.5-18.5-16.1-33-34.6-32.5
			l0,0c-18.5,0.5-33,16.1-32.5,34.6l5.4,181C256,622.6,271.4,637.3,289.8,636.6z"/>
	</g>
	<g id="rightleg">
		<path id="rightfoot" fill="#444444" d="M291.2,794.6L291.2,794.6c18.4-0.2,33.4-15.4,33.2-33.8l-1.8-158.3
			c-0.2-18.4-15.4-33.4-33.8-33.2l0,0c-18.4,0.2-33.4,15.4-33.2,33.8l1.8,158.3C257.6,779.8,272.8,794.9,291.2,794.6z"/>
		<path id="rightthey" fill="#444444" d="M289.8,636.6L289.8,636.6c18.5-0.5,33-16.1,32.5-34.6l-5.4-181
			c-0.5-18.5-16.1-33-34.6-32.5l0,0c-18.5,0.5-33,16.1-32.5,34.6l5.4,181C256,622.6,271.4,637.3,289.8,636.6z"/>
	</g>
	<path id="arm" fill="#444444" stroke="#FFFFFF" stroke-miterlimit="10" d="M316.6,191.3c-5.9,60.6-11.1,163.3,12.5,224.3
		c1,2.5,1.6,5.1,1.6,7.7c0.2,6.7-1.5,18.8-14.3,25.6c-18.4,9.8-41.5-13.6-55.1-53.9c-13.6-40.2-30-119.2-19.3-169
		c4.6-21.6,20.4-40.1,36.7-54.2C294.5,158.2,318.6,170.7,316.6,191.3z"/>
	<circle class="rc" data-for="arm" fill="#444444" stroke="#FFFFFF" stroke-miterlimit="10" cx="284" cy="198" r="1"/>
	<circle class="rc" data-for="rightleg" fill="none" cx="283.3" cy="430" r="1"/>
	<circle class="rc" data-for="rightfoot" fill="none" cx="286.7" cy="601.3" r="1"/>
	<circle class="rc" data-for="leftleg" fill="none" cx="283.3" cy="430" r="1"/>
	<circle class="rc" data-for="leftfoot" fill="none" cx="286.7" cy="601.3" r="1"/>
</g>
</svg>
