<?xml version="1.0" encoding="utf-8"?>
<!-- Generator: Adobe Illustrator 18.0.0, SVG Export Plug-In . SVG Version: 6.00 Build 0)  -->
<!DOCTYPE svg PUBLIC "-//W3C//DTD SVG 1.1//EN" "http://www.w3.org/Graphics/SVG/1.1/DTD/svg11.dtd">
<svg version="1.1" id="Layer_1" xmlns="http://www.w3.org/2000/svg" xmlns:xlink="http://www.w3.org/1999/xlink" x="0px" y="0px"
	 viewBox="0 0 219.9 257.2" enable-background="new 0 0 219.9 257.2" xml:space="preserve">
<g>
	<g>
		<circle cx="123.7" cy="99.6" r="26"/>
		<polygon points="58.4,178.8 39.3,191.8 25.4,171.7 10.5,182.1 6.5,184.8 10.1,190.1 14.1,187.3 33.7,215.6 48.6,205.3 48.6,205.3 
			74.8,187.3 80.6,190.3 73.1,221.6 44.6,237.2 44.6,237.3 44.5,237.3 55.4,257.2 62.3,253.4 60,249.1 89,233.3 88.9,233.2 
			97.2,198.9 99.2,195 101.9,189.7 103.3,190.5 125.8,154.2 172,151 175.6,137.9 129.3,136.1 118.3,130.4 104.3,136.1 101.1,121.5 
			82.9,116 82.8,116.2 58.8,74.9 43.6,83.7 74.7,137.2 65.9,160.2 61.9,169.1 63.1,169.7 60.4,174.9 		"/>
		<path d="M148.8,26.5c1.9,1.3,16.6,11.3,16.6,11.3s-12.6,30.7-11.8,35.1c0.7,4.4,5.3,6.3,5.3,6.3L179,46.1l18.5,9.2L197,67.8
			l5.5,5.4c0,0,2.4-14.1,5-17.4c2.6-3.3,12.4-9.2,12.4-9.2l-4.7-5.3l-13.3,6.3l-15.4-11.9l21.5-32.1c0,0-3.7-5.1-7.8-3.2
			c-4,1.9-24.5,25.6-24.5,25.6s-18.1-11.4-20.1-12c-2-0.6-6.7-3.4-9.5,2.4C143.4,22.3,146.8,25.1,148.8,26.5z"/>
		<g>
			<line fill="none" stroke="#000000" stroke-miterlimit="10" x1="104.5" y1="134" x2="112.2" y2="57.4"/>
			<line fill="none" stroke="#000000" stroke-miterlimit="10" x1="82.4" y1="134.3" x2="45.7" y2="81.7"/>
			<line fill="none" stroke="#000000" stroke-miterlimit="10" x1="74.3" y1="140.6" x2="20.5" y2="96.4"/>
			<path d="M0.2,103c0,0-3.4-25.4,18.4-49.4c6-6.6,20.2-16.7,32-22.3c10.7-5.1,29.2-12.6,49.1-10.1s40.1,16.3,40.1,16.3
				s-16.4-4.4-28.1,18.3c-17.2-9.5-31.7-0.2-34.4,9.3C58.3,59.5,45,80.4,45,80.4c-17-7.5-22.8,2.3-25.9,13.4
				C13.5,92.4,4.4,93.4,0.2,103z"/>
			<line fill="none" stroke="#000000" stroke-miterlimit="10" x1="78.1" y1="66.7" x2="89.6" y2="133.8"/>
			<line fill="none" stroke="#000000" stroke-miterlimit="10" x1="138.9" y1="39.6" x2="111.1" y2="128.3"/>
			<line fill="none" stroke="#000000" stroke-miterlimit="10" x1="2.7" y1="104.3" x2="67.4" y2="144.7"/>
		</g>
	</g>
</g>
</svg>
