<?xml version="1.0" encoding="utf-8" standalone="no"?>
    <!-- Created with Inkscape (http://www.inkscape.org/) -->
    <svg id="svg3016" xmlns:rdf="http://www.w3.org/1999/02/22-rdf-syntax-ns#" xmlns="http://www.w3.org/2000/svg" viewBox="0 0 52.803 204.77" version="1.1" xmlns:cc="http://creativecommons.org/ns#" xmlns:dc="http://purl.org/dc/elements/1.1/">
        <metadata id="metadata3021">
            <rdf:RDF>
                <cc:Work rdf:about="">
                    <dc:format>image/svg+xml</dc:format>
                    <dc:type rdf:resource="http://purl.org/dc/dcmitype/StillImage" />
                    <dc:title/>
                </cc:Work>
            </rdf:RDF>
        </metadata>
        <g id="layer1" fill="#444" transform="translate(-207.88434,-301.40466)">
            <path id="lower-leg-man" d="m227.54,505.96,0,0c9.3,1.5,18.1-4.8,19.6-14.1l13.2-81.1c1.5-9.3-4.8-18.1-14.1-19.6s-18.1,4.8-19.6,14.1l-13.2,81.1c-1.5,9.3,4.8,18.1,14.1,19.6z" />
            <path id="thy" d="m247.04,425.66,0,0c9.2-1.9,15.2-11,13.3-20.2l-18.6-90.4c-1.9-9.2-11-15.2-20.2-13.3s-15.2,11-13.3,20.2l18.6,90.4c1.9,9.2,11,15.2,20.2,13.3z" />
        </g>
        
    </svg>

