<?xml version="1.0" encoding="utf-8"?>
<!-- Generator: Adobe Illustrator 18.0.0, SVG Export Plug-In . SVG Version: 6.00 Build 0)  -->
<!DOCTYPE svg PUBLIC "-//W3C//DTD SVG 1.1//EN" "http://www.w3.org/Graphics/SVG/1.1/DTD/svg11.dtd">
<svg version="1.1" id="Layer_1" xmlns="http://www.w3.org/2000/svg" xmlns:xlink="http://www.w3.org/1999/xlink" x="0px" y="0px"
	 viewBox="0 0 1668.7 557.4" enable-background="new 0 0 1668.7 557.4" xml:space="preserve">
<g>
	<g>
		
			<linearGradient id="SVGID_1_" gradientUnits="userSpaceOnUse" x1="3.7209" y1="-370.0213" x2="1672.552" y2="-370.0213" gradientTransform="matrix(1 0 0 -1 0 -96.3187)">
			<stop  offset="0" style="stop-color:#F3F3F3"/>
			<stop  offset="0.5" style="stop-color:#FFFFFF"/>
			<stop  offset="1" style="stop-color:#F3F3F3"/>
		</linearGradient>
		<rect x="3.7" y="-6.6" fill="url(#SVGID_1_)" width="1668.8" height="560.6"/>
		<g>
			<g>
				<line fill="none" stroke="#9ACBE0" stroke-width="0.9092" stroke-miterlimit="10" x1="3.7" y1="517.4" x2="1672.6" y2="517.4"/>
				<line fill="none" stroke="#9ACBE0" stroke-width="0.9092" stroke-miterlimit="10" x1="3.7" y1="482.6" x2="1672.6" y2="482.6"/>
				<line fill="none" stroke="#9ACBE0" stroke-width="0.9092" stroke-miterlimit="10" x1="3.7" y1="447.8" x2="1672.6" y2="447.8"/>
				<line fill="none" stroke="#9ACBE0" stroke-width="0.9092" stroke-miterlimit="10" x1="3.7" y1="413" x2="1672.6" y2="413"/>
				<line fill="none" stroke="#9ACBE0" stroke-width="0.9092" stroke-miterlimit="10" x1="3.7" y1="378.1" x2="1672.6" y2="378.1"/>
				<line fill="none" stroke="#9ACBE0" stroke-width="0.9092" stroke-miterlimit="10" x1="3.7" y1="343.3" x2="1672.6" y2="343.3"/>
				<line fill="none" stroke="#9ACBE0" stroke-width="0.9092" stroke-miterlimit="10" x1="3.7" y1="308.5" x2="1672.6" y2="308.5"/>
				<line fill="none" stroke="#9ACBE0" stroke-width="0.9092" stroke-miterlimit="10" x1="3.7" y1="273.7" x2="1672.6" y2="273.7"/>
				<line fill="none" stroke="#9ACBE0" stroke-width="0.9092" stroke-miterlimit="10" x1="3.7" y1="238.9" x2="1672.6" y2="238.9"/>
				<line fill="none" stroke="#9ACBE0" stroke-width="0.9092" stroke-miterlimit="10" x1="3.7" y1="204.1" x2="1672.6" y2="204.1"/>
				<line fill="none" stroke="#9ACBE0" stroke-width="0.9092" stroke-miterlimit="10" x1="3.7" y1="169.3" x2="1672.6" y2="169.3"/>
				<line fill="none" stroke="#9ACBE0" stroke-width="0.9092" stroke-miterlimit="10" x1="3.7" y1="134.4" x2="1672.6" y2="134.4"/>
				<line fill="none" stroke="#9ACBE0" stroke-width="0.9092" stroke-miterlimit="10" x1="3.7" y1="99.6" x2="1672.6" y2="99.6"/>
				<line fill="none" stroke="#9ACBE0" stroke-width="0.9092" stroke-miterlimit="10" x1="3.7" y1="64.8" x2="1672.6" y2="64.8"/>
				<line fill="none" stroke="#9ACBE0" stroke-width="0.9092" stroke-miterlimit="10" x1="3.7" y1="30" x2="1672.6" y2="30"/>
			</g>
			<g>
				<line fill="none" stroke="#9ACBE0" stroke-width="0.9092" stroke-miterlimit="10" x1="38.5" y1="-6.6" x2="38.5" y2="554"/>
				<line fill="none" stroke="#9ACBE0" stroke-width="0.9092" stroke-miterlimit="10" x1="73.4" y1="-6.6" x2="73.4" y2="554"/>
				<line fill="none" stroke="#9ACBE0" stroke-width="0.9092" stroke-miterlimit="10" x1="108.2" y1="-6.6" x2="108.2" y2="554"/>
				<line fill="none" stroke="#9ACBE0" stroke-width="0.9092" stroke-miterlimit="10" x1="143" y1="-6.6" x2="143" y2="554"/>
				<line fill="none" stroke="#BF8688" stroke-width="0.9092" stroke-miterlimit="10" x1="177.8" y1="-6.6" x2="177.8" y2="554"/>
				<line fill="none" stroke="#9ACBE0" stroke-width="0.9092" stroke-miterlimit="10" x1="212.6" y1="-6.6" x2="212.6" y2="554"/>
				<line fill="none" stroke="#9ACBE0" stroke-width="0.9092" stroke-miterlimit="10" x1="247.4" y1="-6.6" x2="247.4" y2="554"/>
				<line fill="none" stroke="#9ACBE0" stroke-width="0.9092" stroke-miterlimit="10" x1="282.2" y1="-6.6" x2="282.2" y2="554"/>
				<line fill="none" stroke="#9ACBE0" stroke-width="0.9092" stroke-miterlimit="10" x1="317" y1="-6.6" x2="317" y2="554"/>
				<line fill="none" stroke="#9ACBE0" stroke-width="0.9092" stroke-miterlimit="10" x1="351.9" y1="-6.6" x2="351.9" y2="554"/>
				<line fill="none" stroke="#9ACBE0" stroke-width="0.9092" stroke-miterlimit="10" x1="386.7" y1="-6.6" x2="386.7" y2="554"/>
				<line fill="none" stroke="#9ACBE0" stroke-width="0.9092" stroke-miterlimit="10" x1="421.5" y1="-6.6" x2="421.5" y2="554"/>
				<line fill="none" stroke="#9ACBE0" stroke-width="0.9092" stroke-miterlimit="10" x1="456.3" y1="-6.6" x2="456.3" y2="554"/>
				<line fill="none" stroke="#9ACBE0" stroke-width="0.9092" stroke-miterlimit="10" x1="491.1" y1="-6.6" x2="491.1" y2="554"/>
				<line fill="none" stroke="#9ACBE0" stroke-width="0.9092" stroke-miterlimit="10" x1="525.9" y1="-6.6" x2="525.9" y2="554"/>
			</g>
			<g>
				<line fill="none" stroke="#9ACBE0" stroke-width="0.9092" stroke-miterlimit="10" x1="525.9" y1="-6.6" x2="525.9" y2="554"/>
				<line fill="none" stroke="#9ACBE0" stroke-width="0.9092" stroke-miterlimit="10" x1="560.7" y1="-6.6" x2="560.7" y2="554"/>
				<line fill="none" stroke="#9ACBE0" stroke-width="0.9092" stroke-miterlimit="10" x1="595.5" y1="-6.6" x2="595.5" y2="554"/>
				<line fill="none" stroke="#9ACBE0" stroke-width="0.9092" stroke-miterlimit="10" x1="630.4" y1="-6.6" x2="630.4" y2="554"/>
				<line fill="none" stroke="#9ACBE0" stroke-width="0.9092" stroke-miterlimit="10" x1="665.2" y1="-6.6" x2="665.2" y2="554"/>
				<line fill="none" stroke="#9ACBE0" stroke-width="0.9092" stroke-miterlimit="10" x1="700" y1="-6.6" x2="700" y2="554"/>
				<line fill="none" stroke="#9ACBE0" stroke-width="0.9092" stroke-miterlimit="10" x1="734.8" y1="-6.6" x2="734.8" y2="554"/>
				<line fill="none" stroke="#9ACBE0" stroke-width="0.9092" stroke-miterlimit="10" x1="769.6" y1="-6.6" x2="769.6" y2="554"/>
				<line fill="none" stroke="#9ACBE0" stroke-width="0.9092" stroke-miterlimit="10" x1="804.4" y1="-6.6" x2="804.4" y2="554"/>
				<line fill="none" stroke="#9ACBE0" stroke-width="0.9092" stroke-miterlimit="10" x1="839.2" y1="-6.6" x2="839.2" y2="554"/>
				<line fill="none" stroke="#9ACBE0" stroke-width="0.9092" stroke-miterlimit="10" x1="874" y1="-6.6" x2="874" y2="554"/>
				<line fill="none" stroke="#9ACBE0" stroke-width="0.9092" stroke-miterlimit="10" x1="908.9" y1="-6.6" x2="908.9" y2="554"/>
				<line fill="none" stroke="#9ACBE0" stroke-width="0.9092" stroke-miterlimit="10" x1="943.7" y1="-6.6" x2="943.7" y2="554"/>
				<line fill="none" stroke="#9ACBE0" stroke-width="0.9092" stroke-miterlimit="10" x1="978.5" y1="-6.6" x2="978.5" y2="554"/>
				<line fill="none" stroke="#9ACBE0" stroke-width="0.9092" stroke-miterlimit="10" x1="1013.3" y1="-6.6" x2="1013.3" y2="554"/>
			</g>
			<g>
				<line fill="none" stroke="#9ACBE0" stroke-width="0.9092" stroke-miterlimit="10" x1="1013.3" y1="-6.6" x2="1013.3" y2="554"/>
				<line fill="none" stroke="#9ACBE0" stroke-width="0.9092" stroke-miterlimit="10" x1="1048.1" y1="-6.6" x2="1048.1" y2="554"/>
				<line fill="none" stroke="#9ACBE0" stroke-width="0.9092" stroke-miterlimit="10" x1="1082.9" y1="-6.6" x2="1082.9" y2="554"/>
				<line fill="none" stroke="#9ACBE0" stroke-width="0.9092" stroke-miterlimit="10" x1="1117.7" y1="-6.6" x2="1117.7" y2="554"/>
				<line fill="none" stroke="#9ACBE0" stroke-width="0.9092" stroke-miterlimit="10" x1="1152.6" y1="-6.6" x2="1152.6" y2="554"/>
				<line fill="none" stroke="#9ACBE0" stroke-width="0.9092" stroke-miterlimit="10" x1="1187.4" y1="-6.6" x2="1187.4" y2="554"/>
				<line fill="none" stroke="#9ACBE0" stroke-width="0.9092" stroke-miterlimit="10" x1="1222.2" y1="-6.6" x2="1222.2" y2="554"/>
				<line fill="none" stroke="#9ACBE0" stroke-width="0.9092" stroke-miterlimit="10" x1="1257" y1="-6.6" x2="1257" y2="554"/>
				<line fill="none" stroke="#9ACBE0" stroke-width="0.9092" stroke-miterlimit="10" x1="1291.8" y1="-6.6" x2="1291.8" y2="554"/>
				<line fill="none" stroke="#9ACBE0" stroke-width="0.9092" stroke-miterlimit="10" x1="1326.6" y1="-6.6" x2="1326.6" y2="554"/>
				<line fill="none" stroke="#9ACBE0" stroke-width="0.9092" stroke-miterlimit="10" x1="1361.4" y1="-6.6" x2="1361.4" y2="554"/>
				<line fill="none" stroke="#9ACBE0" stroke-width="0.9092" stroke-miterlimit="10" x1="1396.2" y1="-6.6" x2="1396.2" y2="554"/>
				<line fill="none" stroke="#9ACBE0" stroke-width="0.9092" stroke-miterlimit="10" x1="1431.1" y1="-6.6" x2="1431.1" y2="554"/>
				<line fill="none" stroke="#9ACBE0" stroke-width="0.9092" stroke-miterlimit="10" x1="1465.9" y1="-6.6" x2="1465.9" y2="554"/>
				<line fill="none" stroke="#9ACBE0" stroke-width="0.9092" stroke-miterlimit="10" x1="1500.7" y1="-6.6" x2="1500.7" y2="554"/>
			</g>
			<g>
				<line fill="none" stroke="#9ACBE0" stroke-width="0.9092" stroke-miterlimit="10" x1="1500.7" y1="-6.6" x2="1500.7" y2="554"/>
				<line fill="none" stroke="#9ACBE0" stroke-width="0.9092" stroke-miterlimit="10" x1="1535.5" y1="-6.6" x2="1535.5" y2="554"/>
				<line fill="none" stroke="#9ACBE0" stroke-width="0.9092" stroke-miterlimit="10" x1="1570.3" y1="-6.6" x2="1570.3" y2="554"/>
				<line fill="none" stroke="#9ACBE0" stroke-width="0.9092" stroke-miterlimit="10" x1="1605.1" y1="-6.6" x2="1605.1" y2="554"/>
				<line fill="none" stroke="#9ACBE0" stroke-width="0.9092" stroke-miterlimit="10" x1="1639.9" y1="-6.6" x2="1639.9" y2="554"/>
			</g>
		</g>
	</g>
</g>
<g>
	<path fill="#282561" d="M231.9,203.8l-7.1,32.3c-2.8,13.2-7.9,21.4-22,21.4c-8.2,0-12-5.9-12-11.9c0-5.8,3.7-11.8,10.5-11.8
		c3.4,0,8.4,0.3,8.4,5.8c0,0.9-0.2,2.2-0.5,3.4c-2.2-1.8-3.4-2.2-5.2-2.2c-4,0-6,3.4-6,6.5c0,3,1.8,5.8,5.4,5.8
		c3.9,0,6.6-1.7,8.6-10.6l3.4-15.4c-5,2.7-9.7,3.1-10.5,3.1c-14,0-18.5-10.2-18.5-22c0-16.4,11.3-33.1,30.5-33.1c8,0,16,3.2,16,11.5
		c0,4.6-1.6,7.9-6,7.9c-1.4,0-4.3-0.3-5.9-2.2c2.2-0.6,3.8-4.9,3.8-7.1c0-1.4-0.4-6.1-5.9-6.1c-9.5,0-19.1,16.1-19.1,29.8
		c0,7.7,2.8,14.2,10,14.2c3.2,0,5.5-0.8,7.3-3.2l3.7-16.3L231.9,203.8z"/>
	<path fill="#282561" d="M256.6,179.6l-9.9,46.4c-0.3,1.1-0.3,2-0.3,2.8c0,2.4,1.1,3.2,3.5,3.2c3.4,0,6.5-3.3,7.7-7.6h3.6
		c-4.9,14-13.4,15.9-18.1,15.9c-5.2,0-9.2-3.1-9.2-10.3c0-1.6,0.3-3.5,0.7-5.6l9.2-43.1L256.6,179.6z"/>
	<path fill="#282561" d="M291,209.8c0.3,0.2,0.7,0.2,0.9,0.2c4,0,9.5-2.6,13.2-5.2l0.8,2.3c-3.3,3.5-8.9,6.1-15.2,7.1
		c-1.4,15.9-10,25.9-20.6,25.9c-8,0-13.8-3.8-13.8-13.6c0-9.9,5.8-30.5,23.6-30.5C287.4,196,291,200.7,291,209.8z M283.6,214.5
		c-1.8-0.4-2.3-1.9-2.3-3.6c0-2.4,1.1-4,2.7-4.6c-0.2-3.6-1-5-3.3-5c-6.1,0-11.4,15.7-11.4,24.2c0,5.7,1.1,7,4.4,7
		C277.8,232.4,282.2,224.6,283.6,214.5z"/>
	<path fill="#282561" d="M304.6,181.3l12.7-1.7l-4.1,19.4c3.5-2.2,5.3-2.4,7.1-2.4c6,0,10.2,3.8,10.2,14.7
		c0,10.1-5.3,29.1-23.6,29.1c-7.9,0-12-4.1-12-11c0-1.5,0.2-3.1,0.6-4.9L304.6,181.3z M317.2,202.6c-1.2,0-4.1,0.4-5.1,1.5
		l-4.7,21.8c-0.2,0.7-0.3,1.4-0.3,2c0,2.5,1.5,4,4.6,4c5.6,0,10.1-12,10.1-21.1C321.7,206.7,320.3,202.6,317.2,202.6z"/>
	<path fill="#282561" d="M374.9,196.8l-6.2,29.2c-0.3,1.1-0.3,2-0.3,2.8c0,2.4,1.1,3.7,3.5,3.7c3.4,0,5.7-3.8,7-8.1h3.6
		c-4.9,14-12.6,15.9-17.3,15.9c-4.8,0-7.9-2.8-8.4-7.9c-2.7,4-6.7,7.9-12.8,7.9c-5.8,0-11.4-3.6-11.4-13.8
		c0-11.6,7.1-30.1,22.1-30.1c4.9,0,7,1.9,7,4.4v0.6l0.9-4.6H374.9z M345.2,225.2c0,6.6,2.8,6.7,4.3,6.7c2.5,0,6.1-2.6,7.1-7.6
		l4.1-19.4c0-1-0.8-3.3-3.5-3.3C349.9,201.7,345.2,217.1,345.2,225.2z"/>
	<path fill="#282561" d="M390.7,225.8c-0.2,0.9-0.3,1.7-0.3,2.5c0,2,0.9,3.4,3.5,3.4c1.5,0,2.2-0.3,2.8-0.5c-0.4,6.1-4.8,9-9.5,9
		c-5.2,0-9.2-3.2-9.2-10.5c0-1.6,0.3-3.5,0.7-5.6l9.2-43.1l12.7-1.7L390.7,225.8z"/>
	<path fill="#282561" d="M453.1,184.5l-11.9,55.2h-12.4l12.2-56.9h-1c-9.1,0-16.2,3.5-16.2,17.4c0,4.4,1.1,5.1,1.2,5.8
		c-5.9,0-9.2-2.2-9.2-8.3c0-11.4,8.1-22.4,29.3-22.4c10.4,0,13.6,2,22,2c4,0,7.7-0.9,10-1.8c-0.2,7.5-3.9,10.9-10.8,10.9
		C462.2,186.4,457.7,185.6,453.1,184.5z"/>
	<path fill="#282561" d="M498,196.8l-6.2,29.2c-0.3,1.1-0.3,2-0.3,2.8c0,2.4,1.1,3.7,3.5,3.7c3.4,0,5.7-3.8,7-8.1h3.6
		c-4.9,14-12.6,15.9-17.3,15.9c-4.8,0-7.9-2.8-8.4-7.9c-2.7,4-6.7,7.9-12.8,7.9c-5.8,0-11.4-3.6-11.4-13.8
		c0-11.6,7.1-30.1,22.1-30.1c4.9,0,7,1.9,7,4.4v0.6l0.9-4.6H498z M468.3,225.2c0,6.6,2.8,6.7,4.3,6.7c2.5,0,6.1-2.6,7.1-7.6
		l4.1-19.4c0-1-0.8-3.3-3.5-3.3C473,201.7,468.3,217.1,468.3,225.2z"/>
	<path fill="#282561" d="M523.8,179.6l-9.9,46.4c-0.3,1.1-0.3,2-0.3,2.8c0,2.4,1.1,3.2,3.5,3.2c3.4,0,6.5-3.3,7.7-7.6h3.6
		c-4.9,14-13.4,15.9-18.1,15.9c-5.2,0-9.2-3.1-9.2-10.3c0-1.6,0.3-3.5,0.7-5.6l9.2-43.1L523.8,179.6z"/>
	<path fill="#282561" d="M542.7,233.1c6.8,0,10.9-3.8,15.2-8.7h2.9c-4.9,7.9-12.2,15.9-23.7,15.9c-8.1,0-13.4-4-13.4-13.7
		c0-9.9,5.6-30.6,23.2-30.6c7.7,0,9.5,4,9.5,8.3c0,9.9-9.5,17.5-19.8,18.2c-0.1,1.2-0.2,2.4-0.2,3.4
		C536.5,231.7,538.5,233.1,542.7,233.1z M547.7,200.5c-4.4,0-8.6,9.2-10.3,17.7c6.6-0.4,12.5-7.1,12.5-14.2
		C549.8,201.9,549.3,200.5,547.7,200.5z"/>
	<path fill="#282561" d="M579.6,204.2c-3.1,0-5.4,3.6-6.7,7.9l-5.8,27.6h-12.4l9.1-43h12.4l-0.9,4.5c3.6-4.1,7.4-4.8,10.1-4.8
		c5.5,0,9.5,2.8,9.5,9.7c0,7-4.1,17.4-4.1,22.2c0,2.2,0.9,3.6,3.4,3.6c3.8,0,5.3-3.1,7.2-7.6h3.6c-4.8,14.1-11.4,15.9-16,15.9
		c-7.5,0-10.2-4.8-10.2-9.7c0-5.8,3.9-16.4,3.9-21.9C582.7,205.8,581.6,204.2,579.6,204.2z"/>
	<path fill="#282561" d="M613.7,226c-0.3,1-0.4,2.1-0.4,3c0,1.8,0.7,3.1,3,3.1c0.6,0,1.5,0,2.2-0.3c-2.4,7.4-6.2,8.4-9.1,8.4
		c-6,0-8.6-4.2-8.6-9.7c0-1.5,0.2-3,0.5-4.6l5.5-25.8H604l0.7-3.4h2.8l2.6-11.9l12.7-1.7c0,0-1.3,5.8-2.9,13.6h5.2l-0.7,3.4h-5.2
		L613.7,226z"/>
	<path fill="#282561" d="M282.2,300l-6.2,29.2c-0.3,1.1-0.3,2-0.3,2.8c0,2.4,1.1,3.7,3.5,3.7c3.4,0,5.7-3.8,7-8.1h3.6
		c-4.9,14-12.6,15.9-17.3,15.9c-4.8,0-7.9-2.8-8.4-7.9c-2.7,4-6.7,7.9-12.8,7.9c-5.8,0-11.4-3.6-11.4-13.8
		c0-11.6,7.1-30.1,22.1-30.1c4.9,0,7,1.9,7,4.4v0.6l0.9-4.6H282.2z M252.6,328.5c0,6.6,2.8,6.7,4.3,6.7c2.5,0,6.1-2.6,7.1-7.6
		l4.1-19.4c0-1-0.8-3.3-3.5-3.3C257.3,304.9,252.6,320.4,252.6,328.5z"/>
	<path fill="#282561" d="M308.1,282.8l-9.9,46.4c-0.3,1.1-0.3,2-0.3,2.8c0,2.4,1.1,3.2,3.5,3.2c3.4,0,6.5-3.3,7.7-7.6h3.6
		c-4.9,14-13.4,15.9-18.1,15.9c-5.2,0-9.2-3.1-9.2-10.3c0-1.6,0.3-3.5,0.7-5.6l9.2-43.1L308.1,282.8z"/>
	<path fill="#282561" d="M331.1,282.8l-9.9,46.4c-0.3,1.1-0.3,2-0.3,2.8c0,2.4,1.1,3.2,3.5,3.2c3.4,0,6.5-3.3,7.7-7.6h3.6
		c-4.9,14-13.4,15.9-18.1,15.9c-5.2,0-9.2-3.1-9.2-10.3c0-1.6,0.3-3.5,0.7-5.6l9.2-43.1L331.1,282.8z"/>
	<path fill="#282561" d="M365.5,313c0.3,0.2,0.7,0.2,0.9,0.2c4,0,9.5-2.6,13.2-5.2l0.8,2.3c-3.3,3.5-8.9,6.1-15.2,7.1
		c-1.4,15.9-10,25.9-20.6,25.9c-8,0-13.8-3.8-13.8-13.6c0-9.9,5.8-30.5,23.6-30.5C361.9,299.2,365.5,303.9,365.5,313z M358.1,317.7
		c-1.8-0.4-2.3-1.9-2.3-3.6c0-2.4,1.1-4,2.7-4.6c-0.2-3.6-1-5-3.3-5c-6.1,0-11.4,15.7-11.4,24.2c0,5.7,1.1,7,4.4,7
		C352.3,335.6,356.7,327.8,358.1,317.7z"/>
	<path fill="#282561" d="M388.1,300l-6.2,29.2c-0.2,0.7-0.3,1.5-0.3,2.2c0,2,0.6,3.8,2.6,3.8c3.4,0,5.6-3.3,6.9-7.6L397,300h12.4
		l-6.2,29.2c-0.3,1.2-0.4,2.3-0.4,3.1c0,1.7,0.9,2.8,2.9,2.8c8.4,0,14.9-19.3,14.9-28.7c-0.3,0.6-2.1,0.9-2.8,0.9
		c-2.1,0-3.1-2.5-3.1-4.4c0-2.7,1.7-4.6,5.3-4.6c4.1,0,5.4,3.7,5.4,7.5c0,13.8-7,37.8-24.5,37.8c-5.6,0-9.3-2.4-10.3-7.2
		c-4.2,6.2-8.8,7.2-12.2,7.2c-5.2,0-9.2-3.1-9.2-10.3c0-1.6,0.3-3.5,0.7-5.6l5.8-27.6H388.1z"/>
	<path fill="#282561" d="M451.9,297.3c1,22.3,1.9,25.6,1.9,31.3c0,11.2-10.2,14.9-17.2,14.9c-8.8,0-12.6-5.8-12.6-11
		c0-4,2.2-6.9,4.6-8c4.8-8.5,7.9-17,10.6-25.5L451.9,297.3z M430.9,331.8c-0.9,0-1.9-0.3-2.3-1.1c0,4,1.5,6,5.2,6c3.8,0,7.5-2,7.5-8
		c0-4.5-0.8-7.1-1.6-20.4c-1.7,5.6-4.1,10.8-7,16.3c1.1,0.5,2,1.5,2,3C434.6,329.7,433.1,331.8,430.9,331.8z"/>
	<path fill="#282561" d="M512.1,300l-8.5,39.9c5.2-1.9,8.4-4.8,10.8-12.3h3.6c-3.4,11.4-9.9,14.6-15.2,16.1l-1.3,6.2
		c-2.6,12.3-9.8,14.6-15.5,14.6c-5.2,0-9.6-2.8-9.6-8.3c0-7.2,7.6-10.8,14-12.8l1-4.6c-3.6,4-7.4,4.8-10.3,4.8
		c-5.2,0-9.2-3.1-9.2-10.3c0-1.6,0.3-3.5,0.7-5.6l5.8-27.6h12.4l-6.2,29.2c-0.2,0.7-0.3,1.5-0.3,2.2c0,2,0.6,3.8,2.6,3.8
		c3.2,0,5.4-3,6.7-7.1l6-28.1H512.1z M484,357.8c1.8,0,3.9-2.6,5-7.7l0.5-2.5c-4.4,1.6-8.4,3.9-8.4,7.3
		C481.1,356.1,482.1,357.8,484,357.8z"/>
	<path fill="#282561" d="M547.8,313c0.3,0.2,0.7,0.2,0.9,0.2c4,0,9.5-2.6,13.2-5.2l0.8,2.3c-3.3,3.5-8.9,6.1-15.2,7.1
		c-1.4,15.9-10,25.9-20.6,25.9c-8,0-13.8-3.8-13.8-13.6c0-9.9,5.8-30.5,23.6-30.5C544.1,299.2,547.8,303.9,547.8,313z M540.4,317.7
		c-1.8-0.4-2.3-1.9-2.3-3.6c0-2.4,1.1-4,2.7-4.6c-0.2-3.6-1-5-3.3-5c-6.1,0-11.4,15.7-11.4,24.2c0,5.7,1.1,7,4.4,7
		C534.6,335.6,539,327.8,540.4,317.7z"/>
	<path fill="#282561" d="M570.4,300l-6.2,29.2c-0.2,0.7-0.3,1.5-0.3,2.2c0,2,0.6,3.8,2.6,3.8c3.4,0,5.6-3.3,6.9-7.6l5.8-27.6h12.4
		l-6.2,29.2c-0.3,1.1-0.3,2-0.3,2.8c0,2.4,1.1,3.2,3.5,3.2c1.6,0,2.1-0.3,2.8-0.5c-0.4,6.2-4.9,8.9-9.5,8.9c-4.7,0-7.8-3.1-8.4-8.2
		c-4.3,7.1-9.2,8.2-12.8,8.2c-5.2,0-9.2-3.1-9.2-10.3c0-1.6,0.3-3.5,0.7-5.6L558,300H570.4z"/>
	<path fill="#282561" d="M631.4,286.4l-2.9,13.6h5.2l-0.7,3.4h-5.2l-5.5,25.8c-0.3,1.1-0.3,2-0.3,2.8c0,2.4,1.1,3.2,3.5,3.2
		c3.4,0,6.5-3.3,7.7-7.6h3.6c-4.9,14-13.4,15.9-18.1,15.9c-5.2,0-9.2-3.1-9.2-10.3c0-1.6,0.3-3.5,0.7-5.6l5.2-24.2h-2.8l0.7-3.4h2.8
		l2.6-11.9L631.4,286.4z"/>
	<path fill="#282561" d="M666.3,310.8c3-0.6,5.2-4.3,6.1-5.9h2.8c-1.7,3.7-4.3,9-8.9,11.5c-1,16.5-9.6,26.9-20.5,26.9
		c-8,0-13.8-3.8-13.8-13.6c0-9.9,5.6-30.5,23.3-30.5C662.2,299.2,665.8,303.2,666.3,310.8z M659,317.7c-1.4-0.5-2.1-1.7-2.1-3.9
		c0-2.3,0.9-3.8,2.4-4.5c-0.2-3.6-1.1-4.9-3.3-4.9c-6.1,0-11.2,15.7-11.2,24.2c0,5.7,1.1,7,4.4,7C653.5,335.6,657.7,327.8,659,317.7
		z"/>
</g>
<path fill="none" stroke="#000000" stroke-width="3" stroke-miterlimit="10" stroke-dasharray="12" d="M879.1,377
	c0,0,7.3-157.8,112.8-70.3"/>
<path fill="none" stroke="#000000" stroke-width="3" stroke-miterlimit="10" stroke-dasharray="12" d="M781.7,445.7
	c0,0-8.2-155.9,97.2-68.4"/>
<path fill="none" stroke="#000000" stroke-width="3" stroke-miterlimit="10" stroke-dasharray="12" d="M991.7,303.9
	c0,0-3.6-152.6,101.9-65.1"/>
<path fill="none" stroke="#000000" stroke-width="3" stroke-miterlimit="10" stroke-dasharray="12" d="M1091.9,238.6
	c0,0-13.5-152.4,92-64.8"/>
<g>
	<line fill="none" stroke="#010101" stroke-width="2" stroke-miterlimit="10" x1="713.4" y1="490.4" x2="713.4" y2="57"/>
	<line fill="none" stroke="#010101" stroke-width="2" stroke-miterlimit="10" x1="713.8" y1="491.4" x2="1442.7" y2="491.4"/>
	<polygon fill="#010101" points="713.7,34.8 699.8,68.3 713.7,61.1 727.8,68.3 	"/>
	<polygon fill="#010101" points="1461.6,491 1428,477.4 1435.4,491.3 1428.3,505.4 	"/>
</g>
<circle fill="#29ABE2" cx="782.5" cy="440.6" r="8.2"/>
<g>
	<path fill="#282561" d="M809.6,447.5c0.6,0,1.1-0.1,1.5-0.3c0.4-0.2,0.8-0.5,1.1-0.8c0.3-0.3,0.5-0.7,0.7-1.2
		c0.2-0.5,0.2-1,0.2-1.6v-8.2h1.8v8.2c0,0.8-0.1,1.5-0.4,2.2c-0.2,0.7-0.6,1.2-1.1,1.7c-0.5,0.5-1,0.9-1.7,1.1
		c-0.7,0.3-1.4,0.4-2.2,0.4c-0.8,0-1.6-0.1-2.2-0.4c-0.7-0.3-1.2-0.7-1.7-1.1c-0.5-0.5-0.8-1.1-1.1-1.7c-0.2-0.7-0.4-1.4-0.4-2.2
		v-8.2h1.8v8.2c0,0.6,0.1,1.1,0.2,1.6c0.2,0.5,0.4,0.9,0.7,1.2c0.3,0.3,0.7,0.6,1.1,0.8C808.6,447.4,809.1,447.5,809.6,447.5z"/>
	<path fill="#282561" d="M819.2,440.8c0.2-0.2,0.4-0.4,0.7-0.6c0.2-0.2,0.5-0.4,0.7-0.5c0.3-0.1,0.5-0.2,0.8-0.3
		c0.3-0.1,0.6-0.1,0.9-0.1c0.5,0,1,0.1,1.4,0.3c0.4,0.2,0.7,0.4,1,0.7c0.3,0.3,0.5,0.7,0.6,1.1c0.1,0.4,0.2,0.9,0.2,1.5v6.1h-1.7
		v-6.1c0-0.7-0.2-1.3-0.5-1.7c-0.3-0.4-0.8-0.6-1.5-0.6c-0.5,0-1,0.1-1.4,0.4c-0.4,0.2-0.8,0.6-1.2,1v7h-1.7v-9.5h1
		c0.2,0,0.4,0.1,0.4,0.3L819.2,440.8z"/>
	<path fill="#282561" d="M836,435.1V449h-1c-0.2,0-0.4-0.1-0.5-0.3l-0.2-1.2c-0.4,0.5-0.9,0.9-1.4,1.2c-0.5,0.3-1.1,0.5-1.8,0.5
		c-0.5,0-1-0.1-1.5-0.3c-0.4-0.2-0.8-0.5-1.1-0.9c-0.3-0.4-0.6-0.9-0.7-1.5c-0.2-0.6-0.3-1.3-0.3-2.1c0-0.7,0.1-1.4,0.3-2
		c0.2-0.6,0.5-1.1,0.8-1.6c0.4-0.4,0.8-0.8,1.3-1c0.5-0.3,1.1-0.4,1.7-0.4c0.6,0,1.1,0.1,1.5,0.3c0.4,0.2,0.8,0.5,1.1,0.8v-5.3H836z
		 M834.3,441.7c-0.3-0.4-0.7-0.7-1-0.9c-0.4-0.2-0.8-0.2-1.2-0.2c-0.9,0-1.6,0.3-2,1c-0.5,0.6-0.7,1.5-0.7,2.7
		c0,0.6,0.1,1.2,0.2,1.6c0.1,0.4,0.3,0.8,0.5,1.1c0.2,0.3,0.5,0.5,0.8,0.6c0.3,0.1,0.6,0.2,1,0.2c0.6,0,1-0.1,1.4-0.4
		c0.4-0.3,0.8-0.6,1.1-1.1V441.7z"/>
	<path fill="#282561" d="M846.4,447.6c-0.2,0.3-0.5,0.5-0.7,0.7c-0.3,0.2-0.6,0.3-0.9,0.5c-0.3,0.1-0.7,0.2-1,0.3
		c-0.4,0.1-0.7,0.1-1,0.1c-0.7,0-1.3-0.1-1.8-0.3c-0.6-0.2-1-0.5-1.4-1c-0.4-0.4-0.7-1-0.9-1.6c-0.2-0.6-0.3-1.4-0.3-2.2
		c0-0.7,0.1-1.3,0.3-1.9c0.2-0.6,0.5-1.1,0.9-1.5c0.4-0.4,0.9-0.8,1.4-1c0.6-0.2,1.2-0.4,1.9-0.4c0.6,0,1.1,0.1,1.6,0.3
		c0.5,0.2,0.9,0.5,1.3,0.8c0.4,0.4,0.6,0.8,0.8,1.3c0.2,0.5,0.3,1.1,0.3,1.8c0,0.3,0,0.4-0.1,0.5c-0.1,0.1-0.2,0.1-0.3,0.1h-6.4
		c0,0.6,0.1,1.1,0.3,1.6c0.1,0.4,0.4,0.8,0.6,1.1c0.3,0.3,0.6,0.5,0.9,0.7c0.4,0.1,0.8,0.2,1.2,0.2c0.4,0,0.8,0,1.1-0.1
		c0.3-0.1,0.6-0.2,0.8-0.3c0.2-0.1,0.4-0.2,0.6-0.3c0.1-0.1,0.3-0.1,0.4-0.1c0.1,0,0.2,0.1,0.3,0.2L846.4,447.6z M845.1,443.2
		c0-0.4-0.1-0.7-0.2-1.1c-0.1-0.3-0.3-0.6-0.5-0.8c-0.2-0.2-0.5-0.4-0.8-0.5c-0.3-0.1-0.6-0.2-1-0.2c-0.8,0-1.4,0.2-1.9,0.7
		c-0.5,0.5-0.8,1.1-0.9,1.9H845.1z"/>
	<path fill="#282561" d="M850.2,441.3c0.3-0.7,0.7-1.2,1.1-1.5c0.4-0.4,1-0.6,1.6-0.6c0.2,0,0.4,0,0.6,0.1c0.2,0,0.3,0.1,0.5,0.2
		l-0.1,1.3c0,0.2-0.1,0.2-0.3,0.2c-0.1,0-0.2,0-0.4-0.1c-0.2,0-0.4-0.1-0.6-0.1c-0.3,0-0.6,0-0.8,0.1c-0.2,0.1-0.4,0.2-0.6,0.4
		c-0.2,0.2-0.4,0.4-0.5,0.6c-0.1,0.3-0.3,0.5-0.4,0.9v6h-1.7v-9.5h1c0.2,0,0.3,0,0.4,0.1c0.1,0.1,0.1,0.2,0.1,0.4L850.2,441.3z"/>
	<path fill="#282561" d="M861,441c-0.1,0.1-0.2,0.2-0.3,0.2c-0.1,0-0.2,0-0.3-0.1c-0.1-0.1-0.3-0.1-0.4-0.2
		c-0.2-0.1-0.4-0.2-0.6-0.2s-0.5-0.1-0.8-0.1c-0.3,0-0.5,0-0.8,0.1c-0.2,0.1-0.4,0.2-0.6,0.3c-0.2,0.1-0.3,0.3-0.4,0.4
		c-0.1,0.2-0.1,0.3-0.1,0.5c0,0.2,0.1,0.4,0.2,0.6c0.1,0.2,0.3,0.3,0.6,0.4c0.2,0.1,0.5,0.2,0.8,0.3c0.3,0.1,0.6,0.2,0.9,0.3
		c0.3,0.1,0.6,0.2,0.9,0.3c0.3,0.1,0.6,0.3,0.8,0.5s0.4,0.4,0.6,0.7c0.1,0.3,0.2,0.6,0.2,1c0,0.4-0.1,0.8-0.2,1.2s-0.4,0.7-0.7,1
		c-0.3,0.3-0.7,0.5-1.1,0.6c-0.4,0.2-1,0.2-1.5,0.2c-0.7,0-1.3-0.1-1.8-0.3c-0.5-0.2-1-0.5-1.4-0.8l0.4-0.6c0.1-0.1,0.1-0.1,0.2-0.2
		c0.1,0,0.2-0.1,0.3-0.1c0.1,0,0.2,0,0.4,0.1c0.1,0.1,0.3,0.2,0.5,0.3c0.2,0.1,0.4,0.2,0.7,0.3c0.3,0.1,0.6,0.1,1,0.1
		c0.3,0,0.6,0,0.9-0.1c0.2-0.1,0.4-0.2,0.6-0.3c0.2-0.1,0.3-0.3,0.4-0.5c0.1-0.2,0.1-0.4,0.1-0.6c0-0.3-0.1-0.5-0.2-0.7
		c-0.1-0.2-0.3-0.3-0.6-0.4c-0.2-0.1-0.5-0.2-0.8-0.3c-0.3-0.1-0.6-0.2-0.9-0.3c-0.3-0.1-0.6-0.2-0.9-0.3c-0.3-0.1-0.6-0.3-0.8-0.5
		c-0.2-0.2-0.4-0.4-0.6-0.7c-0.1-0.3-0.2-0.6-0.2-1c0-0.4,0.1-0.7,0.2-1.1c0.2-0.3,0.4-0.6,0.7-0.9c0.3-0.3,0.6-0.5,1.1-0.6
		c0.4-0.2,0.9-0.2,1.4-0.2c0.6,0,1.2,0.1,1.7,0.3c0.5,0.2,0.9,0.5,1.3,0.8L861,441z"/>
	<path fill="#282561" d="M866.5,449.1c-0.8,0-1.3-0.2-1.7-0.6c-0.4-0.4-0.6-1-0.6-1.8v-5.8H863c-0.1,0-0.2,0-0.3-0.1
		c-0.1-0.1-0.1-0.2-0.1-0.3v-0.7l1.6-0.2l0.4-2.9c0-0.1,0.1-0.2,0.1-0.2c0.1-0.1,0.2-0.1,0.3-0.1h0.8v3.3h2.8v1.2h-2.8v5.7
		c0,0.4,0.1,0.7,0.3,0.9c0.2,0.2,0.4,0.3,0.8,0.3c0.2,0,0.3,0,0.5-0.1c0.1,0,0.2-0.1,0.3-0.2c0.1-0.1,0.2-0.1,0.2-0.2
		c0.1,0,0.1-0.1,0.2-0.1c0.1,0,0.2,0.1,0.2,0.2l0.5,0.8c-0.3,0.3-0.6,0.5-1,0.6C867.4,449.1,867,449.1,866.5,449.1z"/>
	<path fill="#282561" d="M870.1,440.8c0.5-0.5,1.1-0.9,1.7-1.1c0.6-0.3,1.3-0.4,2-0.4c0.5,0,1,0.1,1.4,0.3c0.4,0.2,0.8,0.4,1,0.7
		c0.3,0.3,0.5,0.7,0.6,1.1c0.1,0.4,0.2,0.9,0.2,1.5v6.1h-0.7c-0.2,0-0.3,0-0.4-0.1c-0.1-0.1-0.2-0.2-0.2-0.3l-0.2-0.9
		c-0.3,0.2-0.5,0.4-0.7,0.6c-0.2,0.2-0.5,0.3-0.8,0.5c-0.3,0.1-0.5,0.2-0.8,0.3c-0.3,0.1-0.6,0.1-1,0.1c-0.4,0-0.7-0.1-1-0.2
		c-0.3-0.1-0.6-0.3-0.9-0.5c-0.2-0.2-0.4-0.5-0.6-0.8c-0.1-0.3-0.2-0.7-0.2-1.1c0-0.4,0.1-0.7,0.3-1.1c0.2-0.3,0.5-0.7,1-0.9
		c0.5-0.3,1.1-0.5,1.8-0.7c0.7-0.2,1.7-0.3,2.8-0.3v-0.7c0-0.7-0.2-1.3-0.5-1.7c-0.3-0.4-0.8-0.6-1.4-0.6c-0.4,0-0.8,0.1-1,0.2
		c-0.3,0.1-0.5,0.2-0.7,0.3c-0.2,0.1-0.4,0.2-0.5,0.3c-0.1,0.1-0.3,0.2-0.4,0.2c-0.1,0-0.2,0-0.3-0.1c-0.1-0.1-0.2-0.1-0.2-0.2
		L870.1,440.8z M875.5,444.7c-0.8,0-1.4,0.1-2,0.2c-0.5,0.1-1,0.2-1.3,0.4c-0.3,0.2-0.6,0.3-0.7,0.6c-0.2,0.2-0.2,0.5-0.2,0.7
		c0,0.3,0,0.5,0.1,0.6c0.1,0.2,0.2,0.3,0.3,0.4c0.1,0.1,0.3,0.2,0.5,0.3c0.2,0.1,0.4,0.1,0.6,0.1c0.3,0,0.6,0,0.8-0.1
		c0.2-0.1,0.5-0.1,0.7-0.3c0.2-0.1,0.4-0.2,0.6-0.4c0.2-0.2,0.4-0.3,0.6-0.5V444.7z"/>
	<path fill="#282561" d="M881.3,440.8c0.2-0.2,0.4-0.4,0.7-0.6c0.2-0.2,0.5-0.4,0.7-0.5c0.3-0.1,0.5-0.2,0.8-0.3
		c0.3-0.1,0.6-0.1,0.9-0.1c0.5,0,1,0.1,1.4,0.3c0.4,0.2,0.7,0.4,1,0.7c0.3,0.3,0.5,0.7,0.6,1.1c0.1,0.4,0.2,0.9,0.2,1.5v6.1H886
		v-6.1c0-0.7-0.2-1.3-0.5-1.7c-0.3-0.4-0.8-0.6-1.5-0.6c-0.5,0-1,0.1-1.4,0.4c-0.4,0.2-0.8,0.6-1.2,1v7h-1.7v-9.5h1
		c0.2,0,0.4,0.1,0.4,0.3L881.3,440.8z"/>
	<path fill="#282561" d="M893,449.1c-0.8,0-1.3-0.2-1.7-0.6c-0.4-0.4-0.6-1-0.6-1.8v-5.8h-1.1c-0.1,0-0.2,0-0.3-0.1
		c-0.1-0.1-0.1-0.2-0.1-0.3v-0.7l1.6-0.2l0.4-2.9c0-0.1,0.1-0.2,0.1-0.2c0.1-0.1,0.2-0.1,0.3-0.1h0.8v3.3h2.8v1.2h-2.8v5.7
		c0,0.4,0.1,0.7,0.3,0.9c0.2,0.2,0.4,0.3,0.8,0.3c0.2,0,0.3,0,0.5-0.1c0.1,0,0.2-0.1,0.3-0.2c0.1-0.1,0.2-0.1,0.2-0.2
		c0.1,0,0.1-0.1,0.2-0.1c0.1,0,0.2,0.1,0.2,0.2l0.5,0.8c-0.3,0.3-0.6,0.5-1,0.6C893.9,449.1,893.5,449.1,893,449.1z"/>
	<path fill="#282561" d="M904.6,449.1c-0.8,0-1.3-0.2-1.7-0.6c-0.4-0.4-0.6-1-0.6-1.8v-5.8h-1.1c-0.1,0-0.2,0-0.3-0.1
		c-0.1-0.1-0.1-0.2-0.1-0.3v-0.7l1.6-0.2l0.4-2.9c0-0.1,0.1-0.2,0.1-0.2c0.1-0.1,0.2-0.1,0.3-0.1h0.8v3.3h2.8v1.2h-2.8v5.7
		c0,0.4,0.1,0.7,0.3,0.9c0.2,0.2,0.4,0.3,0.8,0.3c0.2,0,0.3,0,0.5-0.1c0.1,0,0.2-0.1,0.3-0.2c0.1-0.1,0.2-0.1,0.2-0.2
		c0.1,0,0.1-0.1,0.2-0.1c0.1,0,0.2,0.1,0.2,0.2l0.5,0.8c-0.3,0.3-0.6,0.5-1,0.6C905.5,449.1,905,449.1,904.6,449.1z"/>
	<path fill="#282561" d="M910.1,440.7c0.4-0.4,0.9-0.8,1.4-1c0.5-0.3,1.1-0.4,1.7-0.4c0.5,0,1,0.1,1.4,0.3c0.4,0.2,0.7,0.4,1,0.7
		c0.3,0.3,0.5,0.7,0.6,1.1c0.1,0.4,0.2,0.9,0.2,1.5v6.1h-1.7v-6.1c0-0.7-0.2-1.3-0.5-1.7c-0.3-0.4-0.8-0.6-1.5-0.6
		c-0.5,0-1,0.1-1.4,0.4c-0.4,0.2-0.8,0.6-1.2,1v7h-1.7v-13.9h1.7V440.7z"/>
	<path fill="#282561" d="M926.7,447.6c-0.2,0.3-0.5,0.5-0.7,0.7c-0.3,0.2-0.6,0.3-0.9,0.5c-0.3,0.1-0.7,0.2-1,0.3
		c-0.4,0.1-0.7,0.1-1,0.1c-0.7,0-1.3-0.1-1.8-0.3c-0.6-0.2-1-0.5-1.4-1c-0.4-0.4-0.7-1-0.9-1.6c-0.2-0.6-0.3-1.4-0.3-2.2
		c0-0.7,0.1-1.3,0.3-1.9c0.2-0.6,0.5-1.1,0.9-1.5c0.4-0.4,0.9-0.8,1.4-1c0.6-0.2,1.2-0.4,1.9-0.4c0.6,0,1.1,0.1,1.6,0.3
		c0.5,0.2,0.9,0.5,1.3,0.8c0.4,0.4,0.6,0.8,0.8,1.3c0.2,0.5,0.3,1.1,0.3,1.8c0,0.3,0,0.4-0.1,0.5c-0.1,0.1-0.2,0.1-0.3,0.1H920
		c0,0.6,0.1,1.1,0.3,1.6c0.1,0.4,0.4,0.8,0.6,1.1c0.3,0.3,0.6,0.5,0.9,0.7c0.4,0.1,0.8,0.2,1.2,0.2c0.4,0,0.8,0,1.1-0.1
		c0.3-0.1,0.6-0.2,0.8-0.3c0.2-0.1,0.4-0.2,0.6-0.3c0.1-0.1,0.3-0.1,0.4-0.1c0.1,0,0.2,0.1,0.3,0.2L926.7,447.6z M925.3,443.2
		c0-0.4-0.1-0.7-0.2-1.1c-0.1-0.3-0.3-0.6-0.5-0.8c-0.2-0.2-0.5-0.4-0.8-0.5c-0.3-0.1-0.6-0.2-1-0.2c-0.8,0-1.4,0.2-1.9,0.7
		c-0.5,0.5-0.8,1.1-0.9,1.9H925.3z"/>
	<path fill="#282561" d="M940.4,441.1c-0.1,0.1-0.1,0.1-0.2,0.2c-0.1,0-0.1,0.1-0.2,0.1c-0.1,0-0.2,0-0.3-0.1
		c-0.1-0.1-0.3-0.2-0.4-0.3c-0.2-0.1-0.4-0.2-0.6-0.3c-0.2-0.1-0.5-0.1-0.9-0.1c-0.5,0-0.9,0.1-1.2,0.2c-0.4,0.2-0.7,0.4-0.9,0.7
		c-0.2,0.3-0.4,0.7-0.5,1.1s-0.2,0.9-0.2,1.5c0,0.6,0.1,1.1,0.2,1.5c0.1,0.4,0.3,0.8,0.6,1.1c0.2,0.3,0.5,0.5,0.9,0.7
		c0.3,0.2,0.7,0.2,1.2,0.2c0.4,0,0.7,0,1-0.1c0.3-0.1,0.5-0.2,0.7-0.3c0.2-0.1,0.3-0.2,0.4-0.3s0.2-0.1,0.3-0.1
		c0.1,0,0.2,0.1,0.3,0.2l0.5,0.6c-0.2,0.3-0.4,0.5-0.7,0.7c-0.3,0.2-0.5,0.3-0.9,0.5c-0.3,0.1-0.6,0.2-1,0.3c-0.3,0.1-0.7,0.1-1,0.1
		c-0.6,0-1.2-0.1-1.7-0.3c-0.5-0.2-1-0.5-1.3-1c-0.4-0.4-0.7-0.9-0.9-1.5c-0.2-0.6-0.3-1.3-0.3-2.1c0-0.7,0.1-1.4,0.3-2
		c0.2-0.6,0.5-1.1,0.9-1.6c0.4-0.4,0.8-0.8,1.4-1c0.6-0.2,1.2-0.4,1.9-0.4c0.7,0,1.3,0.1,1.8,0.3c0.5,0.2,1,0.5,1.4,0.9L940.4,441.1
		z"/>
	<path fill="#282561" d="M946.6,439.3c0.7,0,1.3,0.1,1.9,0.3c0.6,0.2,1,0.6,1.4,1c0.4,0.4,0.7,0.9,0.9,1.5c0.2,0.6,0.3,1.3,0.3,2
		c0,0.8-0.1,1.4-0.3,2s-0.5,1.1-0.9,1.5c-0.4,0.4-0.9,0.8-1.4,1c-0.6,0.2-1.2,0.3-1.9,0.3c-0.7,0-1.3-0.1-1.9-0.3
		c-0.6-0.2-1-0.6-1.4-1c-0.4-0.4-0.7-0.9-0.9-1.5s-0.3-1.3-0.3-2c0-0.7,0.1-1.4,0.3-2c0.2-0.6,0.5-1.1,0.9-1.5
		c0.4-0.4,0.9-0.8,1.4-1C945.2,439.4,945.9,439.3,946.6,439.3z M946.6,447.8c0.9,0,1.6-0.3,2.1-0.9s0.7-1.5,0.7-2.6
		c0-1.1-0.2-2-0.7-2.7c-0.5-0.6-1.2-1-2.1-1c-0.5,0-0.9,0.1-1.2,0.2c-0.4,0.2-0.6,0.4-0.9,0.7c-0.2,0.3-0.4,0.7-0.5,1.1
		c-0.1,0.4-0.2,1-0.2,1.5c0,1.1,0.2,2,0.7,2.6C944.9,447.5,945.6,447.8,946.6,447.8z"/>
	<path fill="#282561" d="M954.8,441.3c0.3-0.7,0.7-1.2,1.1-1.5c0.4-0.4,1-0.6,1.6-0.6c0.2,0,0.4,0,0.6,0.1c0.2,0,0.3,0.1,0.5,0.2
		l-0.1,1.3c0,0.2-0.1,0.2-0.3,0.2c-0.1,0-0.2,0-0.4-0.1c-0.2,0-0.4-0.1-0.6-0.1c-0.3,0-0.6,0-0.8,0.1c-0.2,0.1-0.4,0.2-0.6,0.4
		c-0.2,0.2-0.4,0.4-0.5,0.6c-0.1,0.3-0.3,0.5-0.4,0.9v6h-1.7v-9.5h1c0.2,0,0.3,0,0.4,0.1c0.1,0.1,0.1,0.2,0.1,0.4L954.8,441.3z"/>
	<path fill="#282561" d="M961.7,440.9c0.4-0.5,0.9-0.9,1.4-1.2c0.5-0.3,1.1-0.5,1.8-0.5c0.6,0,1.1,0.1,1.5,0.3
		c0.4,0.2,0.8,0.5,1.1,0.9c0.3,0.4,0.6,0.9,0.7,1.5c0.2,0.6,0.3,1.3,0.3,2.1c0,0.7-0.1,1.4-0.3,2s-0.5,1.1-0.8,1.6
		c-0.4,0.4-0.8,0.8-1.3,1c-0.5,0.3-1.1,0.4-1.7,0.4c-0.6,0-1.1-0.1-1.5-0.3c-0.4-0.2-0.8-0.5-1.1-0.8v4.2h-1.7v-12.8h1
		c0.2,0,0.4,0.1,0.4,0.3L961.7,440.9z M961.8,446.7c0.3,0.4,0.6,0.7,1,0.9c0.4,0.2,0.8,0.3,1.2,0.3c0.9,0,1.6-0.3,2.1-1
		c0.5-0.6,0.7-1.5,0.7-2.7c0-0.6-0.1-1.2-0.2-1.6c-0.1-0.4-0.3-0.8-0.5-1.1c-0.2-0.3-0.5-0.5-0.8-0.6c-0.3-0.1-0.6-0.2-1-0.2
		c-0.5,0-1,0.1-1.4,0.4c-0.4,0.3-0.8,0.6-1.1,1.1V446.7z"/>
	<path fill="#282561" d="M974.7,439.3c0.7,0,1.3,0.1,1.9,0.3s1,0.6,1.4,1c0.4,0.4,0.7,0.9,0.9,1.5c0.2,0.6,0.3,1.3,0.3,2
		c0,0.8-0.1,1.4-0.3,2s-0.5,1.1-0.9,1.5c-0.4,0.4-0.9,0.8-1.4,1c-0.6,0.2-1.2,0.3-1.9,0.3c-0.7,0-1.3-0.1-1.9-0.3
		c-0.6-0.2-1-0.6-1.4-1c-0.4-0.4-0.7-0.9-0.9-1.5c-0.2-0.6-0.3-1.3-0.3-2c0-0.7,0.1-1.4,0.3-2c0.2-0.6,0.5-1.1,0.9-1.5
		c0.4-0.4,0.9-0.8,1.4-1C973.3,439.4,974,439.3,974.7,439.3z M974.7,447.8c0.9,0,1.6-0.3,2.1-0.9s0.7-1.5,0.7-2.6
		c0-1.1-0.2-2-0.7-2.7c-0.5-0.6-1.2-1-2.1-1c-0.5,0-0.9,0.1-1.2,0.2s-0.6,0.4-0.9,0.7c-0.2,0.3-0.4,0.7-0.5,1.1
		c-0.1,0.4-0.2,1-0.2,1.5c0,1.1,0.2,2,0.7,2.6S973.7,447.8,974.7,447.8z"/>
	<path fill="#282561" d="M982.9,441.3c0.3-0.7,0.7-1.2,1.1-1.5c0.4-0.4,1-0.6,1.6-0.6c0.2,0,0.4,0,0.6,0.1c0.2,0,0.3,0.1,0.5,0.2
		l-0.1,1.3c0,0.2-0.1,0.2-0.3,0.2c-0.1,0-0.2,0-0.4-0.1c-0.2,0-0.4-0.1-0.6-0.1c-0.3,0-0.6,0-0.8,0.1c-0.2,0.1-0.4,0.2-0.6,0.4
		c-0.2,0.2-0.4,0.4-0.5,0.6c-0.1,0.3-0.3,0.5-0.4,0.9v6h-1.7v-9.5h1c0.2,0,0.3,0,0.4,0.1c0.1,0.1,0.1,0.2,0.1,0.4L982.9,441.3z"/>
	<path fill="#282561" d="M987.8,440.8c0.5-0.5,1.1-0.9,1.7-1.1c0.6-0.3,1.3-0.4,2-0.4c0.5,0,1,0.1,1.4,0.3c0.4,0.2,0.8,0.4,1,0.7
		c0.3,0.3,0.5,0.7,0.6,1.1c0.1,0.4,0.2,0.9,0.2,1.5v6.1h-0.7c-0.2,0-0.3,0-0.4-0.1c-0.1-0.1-0.2-0.2-0.2-0.3l-0.2-0.9
		c-0.3,0.2-0.5,0.4-0.7,0.6c-0.2,0.2-0.5,0.3-0.8,0.5c-0.3,0.1-0.5,0.2-0.8,0.3c-0.3,0.1-0.6,0.1-1,0.1c-0.4,0-0.7-0.1-1-0.2
		c-0.3-0.1-0.6-0.3-0.9-0.5c-0.2-0.2-0.4-0.5-0.6-0.8c-0.1-0.3-0.2-0.7-0.2-1.1c0-0.4,0.1-0.7,0.3-1.1c0.2-0.3,0.5-0.7,1-0.9
		c0.5-0.3,1.1-0.5,1.8-0.7c0.7-0.2,1.7-0.3,2.8-0.3v-0.7c0-0.7-0.2-1.3-0.5-1.7c-0.3-0.4-0.8-0.6-1.4-0.6c-0.4,0-0.8,0.1-1,0.2
		c-0.3,0.1-0.5,0.2-0.7,0.3c-0.2,0.1-0.4,0.2-0.5,0.3c-0.1,0.1-0.3,0.2-0.4,0.2c-0.1,0-0.2,0-0.3-0.1c-0.1-0.1-0.2-0.1-0.2-0.2
		L987.8,440.8z M993.2,444.7c-0.8,0-1.4,0.1-2,0.2c-0.5,0.1-1,0.2-1.3,0.4c-0.3,0.2-0.6,0.3-0.7,0.6c-0.2,0.2-0.2,0.5-0.2,0.7
		c0,0.3,0,0.5,0.1,0.6c0.1,0.2,0.2,0.3,0.3,0.4c0.1,0.1,0.3,0.2,0.5,0.3c0.2,0.1,0.4,0.1,0.6,0.1c0.3,0,0.6,0,0.8-0.1
		c0.2-0.1,0.5-0.1,0.7-0.3s0.4-0.2,0.6-0.4c0.2-0.2,0.4-0.3,0.6-0.5V444.7z"/>
	<path fill="#282561" d="M1000.2,449.1c-0.8,0-1.3-0.2-1.7-0.6c-0.4-0.4-0.6-1-0.6-1.8v-5.8h-1.1c-0.1,0-0.2,0-0.3-0.1
		c-0.1-0.1-0.1-0.2-0.1-0.3v-0.7l1.6-0.2l0.4-2.9c0-0.1,0.1-0.2,0.1-0.2c0.1-0.1,0.2-0.1,0.3-0.1h0.8v3.3h2.8v1.2h-2.8v5.7
		c0,0.4,0.1,0.7,0.3,0.9c0.2,0.2,0.4,0.3,0.8,0.3c0.2,0,0.3,0,0.5-0.1c0.1,0,0.2-0.1,0.3-0.2c0.1-0.1,0.2-0.1,0.2-0.2
		c0.1,0,0.1-0.1,0.2-0.1c0.1,0,0.2,0.1,0.2,0.2l0.5,0.8c-0.3,0.3-0.6,0.5-1,0.6C1001.1,449.1,1000.6,449.1,1000.2,449.1z"/>
	<path fill="#282561" d="M1011.7,447.6c-0.2,0.3-0.5,0.5-0.7,0.7c-0.3,0.2-0.6,0.3-0.9,0.5c-0.3,0.1-0.7,0.2-1,0.3
		c-0.4,0.1-0.7,0.1-1,0.1c-0.7,0-1.3-0.1-1.8-0.3c-0.6-0.2-1-0.5-1.4-1c-0.4-0.4-0.7-1-0.9-1.6c-0.2-0.6-0.3-1.4-0.3-2.2
		c0-0.7,0.1-1.3,0.3-1.9c0.2-0.6,0.5-1.1,0.9-1.5c0.4-0.4,0.9-0.8,1.4-1c0.6-0.2,1.2-0.4,1.9-0.4c0.6,0,1.1,0.1,1.6,0.3
		c0.5,0.2,0.9,0.5,1.3,0.8c0.4,0.4,0.6,0.8,0.8,1.3c0.2,0.5,0.3,1.1,0.3,1.8c0,0.3,0,0.4-0.1,0.5c-0.1,0.1-0.2,0.1-0.3,0.1h-6.4
		c0,0.6,0.1,1.1,0.3,1.6c0.1,0.4,0.4,0.8,0.6,1.1c0.3,0.3,0.6,0.5,0.9,0.7c0.4,0.1,0.8,0.2,1.2,0.2c0.4,0,0.8,0,1.1-0.1
		c0.3-0.1,0.6-0.2,0.8-0.3c0.2-0.1,0.4-0.2,0.6-0.3c0.1-0.1,0.3-0.1,0.4-0.1c0.1,0,0.2,0.1,0.3,0.2L1011.7,447.6z M1010.4,443.2
		c0-0.4-0.1-0.7-0.2-1.1c-0.1-0.3-0.3-0.6-0.5-0.8c-0.2-0.2-0.5-0.4-0.8-0.5c-0.3-0.1-0.6-0.2-1-0.2c-0.8,0-1.4,0.2-1.9,0.7
		c-0.5,0.5-0.8,1.1-0.9,1.9H1010.4z"/>
	<path fill="#282561" d="M817.2,462l-3.1,9.5h-1.3c-0.2,0-0.3-0.1-0.3-0.3l-2.1-6.5c-0.1-0.1-0.1-0.3-0.1-0.4c0-0.1-0.1-0.3-0.1-0.4
		c0,0.1-0.1,0.3-0.1,0.4c0,0.1-0.1,0.3-0.1,0.4l-2.1,6.5c-0.1,0.2-0.2,0.3-0.4,0.3h-1.3L803,462h1.3c0.1,0,0.2,0,0.3,0.1
		c0.1,0.1,0.2,0.2,0.2,0.2l1.8,6.1c0.1,0.5,0.2,0.9,0.3,1.3c0.1-0.2,0.1-0.4,0.2-0.6c0.1-0.2,0.1-0.4,0.2-0.6l2-6.2
		c0-0.1,0.1-0.2,0.2-0.2c0.1-0.1,0.2-0.1,0.3-0.1h0.7c0.1,0,0.2,0,0.3,0.1c0.1,0.1,0.1,0.1,0.2,0.2l2,6.2c0.1,0.2,0.1,0.4,0.2,0.6
		c0.1,0.2,0.1,0.4,0.2,0.6c0-0.2,0.1-0.4,0.1-0.6c0-0.2,0.1-0.4,0.2-0.7l1.9-6.1c0-0.1,0.1-0.2,0.2-0.2c0.1-0.1,0.2-0.1,0.3-0.1
		H817.2z"/>
	<path fill="#282561" d="M822.7,461.9c0.7,0,1.3,0.1,1.9,0.3s1,0.6,1.4,1c0.4,0.4,0.7,0.9,0.9,1.5s0.3,1.3,0.3,2
		c0,0.8-0.1,1.4-0.3,2s-0.5,1.1-0.9,1.5c-0.4,0.4-0.9,0.8-1.4,1c-0.6,0.2-1.2,0.3-1.9,0.3c-0.7,0-1.3-0.1-1.9-0.3
		c-0.6-0.2-1-0.6-1.4-1c-0.4-0.4-0.7-0.9-0.9-1.5s-0.3-1.3-0.3-2c0-0.7,0.1-1.4,0.3-2s0.5-1.1,0.9-1.5c0.4-0.4,0.9-0.8,1.4-1
		C821.4,462,822,461.9,822.7,461.9z M822.7,470.4c0.9,0,1.6-0.3,2.1-0.9s0.7-1.5,0.7-2.6c0-1.1-0.2-2-0.7-2.7c-0.5-0.6-1.2-1-2.1-1
		c-0.5,0-0.9,0.1-1.2,0.2c-0.4,0.2-0.6,0.4-0.9,0.7c-0.2,0.3-0.4,0.7-0.5,1.1c-0.1,0.4-0.2,1-0.2,1.5c0,1.1,0.2,2,0.7,2.6
		C821.1,470.1,821.8,470.4,822.7,470.4z"/>
	<path fill="#282561" d="M831,464c0.3-0.7,0.7-1.2,1.1-1.5c0.4-0.4,1-0.6,1.6-0.6c0.2,0,0.4,0,0.6,0.1c0.2,0,0.3,0.1,0.5,0.2
		l-0.1,1.3c0,0.2-0.1,0.2-0.3,0.2c-0.1,0-0.2,0-0.4-0.1c-0.2,0-0.4-0.1-0.6-0.1c-0.3,0-0.6,0-0.8,0.1c-0.2,0.1-0.4,0.2-0.6,0.4
		c-0.2,0.2-0.4,0.4-0.5,0.6c-0.1,0.3-0.3,0.5-0.4,0.9v6h-1.7V462h1c0.2,0,0.3,0,0.4,0.1c0.1,0.1,0.1,0.2,0.1,0.4L831,464z"/>
	<path fill="#282561" d="M838,457.7v13.9h-1.7v-13.9H838z"/>
	<path fill="#282561" d="M848.6,457.7v13.9h-1c-0.2,0-0.4-0.1-0.5-0.3l-0.2-1.2c-0.4,0.5-0.9,0.9-1.4,1.2c-0.5,0.3-1.1,0.5-1.8,0.5
		c-0.5,0-1-0.1-1.5-0.3c-0.4-0.2-0.8-0.5-1.1-0.9c-0.3-0.4-0.6-0.9-0.7-1.5c-0.2-0.6-0.3-1.3-0.3-2.1c0-0.7,0.1-1.4,0.3-2
		c0.2-0.6,0.5-1.1,0.8-1.6c0.4-0.4,0.8-0.8,1.3-1c0.5-0.3,1.1-0.4,1.7-0.4c0.6,0,1.1,0.1,1.5,0.3c0.4,0.2,0.8,0.5,1.1,0.8v-5.3
		H848.6z M846.9,464.3c-0.3-0.4-0.7-0.7-1-0.9c-0.4-0.2-0.8-0.2-1.2-0.2c-0.9,0-1.6,0.3-2,1c-0.5,0.6-0.7,1.5-0.7,2.7
		c0,0.6,0.1,1.2,0.2,1.6s0.3,0.8,0.5,1.1c0.2,0.3,0.5,0.5,0.8,0.6c0.3,0.1,0.6,0.2,1,0.2c0.6,0,1-0.1,1.4-0.4
		c0.4-0.3,0.8-0.6,1.1-1.1V464.3z"/>
</g>
<circle fill="#29ABE2" cx="879.7" cy="372.2" r="8.2"/>
<g>
	<path fill="#292562" d="M907.8,372v5.6c-0.7,0.5-1.5,0.9-2.3,1.2c-0.8,0.3-1.7,0.4-2.7,0.4c-1.2,0-2.2-0.2-3.2-0.5
		c-0.9-0.4-1.8-0.9-2.4-1.5c-0.7-0.7-1.2-1.4-1.5-2.4c-0.4-0.9-0.5-1.9-0.5-3c0-1.1,0.2-2.1,0.5-3c0.3-0.9,0.8-1.7,1.5-2.4
		c0.6-0.7,1.4-1.2,2.4-1.5c0.9-0.4,2-0.5,3.1-0.5c0.6,0,1.1,0,1.6,0.1c0.5,0.1,1,0.2,1.4,0.4c0.4,0.2,0.8,0.4,1.2,0.6
		c0.4,0.2,0.7,0.5,1,0.8l-0.6,0.9c-0.1,0.1-0.2,0.2-0.3,0.3c-0.1,0-0.3,0-0.5-0.1c-0.2-0.1-0.4-0.2-0.6-0.3
		c-0.2-0.1-0.5-0.3-0.8-0.4c-0.3-0.1-0.7-0.2-1.1-0.3s-0.9-0.1-1.5-0.1c-0.8,0-1.6,0.1-2.2,0.4c-0.7,0.3-1.2,0.7-1.7,1.2
		c-0.5,0.5-0.8,1.1-1.1,1.8c-0.3,0.7-0.4,1.5-0.4,2.4c0,0.9,0.1,1.7,0.4,2.5c0.3,0.7,0.6,1.3,1.1,1.8c0.5,0.5,1.1,0.9,1.8,1.2
		c0.7,0.3,1.5,0.4,2.3,0.4c0.7,0,1.3-0.1,1.8-0.2c0.5-0.2,1-0.4,1.5-0.6v-3.2h-2.3c-0.1,0-0.2,0-0.3-0.1c-0.1-0.1-0.1-0.2-0.1-0.3
		V372H907.8z"/>
	<path fill="#292562" d="M912.2,364v15h-1.8v-15H912.2z"/>
	<path fill="#292562" d="M919.4,368.5c0.8,0,1.4,0.1,2,0.4c0.6,0.3,1.1,0.6,1.5,1.1c0.4,0.5,0.8,1,1,1.7c0.2,0.7,0.3,1.4,0.3,2.2
		c0,0.8-0.1,1.5-0.3,2.2s-0.6,1.2-1,1.7c-0.4,0.5-0.9,0.8-1.5,1.1c-0.6,0.2-1.3,0.4-2,0.4c-0.8,0-1.4-0.1-2.1-0.4
		c-0.6-0.2-1.1-0.6-1.6-1.1c-0.4-0.5-0.8-1-1-1.7c-0.2-0.7-0.3-1.4-0.3-2.2c0-0.8,0.1-1.5,0.3-2.2c0.2-0.7,0.6-1.2,1-1.7
		c0.4-0.5,0.9-0.8,1.6-1.1C918,368.6,918.7,368.5,919.4,368.5z M919.4,377.7c1,0,1.8-0.3,2.3-1s0.8-1.6,0.8-2.9
		c0-1.2-0.3-2.2-0.8-2.9c-0.5-0.7-1.3-1-2.3-1c-0.5,0-1,0.1-1.4,0.3c-0.4,0.2-0.7,0.4-1,0.8c-0.3,0.3-0.4,0.7-0.6,1.2
		c-0.1,0.5-0.2,1-0.2,1.6c0,1.2,0.3,2.2,0.8,2.9C917.6,377.4,918.4,377.7,919.4,377.7z"/>
	<path fill="#292562" d="M928.5,370.1c0.4-0.5,0.9-0.9,1.5-1.2c0.5-0.3,1.2-0.4,1.9-0.4c0.6,0,1.1,0.1,1.6,0.3s0.9,0.6,1.2,1
		c0.3,0.4,0.6,1,0.8,1.6c0.2,0.6,0.3,1.3,0.3,2.1c0,0.8-0.1,1.6-0.3,2.3c-0.2,0.7-0.5,1.3-0.9,1.8c-0.4,0.5-0.9,0.9-1.4,1.1
		s-1.2,0.4-1.9,0.4c-0.7,0-1.3-0.1-1.7-0.4c-0.5-0.3-0.9-0.6-1.2-1.1l-0.1,0.9c-0.1,0.3-0.2,0.4-0.5,0.4h-1.2v-15h1.8V370.1z
		 M928.5,376.5c0.3,0.4,0.7,0.8,1.1,0.9c0.4,0.2,0.8,0.3,1.3,0.3c1,0,1.7-0.3,2.2-1c0.5-0.7,0.8-1.7,0.8-3.1c0-1.3-0.2-2.2-0.7-2.8
		c-0.5-0.6-1.1-0.9-2-0.9c-0.6,0-1.1,0.1-1.5,0.4c-0.4,0.3-0.8,0.7-1.2,1.2V376.5z"/>
	<path fill="#292562" d="M937.8,370.1c0.6-0.5,1.2-1,1.8-1.2c0.7-0.3,1.4-0.4,2.2-0.4c0.6,0,1.1,0.1,1.5,0.3
		c0.4,0.2,0.8,0.5,1.1,0.8c0.3,0.3,0.5,0.8,0.7,1.2c0.2,0.5,0.2,1,0.2,1.6v6.6h-0.8c-0.2,0-0.3,0-0.4-0.1c-0.1-0.1-0.2-0.2-0.2-0.3
		l-0.2-1c-0.3,0.3-0.5,0.5-0.8,0.7s-0.5,0.4-0.8,0.5c-0.3,0.1-0.6,0.2-0.9,0.3c-0.3,0.1-0.7,0.1-1.1,0.1c-0.4,0-0.8-0.1-1.1-0.2
		c-0.4-0.1-0.7-0.3-0.9-0.5c-0.3-0.2-0.5-0.5-0.6-0.9c-0.2-0.3-0.2-0.7-0.2-1.2c0-0.4,0.1-0.8,0.3-1.2c0.2-0.4,0.6-0.7,1.1-1
		c0.5-0.3,1.2-0.5,2-0.7c0.8-0.2,1.8-0.3,3-0.3v-0.8c0-0.8-0.2-1.4-0.5-1.8c-0.3-0.4-0.9-0.6-1.5-0.6c-0.4,0-0.8,0.1-1.1,0.2
		c-0.3,0.1-0.6,0.2-0.8,0.4c-0.2,0.1-0.4,0.3-0.6,0.4c-0.2,0.1-0.3,0.2-0.5,0.2c-0.1,0-0.2,0-0.3-0.1c-0.1-0.1-0.2-0.1-0.2-0.2
		L937.8,370.1z M943.7,374.3c-0.8,0-1.5,0.1-2.1,0.2c-0.6,0.1-1.1,0.2-1.4,0.4c-0.4,0.2-0.6,0.4-0.8,0.6c-0.2,0.2-0.2,0.5-0.2,0.8
		c0,0.3,0,0.5,0.1,0.7c0.1,0.2,0.2,0.4,0.4,0.5c0.2,0.1,0.3,0.2,0.5,0.3c0.2,0.1,0.4,0.1,0.7,0.1c0.3,0,0.6,0,0.9-0.1
		c0.3-0.1,0.5-0.2,0.7-0.3s0.5-0.3,0.7-0.4c0.2-0.2,0.4-0.4,0.6-0.6V374.3z"/>
	<path fill="#292562" d="M950.1,364v15h-1.8v-15H950.1z"/>
	<path fill="#292562" d="M967.7,377.4l0,1.6h-9v-14.6h9v1.6h-7v4.9h5.7v1.5h-5.7v5H967.7z"/>
	<path fill="#292562" d="M978.5,379h-1.7c-0.1,0-0.3,0-0.4-0.1c-0.1-0.1-0.2-0.2-0.2-0.3l-2.6-4c0,0.1-0.1,0.2-0.1,0.3
		c0,0.1-0.1,0.2-0.1,0.3l-2.4,3.5c-0.1,0.1-0.1,0.2-0.2,0.3c-0.1,0.1-0.2,0.1-0.3,0.1h-1.6l3.6-5.3l-3.5-5h1.7c0.1,0,0.3,0,0.3,0.1
		c0.1,0,0.1,0.1,0.2,0.2l2.5,3.9c0.1-0.2,0.1-0.4,0.3-0.6l2.2-3.3c0.1-0.1,0.1-0.2,0.2-0.2c0.1-0.1,0.2-0.1,0.3-0.1h1.7l-3.5,4.9
		L978.5,379z"/>
	<path fill="#292562" d="M981.9,370.3c0.4-0.5,0.9-1,1.5-1.3c0.6-0.3,1.2-0.5,2-0.5c0.6,0,1.1,0.1,1.6,0.3c0.5,0.2,0.9,0.6,1.2,1
		c0.3,0.4,0.6,1,0.8,1.7c0.2,0.7,0.3,1.4,0.3,2.3c0,0.8-0.1,1.5-0.3,2.1s-0.5,1.2-0.9,1.7c-0.4,0.5-0.9,0.9-1.4,1.1
		c-0.6,0.3-1.2,0.4-1.9,0.4c-0.6,0-1.2-0.1-1.6-0.3c-0.5-0.2-0.9-0.5-1.2-0.9v4.6h-1.8v-13.8h1.1c0.3,0,0.4,0.1,0.5,0.4L981.9,370.3
		z M982,376.5c0.3,0.4,0.7,0.8,1.1,0.9c0.4,0.2,0.8,0.3,1.3,0.3c1,0,1.7-0.3,2.2-1c0.5-0.7,0.8-1.7,0.8-2.9c0-0.7-0.1-1.3-0.2-1.7
		c-0.1-0.5-0.3-0.9-0.5-1.2c-0.2-0.3-0.5-0.5-0.8-0.7c-0.3-0.1-0.7-0.2-1.1-0.2c-0.6,0-1.1,0.1-1.6,0.4c-0.4,0.3-0.9,0.7-1.2,1.2
		V376.5z"/>
</g>
<circle fill="#29ABE2" cx="991.1" cy="301.3" r="8.2"/>
<g>
	<path fill="#28245F" d="M1018.8,307.1c0.1,0,0.2,0,0.3,0.1l0.8,0.8c-0.6,0.7-1.3,1.2-2.2,1.6c-0.8,0.4-1.9,0.6-3.1,0.6
		c-1,0-2-0.2-2.8-0.5s-1.6-0.9-2.2-1.5c-0.6-0.6-1.1-1.4-1.4-2.3c-0.3-0.9-0.5-1.9-0.5-3c0-1.1,0.2-2.1,0.5-3
		c0.3-0.9,0.8-1.7,1.4-2.3s1.4-1.2,2.2-1.5c0.9-0.4,1.8-0.5,2.9-0.5c1,0,1.9,0.2,2.7,0.5c0.8,0.3,1.5,0.8,2.1,1.3l-0.6,0.9
		c0,0.1-0.1,0.1-0.2,0.2c-0.1,0-0.1,0.1-0.3,0.1c-0.1,0-0.3-0.1-0.4-0.2c-0.2-0.1-0.4-0.3-0.7-0.4c-0.3-0.2-0.6-0.3-1.1-0.4
		c-0.4-0.1-0.9-0.2-1.6-0.2c-0.7,0-1.4,0.1-2,0.4c-0.6,0.3-1.2,0.6-1.6,1.1c-0.4,0.5-0.8,1.1-1,1.8c-0.2,0.7-0.4,1.5-0.4,2.4
		c0,0.9,0.1,1.7,0.4,2.4c0.3,0.7,0.6,1.3,1.1,1.8c0.4,0.5,1,0.9,1.6,1.1c0.6,0.3,1.3,0.4,2,0.4c0.4,0,0.8,0,1.2-0.1
		c0.3-0.1,0.7-0.1,1-0.2c0.3-0.1,0.6-0.2,0.8-0.4c0.3-0.2,0.5-0.4,0.8-0.6C1018.5,307.1,1018.7,307.1,1018.8,307.1z"/>
	<path fill="#28245F" d="M1021.4,301.3c0.6-0.5,1.2-1,1.8-1.2c0.7-0.3,1.4-0.4,2.2-0.4c0.6,0,1.1,0.1,1.5,0.3
		c0.4,0.2,0.8,0.5,1.1,0.8c0.3,0.3,0.5,0.7,0.7,1.2c0.2,0.5,0.2,1,0.2,1.6v6.5h-0.8c-0.2,0-0.3,0-0.4-0.1c-0.1-0.1-0.2-0.2-0.2-0.3
		l-0.2-1c-0.3,0.2-0.5,0.5-0.8,0.7c-0.3,0.2-0.5,0.4-0.8,0.5c-0.3,0.1-0.6,0.2-0.9,0.3c-0.3,0.1-0.7,0.1-1.1,0.1
		c-0.4,0-0.8-0.1-1.1-0.2c-0.3-0.1-0.7-0.3-0.9-0.5c-0.3-0.2-0.5-0.5-0.6-0.8c-0.2-0.3-0.2-0.7-0.2-1.2c0-0.4,0.1-0.8,0.3-1.2
		c0.2-0.4,0.6-0.7,1.1-1c0.5-0.3,1.1-0.5,1.9-0.7c0.8-0.2,1.8-0.3,2.9-0.3v-0.8c0-0.8-0.2-1.4-0.5-1.8c-0.3-0.4-0.8-0.6-1.5-0.6
		c-0.4,0-0.8,0.1-1.1,0.2c-0.3,0.1-0.6,0.2-0.8,0.4c-0.2,0.1-0.4,0.3-0.6,0.4c-0.2,0.1-0.3,0.2-0.5,0.2c-0.1,0-0.2,0-0.3-0.1
		c-0.1-0.1-0.2-0.1-0.2-0.2L1021.4,301.3z M1027.2,305.5c-0.8,0-1.5,0.1-2.1,0.2c-0.6,0.1-1.1,0.2-1.4,0.4c-0.4,0.2-0.6,0.4-0.8,0.6
		c-0.2,0.2-0.2,0.5-0.2,0.8c0,0.3,0,0.5,0.1,0.7c0.1,0.2,0.2,0.4,0.4,0.5c0.2,0.1,0.3,0.2,0.5,0.3c0.2,0.1,0.4,0.1,0.7,0.1
		c0.3,0,0.6,0,0.9-0.1c0.3-0.1,0.5-0.2,0.7-0.3s0.5-0.3,0.7-0.4c0.2-0.2,0.4-0.4,0.6-0.6V305.5z"/>
	<path fill="#28245F" d="M1033.4,301.9c0.3-0.7,0.7-1.2,1.2-1.6c0.5-0.4,1-0.6,1.7-0.6c0.2,0,0.4,0,0.6,0.1c0.2,0,0.4,0.1,0.5,0.2
		l-0.1,1.3c0,0.2-0.1,0.3-0.3,0.3c-0.1,0-0.2,0-0.4-0.1c-0.2,0-0.4-0.1-0.6-0.1c-0.3,0-0.6,0-0.9,0.1c-0.3,0.1-0.5,0.2-0.7,0.4
		c-0.2,0.2-0.4,0.4-0.5,0.7c-0.2,0.3-0.3,0.6-0.4,0.9v6.5h-1.8v-10.2h1c0.2,0,0.3,0,0.4,0.1c0.1,0.1,0.1,0.2,0.2,0.4L1033.4,301.9z"
		/>
	<path fill="#28245F" d="M1046.9,308.6c-0.2,0.3-0.5,0.5-0.8,0.7c-0.3,0.2-0.6,0.4-1,0.5c-0.4,0.1-0.7,0.2-1.1,0.3
		c-0.4,0.1-0.8,0.1-1.1,0.1c-0.7,0-1.4-0.1-2-0.4c-0.6-0.2-1.1-0.6-1.5-1c-0.4-0.5-0.8-1-1-1.7c-0.2-0.7-0.4-1.5-0.4-2.3
		c0-0.7,0.1-1.4,0.3-2c0.2-0.6,0.5-1.2,0.9-1.6c0.4-0.5,0.9-0.8,1.5-1.1c0.6-0.3,1.3-0.4,2-0.4c0.6,0,1.2,0.1,1.7,0.3
		c0.5,0.2,1,0.5,1.4,0.9c0.4,0.4,0.7,0.9,0.9,1.4c0.2,0.6,0.3,1.2,0.3,1.9c0,0.3,0,0.5-0.1,0.6c-0.1,0.1-0.2,0.1-0.3,0.1h-6.8
		c0,0.6,0.1,1.2,0.3,1.7c0.2,0.5,0.4,0.9,0.7,1.2c0.3,0.3,0.6,0.6,1,0.7c0.4,0.2,0.8,0.2,1.3,0.2c0.5,0,0.8-0.1,1.2-0.2
		c0.3-0.1,0.6-0.2,0.8-0.3c0.2-0.1,0.4-0.2,0.6-0.3c0.2-0.1,0.3-0.2,0.4-0.2c0.1,0,0.3,0.1,0.3,0.2L1046.9,308.6z M1045.5,303.8
		c0-0.4-0.1-0.8-0.2-1.1s-0.3-0.6-0.5-0.9c-0.2-0.3-0.5-0.4-0.8-0.6c-0.3-0.1-0.7-0.2-1.1-0.2c-0.9,0-1.5,0.3-2,0.8
		c-0.5,0.5-0.8,1.2-0.9,2.1H1045.5z"/>
	<path fill="#28245F" d="M1057.6,308.6c-0.2,0.3-0.5,0.5-0.8,0.7c-0.3,0.2-0.6,0.4-1,0.5c-0.4,0.1-0.7,0.2-1.1,0.3s-0.8,0.1-1.1,0.1
		c-0.7,0-1.4-0.1-2-0.4c-0.6-0.2-1.1-0.6-1.5-1c-0.4-0.5-0.8-1-1-1.7c-0.2-0.7-0.4-1.5-0.4-2.3c0-0.7,0.1-1.4,0.3-2
		c0.2-0.6,0.5-1.2,0.9-1.6c0.4-0.5,0.9-0.8,1.5-1.1c0.6-0.3,1.3-0.4,2-0.4c0.6,0,1.2,0.1,1.7,0.3c0.5,0.2,1,0.5,1.4,0.9
		c0.4,0.4,0.7,0.9,0.9,1.4c0.2,0.6,0.3,1.2,0.3,1.9c0,0.3,0,0.5-0.1,0.6c-0.1,0.1-0.2,0.1-0.3,0.1h-6.8c0,0.6,0.1,1.2,0.3,1.7
		c0.2,0.5,0.4,0.9,0.7,1.2c0.3,0.3,0.6,0.6,1,0.7c0.4,0.2,0.8,0.2,1.3,0.2c0.5,0,0.8-0.1,1.2-0.2c0.3-0.1,0.6-0.2,0.8-0.3
		c0.2-0.1,0.4-0.2,0.6-0.3c0.2-0.1,0.3-0.2,0.4-0.2c0.1,0,0.3,0.1,0.3,0.2L1057.6,308.6z M1056.2,303.8c0-0.4-0.1-0.8-0.2-1.1
		s-0.3-0.6-0.5-0.9c-0.2-0.3-0.5-0.4-0.8-0.6c-0.3-0.1-0.7-0.2-1.1-0.2c-0.9,0-1.5,0.3-2,0.8c-0.5,0.5-0.8,1.2-0.9,2.1H1056.2z"/>
	<path fill="#28245F" d="M1061.7,301.9c0.3-0.7,0.7-1.2,1.2-1.6c0.5-0.4,1-0.6,1.7-0.6c0.2,0,0.4,0,0.6,0.1c0.2,0,0.4,0.1,0.5,0.2
		l-0.1,1.3c0,0.2-0.1,0.3-0.3,0.3c-0.1,0-0.2,0-0.4-0.1c-0.2,0-0.4-0.1-0.6-0.1c-0.3,0-0.6,0-0.9,0.1c-0.3,0.1-0.5,0.2-0.7,0.4
		c-0.2,0.2-0.4,0.4-0.5,0.7c-0.2,0.3-0.3,0.6-0.4,0.9v6.5h-1.8v-10.2h1c0.2,0,0.3,0,0.4,0.1c0.1,0.1,0.1,0.2,0.2,0.4L1061.7,301.9z"
		/>
	<path fill="#28245F" d="M1079.2,301.7c-0.1,0.1-0.1,0.1-0.2,0.2c-0.1,0-0.1,0.1-0.2,0.1c-0.1,0-0.2,0-0.3-0.1
		c-0.1-0.1-0.3-0.2-0.4-0.3c-0.2-0.1-0.4-0.2-0.7-0.3c-0.3-0.1-0.6-0.1-1-0.1c-0.5,0-0.9,0.1-1.3,0.3c-0.4,0.2-0.7,0.4-1,0.8
		c-0.3,0.3-0.5,0.7-0.6,1.2c-0.1,0.5-0.2,1-0.2,1.6c0,0.6,0.1,1.2,0.2,1.6c0.1,0.5,0.3,0.9,0.6,1.2c0.3,0.3,0.6,0.6,0.9,0.7
		c0.4,0.2,0.8,0.3,1.2,0.3c0.4,0,0.8-0.1,1.1-0.2c0.3-0.1,0.5-0.2,0.7-0.3c0.2-0.1,0.3-0.2,0.5-0.3c0.1-0.1,0.2-0.2,0.4-0.2
		c0.1,0,0.3,0.1,0.3,0.2l0.5,0.7c-0.2,0.3-0.5,0.5-0.8,0.7c-0.3,0.2-0.6,0.4-0.9,0.5c-0.3,0.1-0.7,0.2-1,0.3
		c-0.4,0.1-0.7,0.1-1.1,0.1c-0.6,0-1.2-0.1-1.8-0.4c-0.5-0.2-1-0.6-1.4-1c-0.4-0.4-0.7-1-0.9-1.6c-0.2-0.7-0.3-1.4-0.3-2.2
		c0-0.8,0.1-1.5,0.3-2.1c0.2-0.6,0.5-1.2,0.9-1.7c0.4-0.5,0.9-0.8,1.5-1.1c0.6-0.3,1.3-0.4,2.1-0.4c0.7,0,1.4,0.1,1.9,0.3
		c0.5,0.2,1,0.6,1.5,1L1079.2,301.7z"/>
	<path fill="#28245F" d="M1085.8,299.7c0.7,0,1.4,0.1,2,0.4s1.1,0.6,1.5,1.1c0.4,0.5,0.7,1,1,1.7c0.2,0.6,0.3,1.4,0.3,2.2
		c0,0.8-0.1,1.5-0.3,2.2c-0.2,0.6-0.6,1.2-1,1.7c-0.4,0.5-0.9,0.8-1.5,1.1c-0.6,0.2-1.3,0.4-2,0.4c-0.8,0-1.4-0.1-2-0.4
		c-0.6-0.2-1.1-0.6-1.5-1.1c-0.4-0.5-0.7-1-1-1.7c-0.2-0.6-0.3-1.4-0.3-2.2c0-0.8,0.1-1.5,0.3-2.2c0.2-0.6,0.6-1.2,1-1.7
		c0.4-0.5,0.9-0.8,1.5-1.1C1084.4,299.8,1085.1,299.7,1085.8,299.7z M1085.8,308.8c1,0,1.8-0.3,2.3-1s0.7-1.6,0.7-2.8
		c0-1.2-0.2-2.2-0.7-2.8c-0.5-0.7-1.3-1-2.3-1c-0.5,0-1,0.1-1.3,0.3c-0.4,0.2-0.7,0.4-0.9,0.8c-0.3,0.3-0.4,0.7-0.6,1.2
		c-0.1,0.5-0.2,1-0.2,1.6c0,1.2,0.3,2.2,0.8,2.8C1084,308.5,1084.8,308.8,1085.8,308.8z"/>
	<path fill="#28245F" d="M1094.7,301.3c0.2-0.2,0.5-0.5,0.7-0.7c0.2-0.2,0.5-0.4,0.8-0.5c0.3-0.1,0.6-0.3,0.9-0.3
		c0.3-0.1,0.7-0.1,1-0.1c0.6,0,1.1,0.1,1.5,0.3c0.4,0.2,0.8,0.4,1.1,0.8c0.3,0.3,0.5,0.7,0.7,1.2c0.1,0.5,0.2,1,0.2,1.6v6.5h-1.8
		v-6.5c0-0.8-0.2-1.4-0.5-1.8c-0.4-0.4-0.9-0.6-1.6-0.6c-0.5,0-1,0.1-1.5,0.4c-0.5,0.3-0.9,0.6-1.3,1v7.5h-1.8v-10.2h1.1
		c0.3,0,0.4,0.1,0.5,0.4L1094.7,301.3z"/>
	<path fill="#28245F" d="M1104.8,310.1v-8.7l-1.1-0.1c-0.1,0-0.3-0.1-0.4-0.2c-0.1-0.1-0.1-0.2-0.1-0.3V300h1.6v-0.6
		c0-0.6,0.1-1.2,0.3-1.7c0.2-0.5,0.5-1,0.9-1.3c0.4-0.4,0.9-0.7,1.5-0.9c0.6-0.2,1.3-0.3,2-0.3c0.3,0,0.5,0,0.8,0.1
		c0.3,0,0.5,0.1,0.7,0.2l-0.1,0.9c0,0.1,0,0.1-0.1,0.1c0,0-0.1,0-0.2,0.1c-0.1,0-0.2,0-0.3,0c-0.1,0-0.2,0-0.4,0
		c-1.2,0-2.1,0.2-2.6,0.7s-0.8,1.2-0.8,2.2v0.5h6.2v10h-1.8v-8.7h-4.3v8.7H1104.8z"/>
	<path fill="#28245F" d="M1124.1,295.2v14.9h-1.1c-0.3,0-0.4-0.1-0.5-0.4l-0.2-1.2c-0.4,0.5-0.9,0.9-1.5,1.3
		c-0.6,0.3-1.2,0.5-1.9,0.5c-0.6,0-1.1-0.1-1.6-0.3c-0.5-0.2-0.9-0.6-1.2-1s-0.6-1-0.8-1.6c-0.2-0.7-0.3-1.4-0.3-2.3
		c0-0.8,0.1-1.5,0.3-2.1c0.2-0.6,0.5-1.2,0.9-1.7c0.4-0.5,0.8-0.9,1.4-1.1c0.5-0.3,1.2-0.4,1.9-0.4c0.6,0,1.2,0.1,1.6,0.3
		c0.4,0.2,0.8,0.5,1.2,0.9v-5.7H1124.1z M1122.3,302.3c-0.3-0.5-0.7-0.8-1.1-0.9c-0.4-0.2-0.8-0.3-1.3-0.3c-0.9,0-1.7,0.3-2.2,1
		c-0.5,0.7-0.8,1.6-0.8,2.9c0,0.7,0.1,1.2,0.2,1.7c0.1,0.5,0.3,0.9,0.5,1.2c0.2,0.3,0.5,0.5,0.8,0.7c0.3,0.1,0.7,0.2,1.1,0.2
		c0.6,0,1.1-0.1,1.5-0.4c0.4-0.3,0.8-0.6,1.2-1.1V302.3z"/>
	<path fill="#28245F" d="M1135.2,308.6c-0.2,0.3-0.5,0.5-0.8,0.7c-0.3,0.2-0.6,0.4-1,0.5c-0.4,0.1-0.7,0.2-1.1,0.3s-0.8,0.1-1.1,0.1
		c-0.7,0-1.4-0.1-2-0.4c-0.6-0.2-1.1-0.6-1.5-1c-0.4-0.5-0.8-1-1-1.7c-0.2-0.7-0.4-1.5-0.4-2.3c0-0.7,0.1-1.4,0.3-2
		c0.2-0.6,0.5-1.2,0.9-1.6c0.4-0.5,0.9-0.8,1.5-1.1c0.6-0.3,1.3-0.4,2-0.4c0.6,0,1.2,0.1,1.7,0.3c0.5,0.2,1,0.5,1.4,0.9
		c0.4,0.4,0.7,0.9,0.9,1.4c0.2,0.6,0.3,1.2,0.3,1.9c0,0.3,0,0.5-0.1,0.6c-0.1,0.1-0.2,0.1-0.3,0.1h-6.8c0,0.6,0.1,1.2,0.3,1.7
		c0.2,0.5,0.4,0.9,0.7,1.2c0.3,0.3,0.6,0.6,1,0.7c0.4,0.2,0.8,0.2,1.3,0.2c0.5,0,0.8-0.1,1.2-0.2c0.3-0.1,0.6-0.2,0.8-0.3
		c0.2-0.1,0.4-0.2,0.6-0.3c0.2-0.1,0.3-0.2,0.4-0.2c0.1,0,0.3,0.1,0.3,0.2L1135.2,308.6z M1133.8,303.8c0-0.4-0.1-0.8-0.2-1.1
		s-0.3-0.6-0.5-0.9c-0.2-0.3-0.5-0.4-0.8-0.6c-0.3-0.1-0.7-0.2-1.1-0.2c-0.9,0-1.5,0.3-2,0.8c-0.5,0.5-0.8,1.2-0.9,2.1H1133.8z"/>
	<path fill="#28245F" d="M1139.3,301.3c0.2-0.2,0.5-0.5,0.7-0.7c0.2-0.2,0.5-0.4,0.8-0.5c0.3-0.1,0.6-0.3,0.9-0.3
		c0.3-0.1,0.7-0.1,1-0.1c0.6,0,1.1,0.1,1.5,0.3c0.4,0.2,0.8,0.4,1.1,0.8c0.3,0.3,0.5,0.7,0.7,1.2c0.1,0.5,0.2,1,0.2,1.6v6.5h-1.8
		v-6.5c0-0.8-0.2-1.4-0.5-1.8c-0.4-0.4-0.9-0.6-1.6-0.6c-0.5,0-1,0.1-1.5,0.4c-0.5,0.3-0.9,0.6-1.3,1v7.5h-1.8v-10.2h1.1
		c0.3,0,0.4,0.1,0.5,0.4L1139.3,301.3z"/>
	<path fill="#28245F" d="M1156,301.7c-0.1,0.1-0.1,0.1-0.2,0.2c-0.1,0-0.1,0.1-0.2,0.1c-0.1,0-0.2,0-0.3-0.1
		c-0.1-0.1-0.3-0.2-0.4-0.3c-0.2-0.1-0.4-0.2-0.7-0.3c-0.3-0.1-0.6-0.1-1-0.1c-0.5,0-0.9,0.1-1.3,0.3c-0.4,0.2-0.7,0.4-1,0.8
		c-0.3,0.3-0.5,0.7-0.6,1.2c-0.1,0.5-0.2,1-0.2,1.6c0,0.6,0.1,1.2,0.2,1.6c0.1,0.5,0.3,0.9,0.6,1.2c0.3,0.3,0.6,0.6,0.9,0.7
		c0.4,0.2,0.8,0.3,1.2,0.3c0.4,0,0.8-0.1,1.1-0.2c0.3-0.1,0.5-0.2,0.7-0.3c0.2-0.1,0.3-0.2,0.5-0.3c0.1-0.1,0.2-0.2,0.4-0.2
		c0.1,0,0.3,0.1,0.3,0.2l0.5,0.7c-0.2,0.3-0.5,0.5-0.8,0.7c-0.3,0.2-0.6,0.4-0.9,0.5c-0.3,0.1-0.7,0.2-1,0.3
		c-0.4,0.1-0.7,0.1-1.1,0.1c-0.6,0-1.2-0.1-1.8-0.4c-0.5-0.2-1-0.6-1.4-1c-0.4-0.4-0.7-1-0.9-1.6c-0.2-0.7-0.3-1.4-0.3-2.2
		c0-0.8,0.1-1.5,0.3-2.1c0.2-0.6,0.5-1.2,0.9-1.7c0.4-0.5,0.9-0.8,1.5-1.1c0.6-0.3,1.3-0.4,2.1-0.4c0.7,0,1.4,0.1,1.9,0.3
		c0.5,0.2,1,0.6,1.5,1L1156,301.7z"/>
	<path fill="#28245F" d="M1166.6,308.6c-0.2,0.3-0.5,0.5-0.8,0.7c-0.3,0.2-0.6,0.4-1,0.5c-0.4,0.1-0.7,0.2-1.1,0.3s-0.8,0.1-1.1,0.1
		c-0.7,0-1.4-0.1-2-0.4c-0.6-0.2-1.1-0.6-1.5-1c-0.4-0.5-0.8-1-1-1.7c-0.2-0.7-0.4-1.5-0.4-2.3c0-0.7,0.1-1.4,0.3-2
		c0.2-0.6,0.5-1.2,0.9-1.6c0.4-0.5,0.9-0.8,1.5-1.1c0.6-0.3,1.3-0.4,2-0.4c0.6,0,1.2,0.1,1.7,0.3c0.5,0.2,1,0.5,1.4,0.9
		c0.4,0.4,0.7,0.9,0.9,1.4c0.2,0.6,0.3,1.2,0.3,1.9c0,0.3,0,0.5-0.1,0.6c-0.1,0.1-0.2,0.1-0.3,0.1h-6.8c0,0.6,0.1,1.2,0.3,1.7
		c0.2,0.5,0.4,0.9,0.7,1.2c0.3,0.3,0.6,0.6,1,0.7c0.4,0.2,0.8,0.2,1.3,0.2c0.5,0,0.8-0.1,1.2-0.2c0.3-0.1,0.6-0.2,0.8-0.3
		c0.2-0.1,0.4-0.2,0.6-0.3c0.2-0.1,0.3-0.2,0.4-0.2c0.1,0,0.3,0.1,0.3,0.2L1166.6,308.6z M1165.2,303.8c0-0.4-0.1-0.8-0.2-1.1
		s-0.3-0.6-0.5-0.9c-0.2-0.3-0.5-0.4-0.8-0.6c-0.3-0.1-0.7-0.2-1.1-0.2c-0.9,0-1.5,0.3-2,0.8c-0.5,0.5-0.8,1.2-0.9,2.1H1165.2z"/>
</g>
<circle fill="#29ABE2" cx="1093.5" cy="238.8" r="8.2"/>
<g>
	<path fill="#282560" d="M1121,235.6c0.1,0,0.2,0,0.3,0.1l0.8,0.9c-0.6,0.7-1.4,1.3-2.2,1.7s-1.9,0.6-3.2,0.6c-1.1,0-2-0.2-2.9-0.6
		s-1.6-0.9-2.2-1.6c-0.6-0.7-1.1-1.5-1.4-2.4c-0.3-0.9-0.5-2-0.5-3.1c0-1.1,0.2-2.2,0.5-3.1c0.4-0.9,0.9-1.7,1.5-2.4
		c0.6-0.7,1.4-1.2,2.3-1.6s1.9-0.6,3-0.6c1.1,0,2,0.2,2.8,0.5c0.8,0.3,1.5,0.8,2.1,1.4l-0.7,0.9c0,0.1-0.1,0.1-0.2,0.2
		c-0.1,0-0.2,0.1-0.3,0.1c-0.1,0-0.3-0.1-0.5-0.2c-0.2-0.1-0.4-0.3-0.7-0.5c-0.3-0.2-0.7-0.3-1.1-0.5c-0.4-0.1-1-0.2-1.6-0.2
		c-0.8,0-1.5,0.1-2.1,0.4c-0.6,0.3-1.2,0.7-1.7,1.2c-0.5,0.5-0.8,1.1-1.1,1.9c-0.3,0.7-0.4,1.6-0.4,2.5c0,0.9,0.1,1.8,0.4,2.5
		c0.3,0.7,0.6,1.3,1.1,1.8c0.5,0.5,1,0.9,1.6,1.2c0.6,0.3,1.3,0.4,2,0.4c0.4,0,0.8,0,1.2-0.1c0.4-0.1,0.7-0.1,1-0.2
		c0.3-0.1,0.6-0.3,0.8-0.4c0.3-0.2,0.5-0.4,0.8-0.6C1120.8,235.6,1120.9,235.6,1121,235.6z"/>
	<path fill="#282560" d="M1125.7,230.2c0.3-0.7,0.7-1.3,1.2-1.7c0.5-0.4,1.1-0.6,1.8-0.6c0.2,0,0.4,0,0.6,0.1c0.2,0,0.4,0.1,0.5,0.2
		l-0.1,1.4c0,0.2-0.1,0.3-0.3,0.3c-0.1,0-0.2,0-0.4-0.1c-0.2,0-0.4-0.1-0.6-0.1c-0.3,0-0.6,0-0.9,0.1c-0.3,0.1-0.5,0.2-0.7,0.4
		c-0.2,0.2-0.4,0.4-0.6,0.7c-0.2,0.3-0.3,0.6-0.4,1v6.7h-1.9v-10.6h1.1c0.2,0,0.3,0,0.4,0.1c0.1,0.1,0.1,0.2,0.2,0.4L1125.7,230.2z"
		/>
	<path fill="#282560" d="M1135.6,227.9c0.8,0,1.5,0.1,2.1,0.4c0.6,0.3,1.1,0.6,1.6,1.1c0.4,0.5,0.8,1,1,1.7s0.3,1.4,0.3,2.2
		c0,0.8-0.1,1.6-0.3,2.3c-0.2,0.7-0.6,1.2-1,1.7c-0.4,0.5-1,0.8-1.6,1.1c-0.6,0.3-1.3,0.4-2.1,0.4c-0.8,0-1.5-0.1-2.1-0.4
		c-0.6-0.3-1.2-0.6-1.6-1.1c-0.4-0.5-0.8-1-1-1.7c-0.2-0.7-0.3-1.4-0.3-2.3c0-0.8,0.1-1.6,0.3-2.2s0.6-1.2,1-1.7
		c0.4-0.5,1-0.8,1.6-1.1C1134.1,228,1134.8,227.9,1135.6,227.9z M1135.6,237.3c1,0,1.8-0.3,2.3-1c0.5-0.7,0.8-1.7,0.8-2.9
		c0-1.3-0.3-2.2-0.8-2.9c-0.5-0.7-1.3-1.1-2.3-1.1c-0.5,0-1,0.1-1.4,0.3c-0.4,0.2-0.7,0.4-1,0.8c-0.3,0.3-0.5,0.8-0.6,1.3
		c-0.1,0.5-0.2,1.1-0.2,1.7c0,1.3,0.3,2.2,0.8,2.9C1133.8,237,1134.5,237.3,1135.6,237.3z"/>
	<path fill="#282560" d="M1149.1,229.8c-0.1,0.2-0.2,0.2-0.4,0.2c-0.1,0-0.2,0-0.4-0.1c-0.1-0.1-0.3-0.2-0.5-0.3
		c-0.2-0.1-0.4-0.2-0.7-0.3s-0.6-0.1-0.9-0.1c-0.3,0-0.6,0-0.8,0.1s-0.5,0.2-0.6,0.3c-0.2,0.1-0.3,0.3-0.4,0.5
		c-0.1,0.2-0.1,0.4-0.1,0.6c0,0.3,0.1,0.5,0.2,0.7c0.2,0.2,0.4,0.3,0.6,0.5c0.3,0.1,0.5,0.2,0.9,0.3c0.3,0.1,0.7,0.2,1,0.3
		c0.3,0.1,0.7,0.2,1,0.4c0.3,0.1,0.6,0.3,0.9,0.5c0.3,0.2,0.5,0.5,0.6,0.8c0.2,0.3,0.2,0.7,0.2,1.1c0,0.5-0.1,0.9-0.3,1.3
		c-0.2,0.4-0.4,0.8-0.8,1.1c-0.3,0.3-0.8,0.5-1.3,0.7c-0.5,0.2-1.1,0.3-1.7,0.3c-0.7,0-1.4-0.1-2-0.4c-0.6-0.2-1.1-0.5-1.5-0.9
		l0.4-0.7c0.1-0.1,0.1-0.2,0.2-0.2c0.1,0,0.2-0.1,0.3-0.1c0.1,0,0.3,0,0.4,0.1c0.1,0.1,0.3,0.2,0.5,0.3c0.2,0.1,0.4,0.2,0.7,0.3
		c0.3,0.1,0.6,0.1,1.1,0.1c0.4,0,0.7,0,0.9-0.1s0.5-0.2,0.7-0.4c0.2-0.2,0.3-0.3,0.4-0.6c0.1-0.2,0.1-0.4,0.1-0.7
		c0-0.3-0.1-0.5-0.2-0.7c-0.2-0.2-0.4-0.4-0.6-0.5c-0.3-0.1-0.6-0.3-0.9-0.4c-0.3-0.1-0.7-0.2-1-0.3c-0.3-0.1-0.7-0.2-1-0.4
		c-0.3-0.1-0.6-0.3-0.9-0.5c-0.3-0.2-0.5-0.5-0.6-0.8c-0.2-0.3-0.2-0.7-0.2-1.2c0-0.4,0.1-0.8,0.2-1.2c0.2-0.4,0.4-0.7,0.7-1
		c0.3-0.3,0.7-0.5,1.2-0.7c0.5-0.2,1-0.3,1.6-0.3c0.7,0,1.3,0.1,1.9,0.3c0.6,0.2,1,0.5,1.4,0.9L1149.1,229.8z"/>
	<path fill="#282560" d="M1158.1,229.8c-0.1,0.2-0.2,0.2-0.4,0.2c-0.1,0-0.2,0-0.4-0.1c-0.1-0.1-0.3-0.2-0.5-0.3
		c-0.2-0.1-0.4-0.2-0.7-0.3s-0.6-0.1-0.9-0.1c-0.3,0-0.6,0-0.8,0.1s-0.5,0.2-0.6,0.3c-0.2,0.1-0.3,0.3-0.4,0.5
		c-0.1,0.2-0.1,0.4-0.1,0.6c0,0.3,0.1,0.5,0.2,0.7c0.2,0.2,0.4,0.3,0.6,0.5c0.3,0.1,0.5,0.2,0.9,0.3c0.3,0.1,0.7,0.2,1,0.3
		c0.3,0.1,0.7,0.2,1,0.4c0.3,0.1,0.6,0.3,0.9,0.5c0.3,0.2,0.5,0.5,0.6,0.8c0.2,0.3,0.2,0.7,0.2,1.1c0,0.5-0.1,0.9-0.3,1.3
		c-0.2,0.4-0.4,0.8-0.8,1.1c-0.3,0.3-0.8,0.5-1.3,0.7c-0.5,0.2-1.1,0.3-1.7,0.3c-0.7,0-1.4-0.1-2-0.4c-0.6-0.2-1.1-0.5-1.5-0.9
		l0.4-0.7c0.1-0.1,0.1-0.2,0.2-0.2c0.1,0,0.2-0.1,0.3-0.1c0.1,0,0.3,0,0.4,0.1c0.1,0.1,0.3,0.2,0.5,0.3c0.2,0.1,0.4,0.2,0.7,0.3
		c0.3,0.1,0.6,0.1,1.1,0.1c0.4,0,0.7,0,0.9-0.1s0.5-0.2,0.7-0.4c0.2-0.2,0.3-0.3,0.4-0.6c0.1-0.2,0.1-0.4,0.1-0.7
		c0-0.3-0.1-0.5-0.2-0.7c-0.2-0.2-0.4-0.4-0.6-0.5c-0.3-0.1-0.6-0.3-0.9-0.4c-0.3-0.1-0.7-0.2-1-0.3c-0.3-0.1-0.7-0.2-1-0.4
		c-0.3-0.1-0.6-0.3-0.9-0.5c-0.3-0.2-0.5-0.5-0.6-0.8c-0.2-0.3-0.2-0.7-0.2-1.2c0-0.4,0.1-0.8,0.2-1.2c0.2-0.4,0.4-0.7,0.7-1
		c0.3-0.3,0.7-0.5,1.2-0.7c0.5-0.2,1-0.3,1.6-0.3c0.7,0,1.3,0.1,1.9,0.3c0.6,0.2,1,0.5,1.4,0.9L1158.1,229.8z"/>
	<path fill="#282560" d="M1173.7,230c-0.1,0.1-0.1,0.1-0.2,0.2c-0.1,0-0.1,0.1-0.2,0.1c-0.1,0-0.2,0-0.3-0.1
		c-0.1-0.1-0.3-0.2-0.5-0.3c-0.2-0.1-0.4-0.2-0.7-0.3c-0.3-0.1-0.6-0.1-1-0.1c-0.5,0-1,0.1-1.4,0.3c-0.4,0.2-0.7,0.5-1,0.8
		c-0.3,0.3-0.5,0.8-0.6,1.3c-0.1,0.5-0.2,1-0.2,1.7c0,0.6,0.1,1.2,0.2,1.7c0.1,0.5,0.4,0.9,0.6,1.3c0.3,0.3,0.6,0.6,1,0.8
		c0.4,0.2,0.8,0.3,1.3,0.3c0.5,0,0.8-0.1,1.1-0.2c0.3-0.1,0.5-0.2,0.7-0.4c0.2-0.1,0.4-0.3,0.5-0.4c0.1-0.1,0.3-0.2,0.4-0.2
		c0.2,0,0.3,0.1,0.4,0.2l0.5,0.7c-0.2,0.3-0.5,0.5-0.8,0.7c-0.3,0.2-0.6,0.4-0.9,0.5c-0.3,0.1-0.7,0.2-1.1,0.3
		c-0.4,0.1-0.7,0.1-1.1,0.1c-0.7,0-1.3-0.1-1.8-0.4c-0.6-0.2-1.1-0.6-1.5-1.1c-0.4-0.5-0.7-1-1-1.7c-0.2-0.7-0.4-1.4-0.4-2.3
		c0-0.8,0.1-1.5,0.3-2.2c0.2-0.7,0.5-1.2,1-1.7c0.4-0.5,0.9-0.9,1.6-1.1c0.6-0.3,1.3-0.4,2.1-0.4c0.7,0,1.4,0.1,2,0.4
		c0.6,0.2,1.1,0.6,1.5,1L1173.7,230z"/>
	<path fill="#282560" d="M1185,228.1v10.6h-1.1c-0.3,0-0.4-0.1-0.5-0.4l-0.1-1.1c-0.5,0.5-1,0.9-1.5,1.2c-0.6,0.3-1.2,0.5-2,0.5
		c-0.6,0-1.1-0.1-1.5-0.3c-0.4-0.2-0.8-0.5-1.1-0.8c-0.3-0.3-0.5-0.8-0.7-1.3c-0.1-0.5-0.2-1-0.2-1.6v-6.7h1.9v6.7
		c0,0.8,0.2,1.4,0.5,1.9c0.4,0.4,0.9,0.7,1.7,0.7c0.5,0,1.1-0.1,1.5-0.4c0.5-0.3,0.9-0.6,1.3-1.1v-7.8H1185z"/>
	<path fill="#282560" d="M1189.8,223.3v15.4h-1.9v-15.4H1189.8z"/>
	<path fill="#282560" d="M1196.1,238.8c-0.8,0-1.5-0.2-1.9-0.7c-0.4-0.5-0.7-1.1-0.7-2v-6.5h-1.3c-0.1,0-0.2,0-0.3-0.1
		c-0.1-0.1-0.1-0.2-0.1-0.3v-0.7l1.7-0.2l0.4-3.3c0-0.1,0.1-0.2,0.1-0.3s0.2-0.1,0.3-0.1h0.9v3.6h3.1v1.3h-3.1v6.3
		c0,0.4,0.1,0.8,0.3,1c0.2,0.2,0.5,0.3,0.8,0.3c0.2,0,0.4,0,0.5-0.1c0.1-0.1,0.3-0.1,0.4-0.2c0.1-0.1,0.2-0.1,0.3-0.2
		s0.1-0.1,0.2-0.1c0.1,0,0.2,0.1,0.3,0.2l0.5,0.9c-0.3,0.3-0.7,0.5-1.2,0.7C1197,238.7,1196.6,238.8,1196.1,238.8z"/>
	<path fill="#282560" d="M1202.1,230.2c0.3-0.7,0.7-1.3,1.2-1.7c0.5-0.4,1.1-0.6,1.8-0.6c0.2,0,0.4,0,0.6,0.1c0.2,0,0.4,0.1,0.5,0.2
		l-0.1,1.4c0,0.2-0.1,0.3-0.3,0.3c-0.1,0-0.2,0-0.4-0.1c-0.2,0-0.4-0.1-0.6-0.1c-0.3,0-0.6,0-0.9,0.1c-0.3,0.1-0.5,0.2-0.7,0.4
		c-0.2,0.2-0.4,0.4-0.6,0.7c-0.2,0.3-0.3,0.6-0.4,1v6.7h-1.9v-10.6h1.1c0.2,0,0.3,0,0.4,0.1c0.1,0.1,0.1,0.2,0.2,0.4L1202.1,230.2z"
		/>
	<path fill="#282560" d="M1207.5,229.6c0.6-0.6,1.2-1,1.9-1.3c0.7-0.3,1.4-0.4,2.2-0.4c0.6,0,1.1,0.1,1.6,0.3
		c0.5,0.2,0.8,0.5,1.2,0.8c0.3,0.3,0.5,0.8,0.7,1.3c0.2,0.5,0.2,1,0.2,1.6v6.8h-0.8c-0.2,0-0.3,0-0.4-0.1c-0.1-0.1-0.2-0.2-0.2-0.3
		l-0.2-1c-0.3,0.3-0.5,0.5-0.8,0.7c-0.3,0.2-0.5,0.4-0.8,0.5c-0.3,0.1-0.6,0.2-0.9,0.3s-0.7,0.1-1.1,0.1c-0.4,0-0.8-0.1-1.2-0.2
		c-0.4-0.1-0.7-0.3-0.9-0.5c-0.3-0.2-0.5-0.5-0.6-0.9c-0.2-0.3-0.2-0.8-0.2-1.2c0-0.4,0.1-0.8,0.3-1.2c0.2-0.4,0.6-0.7,1.1-1
		c0.5-0.3,1.2-0.5,2-0.7c0.8-0.2,1.8-0.3,3-0.3v-0.8c0-0.8-0.2-1.4-0.5-1.9c-0.4-0.4-0.9-0.6-1.6-0.6c-0.5,0-0.8,0.1-1.2,0.2
		c-0.3,0.1-0.6,0.2-0.8,0.4s-0.4,0.3-0.6,0.4c-0.2,0.1-0.3,0.2-0.5,0.2c-0.1,0-0.2,0-0.3-0.1c-0.1-0.1-0.2-0.1-0.2-0.2L1207.5,229.6
		z M1213.5,233.9c-0.9,0-1.6,0.1-2.2,0.2c-0.6,0.1-1.1,0.2-1.5,0.4c-0.4,0.2-0.7,0.4-0.8,0.6c-0.2,0.2-0.3,0.5-0.3,0.8
		c0,0.3,0,0.5,0.1,0.7c0.1,0.2,0.2,0.4,0.4,0.5c0.2,0.1,0.3,0.2,0.6,0.3c0.2,0.1,0.4,0.1,0.7,0.1c0.3,0,0.6,0,0.9-0.1
		s0.5-0.2,0.8-0.3c0.2-0.1,0.5-0.3,0.7-0.4c0.2-0.2,0.4-0.4,0.6-0.6V233.9z"/>
	<path fill="#282560" d="M1220,223.3v15.4h-1.9v-15.4H1220z"/>
	<path fill="#282560" d="M1238,237l0,1.6h-9.2v-14.9h9.2v1.6h-7.2v5h5.8v1.6h-5.8v5.1H1238z"/>
	<path fill="#282560" d="M1249.1,238.6h-1.8c-0.2,0-0.3,0-0.4-0.1c-0.1-0.1-0.2-0.2-0.2-0.3l-2.7-4.1c0,0.1-0.1,0.2-0.1,0.3
		c0,0.1-0.1,0.2-0.1,0.3l-2.5,3.6c-0.1,0.1-0.1,0.2-0.2,0.3c-0.1,0.1-0.2,0.1-0.3,0.1h-1.7l3.7-5.4l-3.6-5.1h1.8
		c0.2,0,0.3,0,0.3,0.1c0.1,0,0.1,0.1,0.2,0.2l2.6,4c0.1-0.2,0.1-0.4,0.3-0.6l2.3-3.3c0.1-0.1,0.1-0.2,0.2-0.2
		c0.1-0.1,0.2-0.1,0.3-0.1h1.7l-3.6,5L1249.1,238.6z"/>
	<path fill="#282560" d="M1252.5,229.7c0.4-0.5,1-1,1.5-1.3c0.6-0.3,1.3-0.5,2-0.5c0.6,0,1.2,0.1,1.7,0.3c0.5,0.2,0.9,0.6,1.3,1
		c0.3,0.5,0.6,1,0.8,1.7c0.2,0.7,0.3,1.4,0.3,2.3c0,0.8-0.1,1.5-0.3,2.2s-0.5,1.3-0.9,1.7c-0.4,0.5-0.9,0.9-1.4,1.2
		c-0.6,0.3-1.2,0.4-1.9,0.4c-0.6,0-1.2-0.1-1.7-0.3c-0.5-0.2-0.9-0.5-1.2-0.9v4.7h-1.9v-14.1h1.1c0.3,0,0.4,0.1,0.5,0.4
		L1252.5,229.7z M1252.6,236.1c0.3,0.5,0.7,0.8,1.1,1c0.4,0.2,0.9,0.3,1.4,0.3c1,0,1.7-0.4,2.3-1.1c0.5-0.7,0.8-1.7,0.8-3
		c0-0.7-0.1-1.3-0.2-1.8c-0.1-0.5-0.3-0.9-0.5-1.2c-0.2-0.3-0.5-0.5-0.8-0.7c-0.3-0.1-0.7-0.2-1.1-0.2c-0.6,0-1.1,0.1-1.6,0.4
		c-0.5,0.3-0.9,0.7-1.3,1.2V236.1z"/>
</g>
<circle fill="#29ABE2" cx="1185" cy="166.6" r="8.2"/>
<g>
	<path fill="#282561" d="M1211,167.7v1.7h-8.5v-15h2v13.3H1211z"/>
	<path fill="#282561" d="M1220.7,168c-0.2,0.3-0.5,0.5-0.8,0.7c-0.3,0.2-0.7,0.4-1,0.5c-0.4,0.1-0.7,0.2-1.1,0.3
		c-0.4,0.1-0.8,0.1-1.2,0.1c-0.7,0-1.4-0.1-2-0.4c-0.6-0.2-1.1-0.6-1.6-1.1c-0.4-0.5-0.8-1.1-1-1.8c-0.3-0.7-0.4-1.5-0.4-2.4
		c0-0.7,0.1-1.4,0.3-2.1c0.2-0.6,0.6-1.2,1-1.7c0.4-0.5,0.9-0.8,1.6-1.1c0.6-0.3,1.3-0.4,2.1-0.4c0.6,0,1.2,0.1,1.8,0.3
		c0.5,0.2,1,0.5,1.4,0.9c0.4,0.4,0.7,0.9,0.9,1.5c0.2,0.6,0.3,1.3,0.3,2c0,0.3,0,0.5-0.1,0.6c-0.1,0.1-0.2,0.1-0.4,0.1h-7.1
		c0,0.7,0.1,1.2,0.3,1.7c0.2,0.5,0.4,0.9,0.7,1.2c0.3,0.3,0.6,0.6,1,0.7c0.4,0.2,0.9,0.2,1.4,0.2c0.5,0,0.9-0.1,1.2-0.2
		c0.3-0.1,0.6-0.2,0.9-0.4c0.2-0.1,0.4-0.2,0.6-0.3c0.2-0.1,0.3-0.2,0.4-0.2c0.2,0,0.3,0.1,0.4,0.2L1220.7,168z M1219.1,163
		c0-0.4-0.1-0.8-0.2-1.2c-0.1-0.4-0.3-0.7-0.5-0.9c-0.2-0.3-0.5-0.5-0.9-0.6c-0.3-0.1-0.7-0.2-1.1-0.2c-0.9,0-1.6,0.3-2.1,0.8
		c-0.5,0.5-0.8,1.2-1,2.2H1219.1z"/>
	<path fill="#282561" d="M1222.8,160.4c0.6-0.6,1.2-1,1.9-1.3c0.7-0.3,1.4-0.4,2.2-0.4c0.6,0,1.1,0.1,1.6,0.3
		c0.5,0.2,0.8,0.5,1.2,0.8c0.3,0.3,0.6,0.8,0.7,1.3c0.2,0.5,0.2,1,0.2,1.6v6.8h-0.8c-0.2,0-0.3,0-0.4-0.1c-0.1-0.1-0.2-0.2-0.2-0.3
		l-0.2-1c-0.3,0.3-0.6,0.5-0.8,0.7s-0.5,0.4-0.8,0.5c-0.3,0.1-0.6,0.2-0.9,0.3s-0.7,0.1-1.1,0.1c-0.4,0-0.8-0.1-1.2-0.2
		c-0.4-0.1-0.7-0.3-0.9-0.5c-0.3-0.2-0.5-0.5-0.6-0.9c-0.2-0.4-0.2-0.8-0.2-1.2c0-0.4,0.1-0.8,0.3-1.2c0.2-0.4,0.6-0.7,1.1-1
		c0.5-0.3,1.2-0.5,2-0.7c0.8-0.2,1.8-0.3,3-0.3v-0.8c0-0.8-0.2-1.4-0.5-1.9c-0.4-0.4-0.9-0.6-1.6-0.6c-0.5,0-0.8,0.1-1.2,0.2
		c-0.3,0.1-0.6,0.2-0.8,0.4c-0.2,0.1-0.4,0.3-0.6,0.4c-0.2,0.1-0.3,0.2-0.5,0.2c-0.1,0-0.2,0-0.3-0.1c-0.1-0.1-0.2-0.1-0.2-0.2
		L1222.8,160.4z M1228.8,164.7c-0.9,0-1.6,0.1-2.2,0.2c-0.6,0.1-1.1,0.2-1.5,0.4c-0.4,0.2-0.7,0.4-0.8,0.6c-0.2,0.2-0.3,0.5-0.3,0.8
		c0,0.3,0,0.5,0.1,0.7c0.1,0.2,0.2,0.4,0.4,0.5c0.2,0.1,0.3,0.2,0.6,0.3c0.2,0.1,0.4,0.1,0.7,0.1c0.3,0,0.6,0,0.9-0.1
		s0.5-0.2,0.8-0.3c0.2-0.1,0.5-0.3,0.7-0.4c0.2-0.2,0.4-0.4,0.6-0.6V164.7z"/>
	<path fill="#282561" d="M1242.2,154.1v15.4h-1.1c-0.3,0-0.4-0.1-0.5-0.4l-0.2-1.3c-0.5,0.5-1,1-1.5,1.3c-0.6,0.3-1.2,0.5-2,0.5
		c-0.6,0-1.2-0.1-1.7-0.4c-0.5-0.2-0.9-0.6-1.3-1c-0.3-0.5-0.6-1-0.8-1.7c-0.2-0.7-0.3-1.5-0.3-2.3c0-0.8,0.1-1.5,0.3-2.2
		c0.2-0.7,0.5-1.3,0.9-1.7c0.4-0.5,0.9-0.9,1.4-1.2s1.2-0.4,1.9-0.4c0.6,0,1.2,0.1,1.7,0.3c0.5,0.2,0.9,0.5,1.2,0.9v-5.9H1242.2z
		 M1240.4,161.4c-0.3-0.5-0.7-0.8-1.1-1s-0.9-0.3-1.4-0.3c-1,0-1.7,0.4-2.3,1.1c-0.5,0.7-0.8,1.7-0.8,3c0,0.7,0.1,1.3,0.2,1.8
		s0.3,0.9,0.5,1.2c0.2,0.3,0.5,0.5,0.8,0.7c0.3,0.1,0.7,0.2,1.1,0.2c0.6,0,1.1-0.1,1.6-0.4c0.5-0.3,0.9-0.7,1.3-1.2V161.4z"/>
	<path fill="#282561" d="M1253.8,168c-0.2,0.3-0.5,0.5-0.8,0.7c-0.3,0.2-0.7,0.4-1,0.5c-0.4,0.1-0.7,0.2-1.1,0.3s-0.8,0.1-1.2,0.1
		c-0.7,0-1.4-0.1-2-0.4c-0.6-0.2-1.1-0.6-1.6-1.1c-0.4-0.5-0.8-1.1-1-1.8c-0.3-0.7-0.4-1.5-0.4-2.4c0-0.7,0.1-1.4,0.3-2.1
		c0.2-0.6,0.6-1.2,1-1.7c0.4-0.5,0.9-0.8,1.6-1.1c0.6-0.3,1.3-0.4,2.1-0.4c0.6,0,1.2,0.1,1.8,0.3c0.5,0.2,1,0.5,1.4,0.9
		c0.4,0.4,0.7,0.9,0.9,1.5c0.2,0.6,0.3,1.3,0.3,2c0,0.3,0,0.5-0.1,0.6c-0.1,0.1-0.2,0.1-0.4,0.1h-7.1c0,0.7,0.1,1.2,0.3,1.7
		c0.2,0.5,0.4,0.9,0.7,1.2c0.3,0.3,0.6,0.6,1,0.7c0.4,0.2,0.9,0.2,1.4,0.2c0.5,0,0.9-0.1,1.2-0.2c0.3-0.1,0.6-0.2,0.9-0.4
		c0.2-0.1,0.4-0.2,0.6-0.3c0.2-0.1,0.3-0.2,0.4-0.2c0.2,0,0.3,0.1,0.4,0.2L1253.8,168z M1252.3,163c0-0.4-0.1-0.8-0.2-1.2
		c-0.1-0.4-0.3-0.7-0.5-0.9c-0.2-0.3-0.5-0.5-0.9-0.6c-0.3-0.1-0.7-0.2-1.1-0.2c-0.9,0-1.6,0.3-2.1,0.8c-0.5,0.5-0.8,1.2-1,2.2
		H1252.3z"/>
	<path fill="#282561" d="M1258,161c0.3-0.7,0.7-1.3,1.2-1.7c0.5-0.4,1.1-0.6,1.8-0.6c0.2,0,0.4,0,0.6,0.1c0.2,0,0.4,0.1,0.5,0.2
		l-0.1,1.4c0,0.2-0.1,0.3-0.3,0.3c-0.1,0-0.2,0-0.4-0.1c-0.2,0-0.4-0.1-0.6-0.1c-0.3,0-0.6,0-0.9,0.1c-0.3,0.1-0.5,0.2-0.7,0.4
		c-0.2,0.2-0.4,0.4-0.6,0.7c-0.2,0.3-0.3,0.6-0.4,1v6.7h-1.9v-10.6h1.1c0.2,0,0.3,0,0.4,0.1c0.1,0.1,0.1,0.2,0.2,0.4L1258,161z"/>
	<path fill="#282561" d="M1269.9,160.6c-0.1,0.2-0.2,0.2-0.4,0.2c-0.1,0-0.2,0-0.4-0.1c-0.1-0.1-0.3-0.2-0.5-0.3
		c-0.2-0.1-0.4-0.2-0.7-0.3s-0.6-0.1-0.9-0.1c-0.3,0-0.6,0-0.8,0.1c-0.3,0.1-0.5,0.2-0.6,0.3c-0.2,0.1-0.3,0.3-0.4,0.5
		c-0.1,0.2-0.1,0.4-0.1,0.6c0,0.3,0.1,0.5,0.2,0.7c0.2,0.2,0.4,0.3,0.6,0.5c0.3,0.1,0.6,0.2,0.9,0.4c0.3,0.1,0.7,0.2,1,0.3
		c0.3,0.1,0.7,0.2,1,0.4c0.3,0.1,0.6,0.3,0.9,0.5c0.3,0.2,0.5,0.5,0.6,0.8c0.2,0.3,0.2,0.7,0.2,1.1c0,0.5-0.1,0.9-0.3,1.4
		c-0.2,0.4-0.4,0.8-0.8,1.1c-0.3,0.3-0.8,0.5-1.3,0.7c-0.5,0.2-1.1,0.3-1.7,0.3c-0.7,0-1.4-0.1-2-0.4c-0.6-0.2-1.1-0.5-1.5-0.9
		l0.4-0.7c0.1-0.1,0.1-0.2,0.2-0.2c0.1,0,0.2-0.1,0.3-0.1c0.1,0,0.3,0,0.4,0.1c0.1,0.1,0.3,0.2,0.5,0.3c0.2,0.1,0.4,0.2,0.7,0.3
		c0.3,0.1,0.6,0.1,1.1,0.1c0.4,0,0.7,0,1-0.1c0.3-0.1,0.5-0.2,0.7-0.4s0.3-0.3,0.4-0.6c0.1-0.2,0.1-0.4,0.1-0.7
		c0-0.3-0.1-0.5-0.2-0.7c-0.2-0.2-0.4-0.4-0.6-0.5c-0.3-0.1-0.6-0.3-0.9-0.4c-0.3-0.1-0.7-0.2-1-0.3c-0.3-0.1-0.7-0.2-1-0.4
		c-0.3-0.1-0.6-0.3-0.9-0.5c-0.3-0.2-0.5-0.5-0.6-0.8c-0.2-0.3-0.2-0.7-0.2-1.2c0-0.4,0.1-0.8,0.3-1.2c0.2-0.4,0.4-0.7,0.7-1
		c0.3-0.3,0.7-0.5,1.2-0.7c0.5-0.2,1-0.3,1.6-0.3c0.7,0,1.3,0.1,1.9,0.3c0.6,0.2,1,0.5,1.4,0.9L1269.9,160.6z"/>
	<path fill="#282561" d="M1274.7,160.3c0.5-0.5,1-0.9,1.5-1.1s1.2-0.4,1.9-0.4c0.6,0,1.1,0.1,1.5,0.3c0.4,0.2,0.8,0.5,1.1,0.8
		c0.3,0.4,0.5,0.8,0.7,1.3c0.2,0.5,0.2,1,0.2,1.6v6.7h-1.9v-6.7c0-0.8-0.2-1.4-0.5-1.9c-0.4-0.4-0.9-0.7-1.7-0.7
		c-0.6,0-1.1,0.1-1.5,0.4c-0.5,0.3-0.9,0.6-1.3,1.1v7.8h-1.9v-15.4h1.9V160.3z"/>
	<path fill="#282561" d="M1286.8,155.5c0,0.2,0,0.4-0.1,0.5c-0.1,0.2-0.2,0.3-0.3,0.4c-0.1,0.1-0.3,0.2-0.4,0.3
		c-0.2,0.1-0.3,0.1-0.5,0.1s-0.3,0-0.5-0.1c-0.2-0.1-0.3-0.2-0.4-0.3c-0.1-0.1-0.2-0.3-0.3-0.4s-0.1-0.3-0.1-0.5
		c0-0.2,0-0.4,0.1-0.5c0.1-0.2,0.2-0.3,0.3-0.4c0.1-0.1,0.3-0.2,0.4-0.3c0.2-0.1,0.3-0.1,0.5-0.1s0.4,0,0.5,0.1
		c0.2,0.1,0.3,0.2,0.4,0.3c0.1,0.1,0.2,0.3,0.3,0.4C1286.8,155.2,1286.8,155.4,1286.8,155.5z M1286.4,158.9v10.6h-1.9v-10.6H1286.4z
		"/>
	<path fill="#282561" d="M1291.2,160.5c0.4-0.6,1-1,1.5-1.3c0.6-0.3,1.3-0.5,2-0.5c0.6,0,1.2,0.1,1.7,0.3c0.5,0.2,0.9,0.6,1.3,1
		c0.3,0.5,0.6,1,0.8,1.7c0.2,0.7,0.3,1.5,0.3,2.3c0,0.8-0.1,1.5-0.3,2.2c-0.2,0.7-0.5,1.3-0.9,1.7c-0.4,0.5-0.9,0.9-1.4,1.2
		c-0.6,0.3-1.2,0.4-1.9,0.4c-0.6,0-1.2-0.1-1.7-0.3c-0.5-0.2-0.9-0.5-1.2-0.9v4.7h-1.9v-14.2h1.1c0.3,0,0.4,0.1,0.5,0.4
		L1291.2,160.5z M1291.3,166.9c0.3,0.5,0.7,0.8,1.1,1c0.4,0.2,0.9,0.3,1.4,0.3c1,0,1.7-0.4,2.3-1.1c0.5-0.7,0.8-1.7,0.8-3
		c0-0.7-0.1-1.3-0.2-1.8c-0.1-0.5-0.3-0.9-0.5-1.2c-0.2-0.3-0.5-0.5-0.8-0.7c-0.3-0.1-0.7-0.2-1.1-0.2c-0.6,0-1.1,0.1-1.6,0.4
		c-0.5,0.3-0.9,0.7-1.3,1.2V166.9z"/>
	<path fill="#282561" d="M1315.3,154.1v15.4h-1.1c-0.3,0-0.4-0.1-0.5-0.4l-0.2-1.3c-0.5,0.5-1,1-1.5,1.3c-0.6,0.3-1.2,0.5-2,0.5
		c-0.6,0-1.2-0.1-1.7-0.4c-0.5-0.2-0.9-0.6-1.3-1c-0.3-0.5-0.6-1-0.8-1.7c-0.2-0.7-0.3-1.5-0.3-2.3c0-0.8,0.1-1.5,0.3-2.2
		c0.2-0.7,0.5-1.3,0.9-1.7c0.4-0.5,0.9-0.9,1.4-1.2c0.6-0.3,1.2-0.4,1.9-0.4c0.6,0,1.2,0.1,1.7,0.3s0.9,0.5,1.2,0.9v-5.9H1315.3z
		 M1313.4,161.4c-0.3-0.5-0.7-0.8-1.1-1s-0.9-0.3-1.4-0.3c-1,0-1.7,0.4-2.3,1.1c-0.5,0.7-0.8,1.7-0.8,3c0,0.7,0.1,1.3,0.2,1.8
		s0.3,0.9,0.5,1.2c0.2,0.3,0.5,0.5,0.8,0.7c0.3,0.1,0.7,0.2,1.1,0.2c0.6,0,1.1-0.1,1.6-0.4c0.5-0.3,0.9-0.7,1.3-1.2V161.4z"/>
	<path fill="#282561" d="M1326.8,168c-0.2,0.3-0.5,0.5-0.8,0.7c-0.3,0.2-0.7,0.4-1,0.5c-0.4,0.1-0.7,0.2-1.1,0.3
		c-0.4,0.1-0.8,0.1-1.2,0.1c-0.7,0-1.4-0.1-2-0.4c-0.6-0.2-1.1-0.6-1.6-1.1c-0.4-0.5-0.8-1.1-1-1.8c-0.3-0.7-0.4-1.5-0.4-2.4
		c0-0.7,0.1-1.4,0.3-2.1c0.2-0.6,0.6-1.2,1-1.7c0.4-0.5,0.9-0.8,1.6-1.1c0.6-0.3,1.3-0.4,2.1-0.4c0.6,0,1.2,0.1,1.8,0.3
		c0.5,0.2,1,0.5,1.4,0.9c0.4,0.4,0.7,0.9,0.9,1.5c0.2,0.6,0.3,1.3,0.3,2c0,0.3,0,0.5-0.1,0.6c-0.1,0.1-0.2,0.1-0.4,0.1h-7.1
		c0,0.7,0.1,1.2,0.3,1.7c0.2,0.5,0.4,0.9,0.7,1.2c0.3,0.3,0.6,0.6,1,0.7c0.4,0.2,0.9,0.2,1.4,0.2c0.5,0,0.9-0.1,1.2-0.2
		c0.3-0.1,0.6-0.2,0.9-0.4c0.2-0.1,0.4-0.2,0.6-0.3c0.2-0.1,0.3-0.2,0.4-0.2c0.2,0,0.3,0.1,0.4,0.2L1326.8,168z M1325.3,163
		c0-0.4-0.1-0.8-0.2-1.2c-0.1-0.4-0.3-0.7-0.5-0.9c-0.2-0.3-0.5-0.5-0.9-0.6c-0.3-0.1-0.7-0.2-1.1-0.2c-0.9,0-1.6,0.3-2.1,0.8
		c-0.5,0.5-0.8,1.2-1,2.2H1325.3z"/>
	<path fill="#282561" d="M1338.1,158.9l-4.3,10.6h-1.7l-4.3-10.6h1.5c0.2,0,0.3,0,0.4,0.1c0.1,0.1,0.2,0.2,0.2,0.3l2.7,6.8
		c0.1,0.3,0.2,0.5,0.2,0.8c0.1,0.2,0.1,0.5,0.2,0.7c0.1-0.2,0.1-0.5,0.2-0.7c0.1-0.2,0.1-0.5,0.2-0.8l2.7-6.8c0-0.1,0.1-0.2,0.2-0.3
		c0.1-0.1,0.2-0.1,0.3-0.1H1338.1z"/>
	<path fill="#282561" d="M1348.1,168c-0.2,0.3-0.5,0.5-0.8,0.7c-0.3,0.2-0.7,0.4-1,0.5c-0.4,0.1-0.7,0.2-1.1,0.3
		c-0.4,0.1-0.8,0.1-1.2,0.1c-0.7,0-1.4-0.1-2-0.4c-0.6-0.2-1.1-0.6-1.6-1.1c-0.4-0.5-0.8-1.1-1-1.8c-0.3-0.7-0.4-1.5-0.4-2.4
		c0-0.7,0.1-1.4,0.3-2.1c0.2-0.6,0.6-1.2,1-1.7c0.4-0.5,0.9-0.8,1.6-1.1c0.6-0.3,1.3-0.4,2.1-0.4c0.6,0,1.2,0.1,1.8,0.3
		c0.5,0.2,1,0.5,1.4,0.9c0.4,0.4,0.7,0.9,0.9,1.5c0.2,0.6,0.3,1.3,0.3,2c0,0.3,0,0.5-0.1,0.6c-0.1,0.1-0.2,0.1-0.4,0.1h-7.1
		c0,0.7,0.1,1.2,0.3,1.7c0.2,0.5,0.4,0.9,0.7,1.2c0.3,0.3,0.6,0.6,1,0.7c0.4,0.2,0.9,0.2,1.4,0.2c0.5,0,0.9-0.1,1.2-0.2
		c0.3-0.1,0.6-0.2,0.9-0.4c0.2-0.1,0.4-0.2,0.6-0.3c0.2-0.1,0.3-0.2,0.4-0.2c0.2,0,0.3,0.1,0.4,0.2L1348.1,168z M1346.6,163
		c0-0.4-0.1-0.8-0.2-1.2c-0.1-0.4-0.3-0.7-0.5-0.9c-0.2-0.3-0.5-0.5-0.9-0.6c-0.3-0.1-0.7-0.2-1.1-0.2c-0.9,0-1.6,0.3-2.1,0.8
		c-0.5,0.5-0.8,1.2-1,2.2H1346.6z"/>
	<path fill="#282561" d="M1352.4,154.1v15.4h-1.9v-15.4H1352.4z"/>
	<path fill="#282561" d="M1359.9,158.7c0.8,0,1.5,0.1,2.1,0.4s1.1,0.6,1.6,1.1c0.4,0.5,0.8,1,1,1.7c0.2,0.7,0.3,1.4,0.3,2.3
		c0,0.8-0.1,1.6-0.3,2.3s-0.6,1.2-1,1.7c-0.4,0.5-1,0.8-1.6,1.1c-0.6,0.3-1.3,0.4-2.1,0.4c-0.8,0-1.5-0.1-2.1-0.4
		c-0.6-0.3-1.2-0.6-1.6-1.1c-0.4-0.5-0.8-1-1-1.7s-0.3-1.4-0.3-2.3c0-0.8,0.1-1.6,0.3-2.3c0.2-0.7,0.6-1.2,1-1.7
		c0.4-0.5,1-0.8,1.6-1.1C1358.4,158.8,1359.1,158.7,1359.9,158.7z M1359.9,168.1c1,0,1.8-0.3,2.3-1c0.5-0.7,0.8-1.7,0.8-2.9
		c0-1.3-0.3-2.2-0.8-2.9c-0.5-0.7-1.3-1.1-2.3-1.1c-0.5,0-1,0.1-1.4,0.3c-0.4,0.2-0.7,0.4-1,0.8c-0.3,0.3-0.5,0.8-0.6,1.3
		c-0.1,0.5-0.2,1.1-0.2,1.7c0,1.3,0.3,2.2,0.8,2.9C1358,167.8,1358.8,168.1,1359.9,168.1z"/>
	<path fill="#282561" d="M1369.1,160.5c0.4-0.6,1-1,1.5-1.3c0.6-0.3,1.3-0.5,2-0.5c0.6,0,1.2,0.1,1.7,0.3c0.5,0.2,0.9,0.6,1.3,1
		c0.3,0.5,0.6,1,0.8,1.7c0.2,0.7,0.3,1.5,0.3,2.3c0,0.8-0.1,1.5-0.3,2.2c-0.2,0.7-0.5,1.3-0.9,1.7c-0.4,0.5-0.9,0.9-1.4,1.2
		c-0.6,0.3-1.2,0.4-1.9,0.4c-0.6,0-1.2-0.1-1.7-0.3c-0.5-0.2-0.9-0.5-1.2-0.9v4.7h-1.9v-14.2h1.1c0.3,0,0.4,0.1,0.5,0.4
		L1369.1,160.5z M1369.1,166.9c0.3,0.5,0.7,0.8,1.1,1c0.4,0.2,0.9,0.3,1.4,0.3c1,0,1.7-0.4,2.3-1.1c0.5-0.7,0.8-1.7,0.8-3
		c0-0.7-0.1-1.3-0.2-1.8c-0.1-0.5-0.3-0.9-0.5-1.2c-0.2-0.3-0.5-0.5-0.8-0.7c-0.3-0.1-0.7-0.2-1.1-0.2c-0.6,0-1.1,0.1-1.6,0.4
		c-0.5,0.3-0.9,0.7-1.3,1.2V166.9z"/>
	<path fill="#282561" d="M1379,169.4v-10.6h1.1c0.3,0,0.4,0.1,0.5,0.4l0.1,1.1c0.4-0.5,0.8-0.9,1.3-1.2c0.5-0.3,1.1-0.5,1.7-0.5
		c0.7,0,1.3,0.2,1.7,0.6c0.4,0.4,0.8,0.9,1,1.6c0.2-0.4,0.3-0.7,0.6-1c0.2-0.3,0.5-0.5,0.8-0.7c0.3-0.2,0.6-0.3,1-0.4
		c0.3-0.1,0.7-0.1,1-0.1c0.6,0,1.1,0.1,1.5,0.3c0.4,0.2,0.8,0.4,1.1,0.8c0.3,0.3,0.5,0.8,0.7,1.3c0.2,0.5,0.2,1.1,0.2,1.7v6.7h-1.9
		v-6.7c0-0.8-0.2-1.5-0.5-1.9c-0.4-0.4-0.9-0.6-1.6-0.6c-0.3,0-0.6,0.1-0.9,0.2c-0.3,0.1-0.5,0.3-0.7,0.5c-0.2,0.2-0.4,0.5-0.5,0.8
		c-0.1,0.3-0.2,0.7-0.2,1.1v6.7h-1.9v-6.7c0-0.8-0.2-1.5-0.5-1.9c-0.3-0.4-0.8-0.6-1.5-0.6c-0.5,0-0.9,0.1-1.3,0.4
		c-0.4,0.2-0.7,0.6-1.1,1v7.9H1379z"/>
	<path fill="#282561" d="M1404.7,168c-0.2,0.3-0.5,0.5-0.8,0.7c-0.3,0.2-0.7,0.4-1,0.5c-0.4,0.1-0.7,0.2-1.1,0.3
		c-0.4,0.1-0.8,0.1-1.2,0.1c-0.7,0-1.4-0.1-2-0.4c-0.6-0.2-1.1-0.6-1.6-1.1c-0.4-0.5-0.8-1.1-1-1.8c-0.3-0.7-0.4-1.5-0.4-2.4
		c0-0.7,0.1-1.4,0.3-2.1c0.2-0.6,0.6-1.2,1-1.7c0.4-0.5,0.9-0.8,1.6-1.1c0.6-0.3,1.3-0.4,2.1-0.4c0.6,0,1.2,0.1,1.8,0.3
		c0.5,0.2,1,0.5,1.4,0.9c0.4,0.4,0.7,0.9,0.9,1.5c0.2,0.6,0.3,1.3,0.3,2c0,0.3,0,0.5-0.1,0.6c-0.1,0.1-0.2,0.1-0.4,0.1h-7.1
		c0,0.7,0.1,1.2,0.3,1.7c0.2,0.5,0.4,0.9,0.7,1.2c0.3,0.3,0.6,0.6,1,0.7c0.4,0.2,0.9,0.2,1.4,0.2c0.5,0,0.9-0.1,1.2-0.2
		c0.3-0.1,0.6-0.2,0.9-0.4c0.2-0.1,0.4-0.2,0.6-0.3c0.2-0.1,0.3-0.2,0.4-0.2c0.2,0,0.3,0.1,0.4,0.2L1404.7,168z M1403.2,163
		c0-0.4-0.1-0.8-0.2-1.2c-0.1-0.4-0.3-0.7-0.5-0.9c-0.2-0.3-0.5-0.5-0.9-0.6c-0.3-0.1-0.7-0.2-1.1-0.2c-0.9,0-1.6,0.3-2.1,0.8
		c-0.5,0.5-0.8,1.2-1,2.2H1403.2z"/>
	<path fill="#282561" d="M1408.9,160.4c0.2-0.3,0.5-0.5,0.7-0.7c0.3-0.2,0.5-0.4,0.8-0.5c0.3-0.1,0.6-0.3,0.9-0.3
		c0.3-0.1,0.7-0.1,1-0.1c0.6,0,1.1,0.1,1.5,0.3c0.4,0.2,0.8,0.5,1.1,0.8s0.5,0.8,0.7,1.3c0.2,0.5,0.2,1,0.2,1.6v6.7h-1.9v-6.7
		c0-0.8-0.2-1.4-0.5-1.9c-0.4-0.4-0.9-0.7-1.7-0.7c-0.6,0-1.1,0.1-1.5,0.4c-0.5,0.3-0.9,0.6-1.3,1.1v7.8h-1.9v-10.6h1.1
		c0.3,0,0.4,0.1,0.5,0.4L1408.9,160.4z"/>
	<path fill="#282561" d="M1421.9,169.6c-0.8,0-1.5-0.2-1.9-0.7c-0.4-0.5-0.7-1.1-0.7-2v-6.5h-1.3c-0.1,0-0.2,0-0.3-0.1
		c-0.1-0.1-0.1-0.2-0.1-0.3v-0.7l1.7-0.2l0.4-3.3c0-0.1,0.1-0.2,0.1-0.3c0.1-0.1,0.2-0.1,0.3-0.1h0.9v3.6h3.1v1.3h-3.1v6.3
		c0,0.4,0.1,0.8,0.3,1c0.2,0.2,0.5,0.3,0.8,0.3c0.2,0,0.4,0,0.5-0.1c0.1-0.1,0.3-0.1,0.4-0.2c0.1-0.1,0.2-0.1,0.3-0.2
		s0.1-0.1,0.2-0.1c0.1,0,0.2,0.1,0.3,0.2l0.5,0.9c-0.3,0.3-0.7,0.5-1.2,0.7C1422.9,169.5,1422.4,169.6,1421.9,169.6z"/>
</g>
<path fill="none" stroke="#000000" stroke-width="3" stroke-miterlimit="10" stroke-dasharray="12" d="M782.2,441.9
	c0,0,333.6-133.2,503-346.4"/>
<g>
	<path d="M1444.3,517.6h-4.2v11h-0.2v-11h-4.2v-0.2h8.6V517.6z"/>
	<path d="M1446.7,517.8c0,0.1,0,0.2-0.1,0.3c-0.1,0.1-0.2,0.1-0.3,0.1c-0.1,0-0.2,0-0.3-0.1c-0.1-0.1-0.1-0.2-0.1-0.3
		c0-0.1,0-0.2,0.1-0.3c0.1-0.1,0.2-0.1,0.3-0.1c0.1,0,0.2,0,0.3,0.1C1446.6,517.6,1446.7,517.7,1446.7,517.8z M1446.3,520.8v7.8
		h-0.2v-7.8H1446.3z"/>
	<path d="M1449.4,528.6v-7.8h0c0.1,0,0.1,0,0.1,0.1l0,1.5c0.3-0.5,0.7-0.9,1.1-1.3c0.4-0.3,0.9-0.5,1.4-0.5c0.6,0,1.1,0.2,1.5,0.6
		c0.4,0.4,0.6,0.9,0.7,1.7c0.1-0.4,0.2-0.7,0.3-1s0.3-0.5,0.6-0.7c0.2-0.2,0.5-0.3,0.7-0.4c0.3-0.1,0.6-0.1,0.9-0.1
		c0.4,0,0.7,0.1,1,0.2c0.3,0.1,0.6,0.3,0.8,0.6c0.2,0.2,0.4,0.6,0.5,0.9c0.1,0.4,0.2,0.8,0.2,1.3v5h-0.2v-5c0-0.9-0.2-1.6-0.6-2.1
		c-0.4-0.5-0.9-0.7-1.6-0.7c-0.3,0-0.6,0.1-0.9,0.2c-0.3,0.1-0.5,0.3-0.8,0.5c-0.2,0.2-0.4,0.5-0.5,0.9s-0.2,0.8-0.2,1.2v5h-0.2v-5
		c0-0.4,0-0.8-0.1-1.2c-0.1-0.3-0.2-0.6-0.4-0.9s-0.4-0.4-0.6-0.5c-0.3-0.1-0.5-0.2-0.9-0.2c-0.5,0-1,0.2-1.4,0.5s-0.8,0.8-1.1,1.3
		v6H1449.4z"/>
	<path d="M1467.7,527.7c-0.1,0.1-0.2,0.2-0.4,0.3c-0.2,0.1-0.4,0.2-0.6,0.3s-0.5,0.2-0.8,0.2c-0.3,0.1-0.6,0.1-0.9,0.1
		c-0.5,0-1-0.1-1.4-0.3s-0.8-0.5-1.1-0.8c-0.3-0.4-0.5-0.8-0.7-1.3c-0.2-0.5-0.2-1.1-0.2-1.8c0-0.6,0.1-1.1,0.2-1.6
		c0.2-0.5,0.4-0.9,0.7-1.2c0.3-0.3,0.7-0.6,1.1-0.8c0.4-0.2,0.9-0.3,1.4-0.3c0.4,0,0.8,0.1,1.2,0.2c0.4,0.1,0.7,0.4,0.9,0.7
		c0.3,0.3,0.5,0.6,0.6,1.1c0.2,0.4,0.2,0.9,0.2,1.4c0,0,0,0,0,0.1c0,0,0,0-0.1,0h-6.1c0,0.1,0,0.1,0,0.2c0,0.1,0,0.1,0,0.2
		c0,0.7,0.1,1.2,0.2,1.7c0.2,0.5,0.4,0.9,0.7,1.3c0.3,0.3,0.6,0.6,1,0.8c0.4,0.2,0.8,0.3,1.3,0.3c0.4,0,0.8,0,1.1-0.1
		c0.3-0.1,0.6-0.2,0.8-0.3c0.2-0.1,0.4-0.2,0.5-0.3C1467.5,527.6,1467.6,527.6,1467.7,527.7C1467.6,527.6,1467.6,527.6,1467.7,527.7
		L1467.7,527.7z M1467.7,523.9c0-0.5-0.1-1-0.2-1.3c-0.1-0.4-0.3-0.7-0.6-1s-0.6-0.5-0.9-0.6c-0.3-0.1-0.7-0.2-1.1-0.2
		c-0.5,0-0.9,0.1-1.3,0.2c-0.4,0.1-0.7,0.4-1,0.6c-0.3,0.3-0.5,0.6-0.7,1c-0.2,0.4-0.3,0.8-0.3,1.3H1467.7z"/>
</g>
</svg>
