<?xml version="1.0" encoding="utf-8"?>
<!-- Generator: Adobe Illustrator 18.0.0, SVG Export Plug-In . SVG Version: 6.00 Build 0)  -->
<!DOCTYPE svg PUBLIC "-//W3C//DTD SVG 1.1//EN" "http://www.w3.org/Graphics/SVG/1.1/DTD/svg11.dtd">
<svg version="1.1" id="Layer_1" xmlns="http://www.w3.org/2000/svg" xmlns:xlink="http://www.w3.org/1999/xlink" x="0px" y="0px"
	 viewBox="0 0 1668.8 560.6" enable-background="new 0 0 1668.8 560.6" xml:space="preserve">
<g>
	<g>
		
			<linearGradient id="SVGID_1_" gradientUnits="userSpaceOnUse" x1="0" y1="-3842.6357" x2="1668.8311" y2="-3842.6357" gradientTransform="matrix(1 0 0 -1 0 -3562.3481)">
			<stop  offset="0" style="stop-color:#F3F3F3"/>
			<stop  offset="0.5" style="stop-color:#FFFFFF"/>
			<stop  offset="1" style="stop-color:#F3F3F3"/>
		</linearGradient>
		<rect x="0" y="0" fill="url(#SVGID_1_)" width="1668.8" height="560.6"/>
		<g>
			<g>
				<line fill="none" stroke="#9ACBE0" stroke-width="0.9092" stroke-miterlimit="10" x1="0" y1="524" x2="1668.8" y2="524"/>
				<line fill="none" stroke="#9ACBE0" stroke-width="0.9092" stroke-miterlimit="10" x1="0" y1="489.2" x2="1668.8" y2="489.2"/>
				<line fill="none" stroke="#9ACBE0" stroke-width="0.9092" stroke-miterlimit="10" x1="0" y1="454.4" x2="1668.8" y2="454.4"/>
				<line fill="none" stroke="#9ACBE0" stroke-width="0.9092" stroke-miterlimit="10" x1="0" y1="419.5" x2="1668.8" y2="419.5"/>
				<line fill="none" stroke="#9ACBE0" stroke-width="0.9092" stroke-miterlimit="10" x1="0" y1="384.7" x2="1668.8" y2="384.7"/>
				<line fill="none" stroke="#9ACBE0" stroke-width="0.9092" stroke-miterlimit="10" x1="0" y1="349.9" x2="1668.8" y2="349.9"/>
				<line fill="none" stroke="#9ACBE0" stroke-width="0.9092" stroke-miterlimit="10" x1="0" y1="315.1" x2="1668.8" y2="315.1"/>
				<line fill="none" stroke="#9ACBE0" stroke-width="0.9092" stroke-miterlimit="10" x1="0" y1="280.3" x2="1668.8" y2="280.3"/>
				<line fill="none" stroke="#9ACBE0" stroke-width="0.9092" stroke-miterlimit="10" x1="0" y1="245.5" x2="1668.8" y2="245.5"/>
				<line fill="none" stroke="#9ACBE0" stroke-width="0.9092" stroke-miterlimit="10" x1="0" y1="210.7" x2="1668.8" y2="210.7"/>
				<line fill="none" stroke="#9ACBE0" stroke-width="0.9092" stroke-miterlimit="10" x1="0" y1="175.8" x2="1668.8" y2="175.8"/>
				<line fill="none" stroke="#9ACBE0" stroke-width="0.9092" stroke-miterlimit="10" x1="0" y1="141" x2="1668.8" y2="141"/>
				<line fill="none" stroke="#9ACBE0" stroke-width="0.9092" stroke-miterlimit="10" x1="0" y1="106.2" x2="1668.8" y2="106.2"/>
				<line fill="none" stroke="#9ACBE0" stroke-width="0.9092" stroke-miterlimit="10" x1="0" y1="71.4" x2="1668.8" y2="71.4"/>
				<line fill="none" stroke="#9ACBE0" stroke-width="0.9092" stroke-miterlimit="10" x1="0" y1="36.6" x2="1668.8" y2="36.6"/>
			</g>
			<g>
				<line fill="none" stroke="#9ACBE0" stroke-width="0.9092" stroke-miterlimit="10" x1="34.8" y1="0" x2="34.8" y2="560.6"/>
				<line fill="none" stroke="#9ACBE0" stroke-width="0.9092" stroke-miterlimit="10" x1="69.6" y1="0" x2="69.6" y2="560.6"/>
				<line fill="none" stroke="#9ACBE0" stroke-width="0.9092" stroke-miterlimit="10" x1="104.4" y1="0" x2="104.4" y2="560.6"/>
				<line fill="none" stroke="#9ACBE0" stroke-width="0.9092" stroke-miterlimit="10" x1="139.3" y1="0" x2="139.3" y2="560.6"/>
				<line fill="none" stroke="#BF8688" stroke-width="0.9092" stroke-miterlimit="10" x1="174.1" y1="0" x2="174.1" y2="560.6"/>
				<line fill="none" stroke="#9ACBE0" stroke-width="0.9092" stroke-miterlimit="10" x1="208.9" y1="0" x2="208.9" y2="560.6"/>
				<line fill="none" stroke="#9ACBE0" stroke-width="0.9092" stroke-miterlimit="10" x1="243.7" y1="0" x2="243.7" y2="560.6"/>
				<line fill="none" stroke="#9ACBE0" stroke-width="0.9092" stroke-miterlimit="10" x1="278.5" y1="0" x2="278.5" y2="560.6"/>
				<line fill="none" stroke="#9ACBE0" stroke-width="0.9092" stroke-miterlimit="10" x1="313.3" y1="0" x2="313.3" y2="560.6"/>
				<line fill="none" stroke="#9ACBE0" stroke-width="0.9092" stroke-miterlimit="10" x1="348.1" y1="0" x2="348.1" y2="560.6"/>
				<line fill="none" stroke="#9ACBE0" stroke-width="0.9092" stroke-miterlimit="10" x1="382.9" y1="0" x2="382.9" y2="560.6"/>
				<line fill="none" stroke="#9ACBE0" stroke-width="0.9092" stroke-miterlimit="10" x1="417.8" y1="0" x2="417.8" y2="560.6"/>
				<line fill="none" stroke="#9ACBE0" stroke-width="0.9092" stroke-miterlimit="10" x1="452.6" y1="0" x2="452.6" y2="560.6"/>
				<line fill="none" stroke="#9ACBE0" stroke-width="0.9092" stroke-miterlimit="10" x1="487.4" y1="0" x2="487.4" y2="560.6"/>
				<line fill="none" stroke="#9ACBE0" stroke-width="0.9092" stroke-miterlimit="10" x1="522.2" y1="0" x2="522.2" y2="560.6"/>
			</g>
			<g>
				<line fill="none" stroke="#9ACBE0" stroke-width="0.9092" stroke-miterlimit="10" x1="522.2" y1="0" x2="522.2" y2="560.6"/>
				<line fill="none" stroke="#9ACBE0" stroke-width="0.9092" stroke-miterlimit="10" x1="557" y1="0" x2="557" y2="560.6"/>
				<line fill="none" stroke="#9ACBE0" stroke-width="0.9092" stroke-miterlimit="10" x1="591.8" y1="0" x2="591.8" y2="560.6"/>
				<line fill="none" stroke="#9ACBE0" stroke-width="0.9092" stroke-miterlimit="10" x1="626.6" y1="0" x2="626.6" y2="560.6"/>
				<line fill="none" stroke="#9ACBE0" stroke-width="0.9092" stroke-miterlimit="10" x1="661.5" y1="0" x2="661.5" y2="560.6"/>
				<line fill="none" stroke="#9ACBE0" stroke-width="0.9092" stroke-miterlimit="10" x1="696.3" y1="0" x2="696.3" y2="560.6"/>
				<line fill="none" stroke="#9ACBE0" stroke-width="0.9092" stroke-miterlimit="10" x1="731.1" y1="0" x2="731.1" y2="560.6"/>
				<line fill="none" stroke="#9ACBE0" stroke-width="0.9092" stroke-miterlimit="10" x1="765.9" y1="0" x2="765.9" y2="560.6"/>
				<line fill="none" stroke="#9ACBE0" stroke-width="0.9092" stroke-miterlimit="10" x1="800.7" y1="0" x2="800.7" y2="560.6"/>
				<line fill="none" stroke="#9ACBE0" stroke-width="0.9092" stroke-miterlimit="10" x1="835.5" y1="0" x2="835.5" y2="560.6"/>
				<line fill="none" stroke="#9ACBE0" stroke-width="0.9092" stroke-miterlimit="10" x1="870.3" y1="0" x2="870.3" y2="560.6"/>
				<line fill="none" stroke="#9ACBE0" stroke-width="0.9092" stroke-miterlimit="10" x1="905.1" y1="0" x2="905.1" y2="560.6"/>
				<line fill="none" stroke="#9ACBE0" stroke-width="0.9092" stroke-miterlimit="10" x1="940" y1="0" x2="940" y2="560.6"/>
				<line fill="none" stroke="#9ACBE0" stroke-width="0.9092" stroke-miterlimit="10" x1="974.8" y1="0" x2="974.8" y2="560.6"/>
				<line fill="none" stroke="#9ACBE0" stroke-width="0.9092" stroke-miterlimit="10" x1="1009.6" y1="0" x2="1009.6" y2="560.6"/>
			</g>
			<g>
				<line fill="none" stroke="#9ACBE0" stroke-width="0.9092" stroke-miterlimit="10" x1="1009.6" y1="0" x2="1009.6" y2="560.6"/>
				<line fill="none" stroke="#9ACBE0" stroke-width="0.9092" stroke-miterlimit="10" x1="1044.4" y1="0" x2="1044.4" y2="560.6"/>
				<line fill="none" stroke="#9ACBE0" stroke-width="0.9092" stroke-miterlimit="10" x1="1079.2" y1="0" x2="1079.2" y2="560.6"/>
				<line fill="none" stroke="#9ACBE0" stroke-width="0.9092" stroke-miterlimit="10" x1="1114" y1="0" x2="1114" y2="560.6"/>
				<line fill="none" stroke="#9ACBE0" stroke-width="0.9092" stroke-miterlimit="10" x1="1148.8" y1="0" x2="1148.8" y2="560.6"/>
				<line fill="none" stroke="#9ACBE0" stroke-width="0.9092" stroke-miterlimit="10" x1="1183.6" y1="0" x2="1183.6" y2="560.6"/>
				<line fill="none" stroke="#9ACBE0" stroke-width="0.9092" stroke-miterlimit="10" x1="1218.5" y1="0" x2="1218.5" y2="560.6"/>
				<line fill="none" stroke="#9ACBE0" stroke-width="0.9092" stroke-miterlimit="10" x1="1253.3" y1="0" x2="1253.3" y2="560.6"/>
				<line fill="none" stroke="#9ACBE0" stroke-width="0.9092" stroke-miterlimit="10" x1="1288.1" y1="0" x2="1288.1" y2="560.6"/>
				<line fill="none" stroke="#9ACBE0" stroke-width="0.9092" stroke-miterlimit="10" x1="1322.9" y1="0" x2="1322.9" y2="560.6"/>
				<line fill="none" stroke="#9ACBE0" stroke-width="0.9092" stroke-miterlimit="10" x1="1357.7" y1="0" x2="1357.7" y2="560.6"/>
				<line fill="none" stroke="#9ACBE0" stroke-width="0.9092" stroke-miterlimit="10" x1="1392.5" y1="0" x2="1392.5" y2="560.6"/>
				<line fill="none" stroke="#9ACBE0" stroke-width="0.9092" stroke-miterlimit="10" x1="1427.3" y1="0" x2="1427.3" y2="560.6"/>
				<line fill="none" stroke="#9ACBE0" stroke-width="0.9092" stroke-miterlimit="10" x1="1462.2" y1="0" x2="1462.2" y2="560.6"/>
				<line fill="none" stroke="#9ACBE0" stroke-width="0.9092" stroke-miterlimit="10" x1="1497" y1="0" x2="1497" y2="560.6"/>
			</g>
			<g>
				<line fill="none" stroke="#9ACBE0" stroke-width="0.9092" stroke-miterlimit="10" x1="1497" y1="0" x2="1497" y2="560.6"/>
				<line fill="none" stroke="#9ACBE0" stroke-width="0.9092" stroke-miterlimit="10" x1="1531.8" y1="0" x2="1531.8" y2="560.6"/>
				<line fill="none" stroke="#9ACBE0" stroke-width="0.9092" stroke-miterlimit="10" x1="1566.6" y1="0" x2="1566.6" y2="560.6"/>
				<line fill="none" stroke="#9ACBE0" stroke-width="0.9092" stroke-miterlimit="10" x1="1601.4" y1="0" x2="1601.4" y2="560.6"/>
				<line fill="none" stroke="#9ACBE0" stroke-width="0.9092" stroke-miterlimit="10" x1="1636.2" y1="0" x2="1636.2" y2="560.6"/>
			</g>
		</g>
	</g>
</g>
<path fill="none" stroke="#000000" stroke-width="3" stroke-miterlimit="10" stroke-dasharray="12" d="M778.3,450.7
	c0,0,118-363.4,494.7-346.4"/>
<g>
	<g>
		<line fill="none" stroke="#010101" stroke-width="2" stroke-miterlimit="10" x1="709.3" y1="500.6" x2="709.3" y2="67.1"/>
		<line fill="none" stroke="#010101" stroke-width="2" stroke-miterlimit="10" x1="709.6" y1="501.6" x2="1438.6" y2="501.6"/>
		<polygon fill="#010101" points="709.5,45 695.6,78.5 709.5,71.2 723.6,78.5 		"/>
		<polygon fill="#010101" points="1457.5,501.1 1423.8,487.6 1431.2,501.4 1424.1,515.6 		"/>
	</g>
	<circle id="first-dot" fill="#29ABE2" cx="778.3" cy="450.7" r="8.2"/>
	<g>
		<path fill="#282561" d="M805.5,457.7c0.6,0,1.1-0.1,1.5-0.3c0.4-0.2,0.8-0.5,1.1-0.8c0.3-0.3,0.5-0.7,0.7-1.2
			c0.2-0.5,0.2-1,0.2-1.6v-8.2h1.8v8.2c0,0.8-0.1,1.5-0.4,2.2c-0.2,0.7-0.6,1.2-1.1,1.7c-0.5,0.5-1,0.9-1.7,1.1s-1.4,0.4-2.2,0.4
			c-0.8,0-1.6-0.1-2.2-0.4s-1.2-0.7-1.7-1.1c-0.5-0.5-0.8-1.1-1.1-1.7c-0.2-0.7-0.4-1.4-0.4-2.2v-8.2h1.8v8.2c0,0.6,0.1,1.1,0.2,1.6
			c0.2,0.5,0.4,0.9,0.7,1.2c0.3,0.3,0.7,0.6,1.1,0.8C804.4,457.6,804.9,457.7,805.5,457.7z"/>
		<path fill="#282561" d="M815.1,451c0.2-0.2,0.4-0.4,0.7-0.6c0.2-0.2,0.5-0.4,0.7-0.5c0.3-0.1,0.5-0.2,0.8-0.3
			c0.3-0.1,0.6-0.1,0.9-0.1c0.5,0,1,0.1,1.4,0.3c0.4,0.2,0.7,0.4,1,0.7c0.3,0.3,0.5,0.7,0.6,1.1c0.1,0.4,0.2,0.9,0.2,1.5v6.1h-1.7
			V453c0-0.7-0.2-1.3-0.5-1.7c-0.3-0.4-0.8-0.6-1.5-0.6c-0.5,0-1,0.1-1.4,0.4c-0.4,0.2-0.8,0.6-1.2,1v7h-1.7v-9.5h1
			c0.2,0,0.4,0.1,0.4,0.3L815.1,451z"/>
		<path fill="#282561" d="M831.9,445.2v13.9h-1c-0.2,0-0.4-0.1-0.5-0.3l-0.2-1.2c-0.4,0.5-0.9,0.9-1.4,1.2c-0.5,0.3-1.1,0.5-1.8,0.5
			c-0.5,0-1-0.1-1.5-0.3c-0.4-0.2-0.8-0.5-1.1-0.9c-0.3-0.4-0.6-0.9-0.7-1.5c-0.2-0.6-0.3-1.3-0.3-2.1c0-0.7,0.1-1.4,0.3-2
			c0.2-0.6,0.5-1.1,0.8-1.6c0.4-0.4,0.8-0.8,1.3-1c0.5-0.3,1.1-0.4,1.7-0.4c0.6,0,1.1,0.1,1.5,0.3c0.4,0.2,0.8,0.5,1.1,0.8v-5.3
			H831.9z M830.2,451.9c-0.3-0.4-0.7-0.7-1-0.9s-0.8-0.2-1.2-0.2c-0.9,0-1.6,0.3-2,1c-0.5,0.6-0.7,1.5-0.7,2.7
			c0,0.6,0.1,1.2,0.2,1.6c0.1,0.4,0.3,0.8,0.5,1.1c0.2,0.3,0.5,0.5,0.8,0.6c0.3,0.1,0.6,0.2,1,0.2c0.6,0,1-0.1,1.4-0.4
			c0.4-0.3,0.8-0.6,1.1-1.1V451.9z"/>
		<path fill="#282561" d="M842.3,457.8c-0.2,0.3-0.5,0.5-0.7,0.7c-0.3,0.2-0.6,0.3-0.9,0.5c-0.3,0.1-0.7,0.2-1,0.3
			c-0.4,0.1-0.7,0.1-1,0.1c-0.7,0-1.3-0.1-1.8-0.3s-1-0.5-1.4-1c-0.4-0.4-0.7-1-0.9-1.6c-0.2-0.6-0.3-1.4-0.3-2.2
			c0-0.7,0.1-1.3,0.3-1.9c0.2-0.6,0.5-1.1,0.9-1.5c0.4-0.4,0.9-0.8,1.4-1c0.6-0.2,1.2-0.4,1.9-0.4c0.6,0,1.1,0.1,1.6,0.3
			c0.5,0.2,0.9,0.5,1.3,0.8c0.4,0.4,0.6,0.8,0.8,1.3c0.2,0.5,0.3,1.1,0.3,1.8c0,0.3,0,0.4-0.1,0.5c-0.1,0.1-0.2,0.1-0.3,0.1h-6.4
			c0,0.6,0.1,1.1,0.3,1.6c0.1,0.4,0.4,0.8,0.6,1.1c0.3,0.3,0.6,0.5,0.9,0.7c0.4,0.1,0.8,0.2,1.2,0.2c0.4,0,0.8,0,1.1-0.1
			c0.3-0.1,0.6-0.2,0.8-0.3c0.2-0.1,0.4-0.2,0.6-0.3c0.1-0.1,0.3-0.1,0.4-0.1c0.1,0,0.2,0.1,0.3,0.2L842.3,457.8z M840.9,453.3
			c0-0.4-0.1-0.7-0.2-1.1c-0.1-0.3-0.3-0.6-0.5-0.8c-0.2-0.2-0.5-0.4-0.8-0.5c-0.3-0.1-0.6-0.2-1-0.2c-0.8,0-1.4,0.2-1.9,0.7
			c-0.5,0.5-0.8,1.1-0.9,1.9H840.9z"/>
		<path fill="#282561" d="M846.1,451.5c0.3-0.7,0.7-1.2,1.1-1.5c0.4-0.4,1-0.6,1.6-0.6c0.2,0,0.4,0,0.6,0.1c0.2,0,0.3,0.1,0.5,0.2
			l-0.1,1.3c0,0.2-0.1,0.2-0.3,0.2c-0.1,0-0.2,0-0.4-0.1c-0.2,0-0.4-0.1-0.6-0.1c-0.3,0-0.6,0-0.8,0.1c-0.2,0.1-0.4,0.2-0.6,0.4
			c-0.2,0.2-0.4,0.4-0.5,0.6c-0.1,0.3-0.3,0.5-0.4,0.9v6h-1.7v-9.5h1c0.2,0,0.3,0,0.4,0.1c0.1,0.1,0.1,0.2,0.1,0.4L846.1,451.5z"/>
		<path fill="#282561" d="M856.8,451.2c-0.1,0.1-0.2,0.2-0.3,0.2c-0.1,0-0.2,0-0.3-0.1c-0.1-0.1-0.3-0.1-0.4-0.2
			c-0.2-0.1-0.4-0.2-0.6-0.2c-0.2-0.1-0.5-0.1-0.8-0.1c-0.3,0-0.5,0-0.8,0.1c-0.2,0.1-0.4,0.2-0.6,0.3c-0.2,0.1-0.3,0.3-0.4,0.4
			c-0.1,0.2-0.1,0.3-0.1,0.5c0,0.2,0.1,0.4,0.2,0.6c0.1,0.2,0.3,0.3,0.6,0.4c0.2,0.1,0.5,0.2,0.8,0.3c0.3,0.1,0.6,0.2,0.9,0.3
			c0.3,0.1,0.6,0.2,0.9,0.3c0.3,0.1,0.6,0.3,0.8,0.5s0.4,0.4,0.6,0.7c0.1,0.3,0.2,0.6,0.2,1c0,0.4-0.1,0.8-0.2,1.2s-0.4,0.7-0.7,1
			c-0.3,0.3-0.7,0.5-1.1,0.6c-0.4,0.2-1,0.2-1.5,0.2c-0.7,0-1.3-0.1-1.8-0.3c-0.5-0.2-1-0.5-1.4-0.8l0.4-0.6
			c0.1-0.1,0.1-0.1,0.2-0.2c0.1,0,0.2-0.1,0.3-0.1c0.1,0,0.2,0,0.4,0.1c0.1,0.1,0.3,0.2,0.5,0.3c0.2,0.1,0.4,0.2,0.7,0.3
			c0.3,0.1,0.6,0.1,1,0.1c0.3,0,0.6,0,0.9-0.1c0.2-0.1,0.4-0.2,0.6-0.3c0.2-0.1,0.3-0.3,0.4-0.5c0.1-0.2,0.1-0.4,0.1-0.6
			c0-0.3-0.1-0.5-0.2-0.7c-0.1-0.2-0.3-0.3-0.6-0.4c-0.2-0.1-0.5-0.2-0.8-0.3c-0.3-0.1-0.6-0.2-0.9-0.3c-0.3-0.1-0.6-0.2-0.9-0.3
			c-0.3-0.1-0.6-0.3-0.8-0.5c-0.2-0.2-0.4-0.4-0.6-0.7c-0.1-0.3-0.2-0.6-0.2-1c0-0.4,0.1-0.7,0.2-1.1c0.2-0.3,0.4-0.6,0.7-0.9
			c0.3-0.3,0.6-0.5,1.1-0.6c0.4-0.2,0.9-0.2,1.4-0.2c0.6,0,1.2,0.1,1.7,0.3c0.5,0.2,0.9,0.5,1.3,0.8L856.8,451.2z"/>
		<path fill="#282561" d="M862.4,459.3c-0.8,0-1.3-0.2-1.7-0.6c-0.4-0.4-0.6-1-0.6-1.8V451h-1.1c-0.1,0-0.2,0-0.3-0.1
			c-0.1-0.1-0.1-0.2-0.1-0.3V450l1.6-0.2l0.4-2.9c0-0.1,0.1-0.2,0.1-0.2c0.1-0.1,0.2-0.1,0.3-0.1h0.8v3.3h2.8v1.2h-2.8v5.7
			c0,0.4,0.1,0.7,0.3,0.9c0.2,0.2,0.4,0.3,0.8,0.3c0.2,0,0.3,0,0.5-0.1c0.1,0,0.2-0.1,0.3-0.2c0.1-0.1,0.2-0.1,0.2-0.2
			s0.1-0.1,0.2-0.1c0.1,0,0.2,0.1,0.2,0.2l0.5,0.8c-0.3,0.3-0.6,0.5-1,0.6C863.2,459.2,862.8,459.3,862.4,459.3z"/>
		<path fill="#282561" d="M866,450.9c0.5-0.5,1.1-0.9,1.7-1.1c0.6-0.3,1.3-0.4,2-0.4c0.5,0,1,0.1,1.4,0.3c0.4,0.2,0.8,0.4,1,0.7
			c0.3,0.3,0.5,0.7,0.6,1.1c0.1,0.4,0.2,0.9,0.2,1.5v6.1h-0.7c-0.2,0-0.3,0-0.4-0.1c-0.1-0.1-0.2-0.2-0.2-0.3l-0.2-0.9
			c-0.3,0.2-0.5,0.4-0.7,0.6c-0.2,0.2-0.5,0.3-0.8,0.5c-0.3,0.1-0.5,0.2-0.8,0.3s-0.6,0.1-1,0.1c-0.4,0-0.7-0.1-1-0.2
			c-0.3-0.1-0.6-0.3-0.9-0.5c-0.2-0.2-0.4-0.5-0.6-0.8c-0.1-0.3-0.2-0.7-0.2-1.1c0-0.4,0.1-0.7,0.3-1.1c0.2-0.3,0.5-0.7,1-0.9
			c0.5-0.3,1.1-0.5,1.8-0.7c0.7-0.2,1.7-0.3,2.8-0.3V453c0-0.7-0.2-1.3-0.5-1.7c-0.3-0.4-0.8-0.6-1.4-0.6c-0.4,0-0.8,0.1-1,0.2
			c-0.3,0.1-0.5,0.2-0.7,0.3c-0.2,0.1-0.4,0.2-0.5,0.3c-0.1,0.1-0.3,0.2-0.4,0.2c-0.1,0-0.2,0-0.3-0.1c-0.1-0.1-0.2-0.1-0.2-0.2
			L866,450.9z M871.4,454.8c-0.8,0-1.4,0.1-2,0.2c-0.5,0.1-1,0.2-1.3,0.4c-0.3,0.2-0.6,0.3-0.7,0.6c-0.2,0.2-0.2,0.5-0.2,0.7
			c0,0.3,0,0.5,0.1,0.6c0.1,0.2,0.2,0.3,0.3,0.4c0.1,0.1,0.3,0.2,0.5,0.3c0.2,0.1,0.4,0.1,0.6,0.1c0.3,0,0.6,0,0.8-0.1
			c0.2-0.1,0.5-0.1,0.7-0.3c0.2-0.1,0.4-0.2,0.6-0.4c0.2-0.2,0.4-0.3,0.6-0.5V454.8z"/>
		<path fill="#282561" d="M877.2,451c0.2-0.2,0.4-0.4,0.7-0.6c0.2-0.2,0.5-0.4,0.7-0.5c0.3-0.1,0.5-0.2,0.8-0.3
			c0.3-0.1,0.6-0.1,0.9-0.1c0.5,0,1,0.1,1.4,0.3c0.4,0.2,0.7,0.4,1,0.7c0.3,0.3,0.5,0.7,0.6,1.1c0.1,0.4,0.2,0.9,0.2,1.5v6.1h-1.7
			V453c0-0.7-0.2-1.3-0.5-1.7c-0.3-0.4-0.8-0.6-1.5-0.6c-0.5,0-1,0.1-1.4,0.4c-0.4,0.2-0.8,0.6-1.2,1v7h-1.7v-9.5h1
			c0.2,0,0.4,0.1,0.4,0.3L877.2,451z"/>
		<path fill="#282561" d="M888.9,459.3c-0.8,0-1.3-0.2-1.7-0.6c-0.4-0.4-0.6-1-0.6-1.8V451h-1.1c-0.1,0-0.2,0-0.3-0.1
			c-0.1-0.1-0.1-0.2-0.1-0.3V450l1.6-0.2l0.4-2.9c0-0.1,0.1-0.2,0.1-0.2c0.1-0.1,0.2-0.1,0.3-0.1h0.8v3.3h2.8v1.2h-2.8v5.7
			c0,0.4,0.1,0.7,0.3,0.9c0.2,0.2,0.4,0.3,0.8,0.3c0.2,0,0.3,0,0.5-0.1c0.1,0,0.2-0.1,0.3-0.2c0.1-0.1,0.2-0.1,0.2-0.2
			c0.1,0,0.1-0.1,0.2-0.1c0.1,0,0.2,0.1,0.2,0.2l0.5,0.8c-0.3,0.3-0.6,0.5-1,0.6C889.7,459.2,889.3,459.3,888.9,459.3z"/>
		<path fill="#282561" d="M900.5,459.3c-0.8,0-1.3-0.2-1.7-0.6c-0.4-0.4-0.6-1-0.6-1.8V451H897c-0.1,0-0.2,0-0.3-0.1
			c-0.1-0.1-0.1-0.2-0.1-0.3V450l1.6-0.2l0.4-2.9c0-0.1,0.1-0.2,0.1-0.2c0.1-0.1,0.2-0.1,0.3-0.1h0.8v3.3h2.8v1.2h-2.8v5.7
			c0,0.4,0.1,0.7,0.3,0.9c0.2,0.2,0.4,0.3,0.8,0.3c0.2,0,0.3,0,0.5-0.1c0.1,0,0.2-0.1,0.3-0.2c0.1-0.1,0.2-0.1,0.2-0.2
			c0.1,0,0.1-0.1,0.2-0.1c0.1,0,0.2,0.1,0.2,0.2l0.5,0.8c-0.3,0.3-0.6,0.5-1,0.6C901.3,459.2,900.9,459.3,900.5,459.3z"/>
		<path fill="#282561" d="M906,450.9c0.4-0.4,0.9-0.8,1.4-1s1.1-0.4,1.7-0.4c0.5,0,1,0.1,1.4,0.3c0.4,0.2,0.7,0.4,1,0.7
			c0.3,0.3,0.5,0.7,0.6,1.1c0.1,0.4,0.2,0.9,0.2,1.5v6.1h-1.7V453c0-0.7-0.2-1.3-0.5-1.7c-0.3-0.4-0.8-0.6-1.5-0.6
			c-0.5,0-1,0.1-1.4,0.4c-0.4,0.2-0.8,0.6-1.2,1v7h-1.7v-13.9h1.7V450.9z"/>
		<path fill="#282561" d="M922.5,457.8c-0.2,0.3-0.5,0.5-0.7,0.7c-0.3,0.2-0.6,0.3-0.9,0.5c-0.3,0.1-0.7,0.2-1,0.3
			c-0.4,0.1-0.7,0.1-1,0.1c-0.7,0-1.3-0.1-1.8-0.3s-1-0.5-1.4-1c-0.4-0.4-0.7-1-0.9-1.6c-0.2-0.6-0.3-1.4-0.3-2.2
			c0-0.7,0.1-1.3,0.3-1.9c0.2-0.6,0.5-1.1,0.9-1.5c0.4-0.4,0.9-0.8,1.4-1c0.6-0.2,1.2-0.4,1.9-0.4c0.6,0,1.1,0.1,1.6,0.3
			c0.5,0.2,0.9,0.5,1.3,0.8c0.4,0.4,0.6,0.8,0.8,1.3c0.2,0.5,0.3,1.1,0.3,1.8c0,0.3,0,0.4-0.1,0.5c-0.1,0.1-0.2,0.1-0.3,0.1h-6.4
			c0,0.6,0.1,1.1,0.3,1.6c0.1,0.4,0.4,0.8,0.6,1.1c0.3,0.3,0.6,0.5,0.9,0.7c0.4,0.1,0.8,0.2,1.2,0.2c0.4,0,0.8,0,1.1-0.1
			c0.3-0.1,0.6-0.2,0.8-0.3c0.2-0.1,0.4-0.2,0.6-0.3c0.1-0.1,0.3-0.1,0.4-0.1c0.1,0,0.2,0.1,0.3,0.2L922.5,457.8z M921.2,453.3
			c0-0.4-0.1-0.7-0.2-1.1s-0.3-0.6-0.5-0.8c-0.2-0.2-0.5-0.4-0.8-0.5c-0.3-0.1-0.6-0.2-1-0.2c-0.8,0-1.4,0.2-1.9,0.7
			c-0.5,0.5-0.8,1.1-0.9,1.9H921.2z"/>
		<path fill="#282561" d="M936.2,451.3c-0.1,0.1-0.1,0.1-0.2,0.2c-0.1,0-0.1,0.1-0.2,0.1c-0.1,0-0.2,0-0.3-0.1
			c-0.1-0.1-0.3-0.2-0.4-0.3c-0.2-0.1-0.4-0.2-0.6-0.3c-0.2-0.1-0.5-0.1-0.9-0.1c-0.5,0-0.9,0.1-1.2,0.2c-0.4,0.2-0.7,0.4-0.9,0.7
			c-0.2,0.3-0.4,0.7-0.5,1.1c-0.1,0.4-0.2,0.9-0.2,1.5c0,0.6,0.1,1.1,0.2,1.5c0.1,0.4,0.3,0.8,0.6,1.1c0.2,0.3,0.5,0.5,0.9,0.7
			c0.3,0.2,0.7,0.2,1.2,0.2c0.4,0,0.7,0,1-0.1c0.3-0.1,0.5-0.2,0.7-0.3c0.2-0.1,0.3-0.2,0.4-0.3s0.2-0.1,0.3-0.1
			c0.1,0,0.2,0.1,0.3,0.2l0.5,0.6c-0.2,0.3-0.4,0.5-0.7,0.7c-0.3,0.2-0.5,0.3-0.9,0.5c-0.3,0.1-0.6,0.2-1,0.3
			c-0.3,0.1-0.7,0.1-1,0.1c-0.6,0-1.2-0.1-1.7-0.3c-0.5-0.2-1-0.5-1.3-1c-0.4-0.4-0.7-0.9-0.9-1.5c-0.2-0.6-0.3-1.3-0.3-2.1
			c0-0.7,0.1-1.4,0.3-2c0.2-0.6,0.5-1.1,0.9-1.6c0.4-0.4,0.8-0.8,1.4-1c0.6-0.2,1.2-0.4,1.9-0.4c0.7,0,1.3,0.1,1.8,0.3
			c0.5,0.2,1,0.5,1.4,0.9L936.2,451.3z"/>
		<path fill="#282561" d="M942.4,449.4c0.7,0,1.3,0.1,1.9,0.3s1,0.6,1.4,1c0.4,0.4,0.7,0.9,0.9,1.5c0.2,0.6,0.3,1.3,0.3,2
			c0,0.8-0.1,1.4-0.3,2s-0.5,1.1-0.9,1.5c-0.4,0.4-0.9,0.8-1.4,1c-0.6,0.2-1.2,0.3-1.9,0.3c-0.7,0-1.3-0.1-1.9-0.3
			c-0.6-0.2-1-0.6-1.4-1c-0.4-0.4-0.7-0.9-0.9-1.5s-0.3-1.3-0.3-2c0-0.7,0.1-1.4,0.3-2c0.2-0.6,0.5-1.1,0.9-1.5
			c0.4-0.4,0.9-0.8,1.4-1C941.1,449.5,941.7,449.4,942.4,449.4z M942.4,457.9c0.9,0,1.6-0.3,2.1-0.9s0.7-1.5,0.7-2.6
			c0-1.1-0.2-2-0.7-2.7c-0.5-0.6-1.2-1-2.1-1c-0.5,0-0.9,0.1-1.2,0.2c-0.4,0.2-0.6,0.4-0.9,0.7c-0.2,0.3-0.4,0.7-0.5,1.1
			c-0.1,0.4-0.2,1-0.2,1.5c0,1.1,0.2,2,0.7,2.6C940.8,457.6,941.5,457.9,942.4,457.9z"/>
		<path fill="#282561" d="M950.7,451.5c0.3-0.7,0.7-1.2,1.1-1.5c0.4-0.4,1-0.6,1.6-0.6c0.2,0,0.4,0,0.6,0.1c0.2,0,0.3,0.1,0.5,0.2
			l-0.1,1.3c0,0.2-0.1,0.2-0.3,0.2c-0.1,0-0.2,0-0.4-0.1c-0.2,0-0.4-0.1-0.6-0.1c-0.3,0-0.6,0-0.8,0.1c-0.2,0.1-0.4,0.2-0.6,0.4
			c-0.2,0.2-0.4,0.4-0.5,0.6c-0.1,0.3-0.3,0.5-0.4,0.9v6h-1.7v-9.5h1c0.2,0,0.3,0,0.4,0.1c0.1,0.1,0.1,0.2,0.1,0.4L950.7,451.5z"/>
		<path fill="#282561" d="M957.5,451.1c0.4-0.5,0.9-0.9,1.4-1.2c0.5-0.3,1.1-0.5,1.8-0.5c0.6,0,1.1,0.1,1.5,0.3
			c0.4,0.2,0.8,0.5,1.1,0.9c0.3,0.4,0.6,0.9,0.7,1.5c0.2,0.6,0.3,1.3,0.3,2.1c0,0.7-0.1,1.4-0.3,2s-0.5,1.1-0.8,1.6
			c-0.4,0.4-0.8,0.8-1.3,1c-0.5,0.3-1.1,0.4-1.7,0.4c-0.6,0-1.1-0.1-1.5-0.3c-0.4-0.2-0.8-0.5-1.1-0.8v4.2h-1.7v-12.8h1
			c0.2,0,0.4,0.1,0.4,0.3L957.5,451.1z M957.6,456.8c0.3,0.4,0.6,0.7,1,0.9c0.4,0.2,0.8,0.3,1.2,0.3c0.9,0,1.6-0.3,2.1-1
			c0.5-0.6,0.7-1.5,0.7-2.7c0-0.6-0.1-1.2-0.2-1.6c-0.1-0.4-0.3-0.8-0.5-1.1c-0.2-0.3-0.5-0.5-0.8-0.6c-0.3-0.1-0.6-0.2-1-0.2
			c-0.5,0-1,0.1-1.4,0.4c-0.4,0.3-0.8,0.6-1.1,1.1V456.8z"/>
		<path fill="#282561" d="M970.5,449.4c0.7,0,1.3,0.1,1.9,0.3s1,0.6,1.4,1c0.4,0.4,0.7,0.9,0.9,1.5c0.2,0.6,0.3,1.3,0.3,2
			c0,0.8-0.1,1.4-0.3,2s-0.5,1.1-0.9,1.5c-0.4,0.4-0.9,0.8-1.4,1c-0.6,0.2-1.2,0.3-1.9,0.3c-0.7,0-1.3-0.1-1.9-0.3
			c-0.6-0.2-1-0.6-1.4-1c-0.4-0.4-0.7-0.9-0.9-1.5s-0.3-1.3-0.3-2c0-0.7,0.1-1.4,0.3-2c0.2-0.6,0.5-1.1,0.9-1.5
			c0.4-0.4,0.9-0.8,1.4-1C969.2,449.5,969.8,449.4,970.5,449.4z M970.5,457.9c0.9,0,1.6-0.3,2.1-0.9s0.7-1.5,0.7-2.6
			c0-1.1-0.2-2-0.7-2.7c-0.5-0.6-1.2-1-2.1-1c-0.5,0-0.9,0.1-1.2,0.2c-0.4,0.2-0.6,0.4-0.9,0.7c-0.2,0.3-0.4,0.7-0.5,1.1
			c-0.1,0.4-0.2,1-0.2,1.5c0,1.1,0.2,2,0.7,2.6C968.9,457.6,969.6,457.9,970.5,457.9z"/>
		<path fill="#282561" d="M978.8,451.5c0.3-0.7,0.7-1.2,1.1-1.5c0.4-0.4,1-0.6,1.6-0.6c0.2,0,0.4,0,0.6,0.1c0.2,0,0.3,0.1,0.5,0.2
			l-0.1,1.3c0,0.2-0.1,0.2-0.3,0.2c-0.1,0-0.2,0-0.4-0.1c-0.2,0-0.4-0.1-0.6-0.1c-0.3,0-0.6,0-0.8,0.1c-0.2,0.1-0.4,0.2-0.6,0.4
			c-0.2,0.2-0.4,0.4-0.5,0.6c-0.1,0.3-0.3,0.5-0.4,0.9v6h-1.7v-9.5h1c0.2,0,0.3,0,0.4,0.1c0.1,0.1,0.1,0.2,0.1,0.4L978.8,451.5z"/>
		<path fill="#282561" d="M983.6,450.9c0.5-0.5,1.1-0.9,1.7-1.1c0.6-0.3,1.3-0.4,2-0.4c0.5,0,1,0.1,1.4,0.3c0.4,0.2,0.8,0.4,1,0.7
			c0.3,0.3,0.5,0.7,0.6,1.1c0.1,0.4,0.2,0.9,0.2,1.5v6.1H990c-0.2,0-0.3,0-0.4-0.1c-0.1-0.1-0.2-0.2-0.2-0.3l-0.2-0.9
			c-0.3,0.2-0.5,0.4-0.7,0.6c-0.2,0.2-0.5,0.3-0.8,0.5c-0.3,0.1-0.5,0.2-0.8,0.3c-0.3,0.1-0.6,0.1-1,0.1c-0.4,0-0.7-0.1-1-0.2
			c-0.3-0.1-0.6-0.3-0.9-0.5c-0.2-0.2-0.4-0.5-0.6-0.8c-0.1-0.3-0.2-0.7-0.2-1.1c0-0.4,0.1-0.7,0.3-1.1c0.2-0.3,0.5-0.7,1-0.9
			c0.5-0.3,1.1-0.5,1.8-0.7c0.7-0.2,1.7-0.3,2.8-0.3V453c0-0.7-0.2-1.3-0.5-1.7c-0.3-0.4-0.8-0.6-1.4-0.6c-0.4,0-0.8,0.1-1,0.2
			c-0.3,0.1-0.5,0.2-0.7,0.3c-0.2,0.1-0.4,0.2-0.5,0.3c-0.1,0.1-0.3,0.2-0.4,0.2c-0.1,0-0.2,0-0.3-0.1c-0.1-0.1-0.2-0.1-0.2-0.2
			L983.6,450.9z M989.1,454.8c-0.8,0-1.4,0.1-2,0.2c-0.5,0.1-1,0.2-1.3,0.4c-0.3,0.2-0.6,0.3-0.7,0.6c-0.2,0.2-0.2,0.5-0.2,0.7
			c0,0.3,0,0.5,0.1,0.6c0.1,0.2,0.2,0.3,0.3,0.4c0.1,0.1,0.3,0.2,0.5,0.3c0.2,0.1,0.4,0.1,0.6,0.1c0.3,0,0.6,0,0.8-0.1
			c0.2-0.1,0.5-0.1,0.7-0.3c0.2-0.1,0.4-0.2,0.6-0.4c0.2-0.2,0.4-0.3,0.6-0.5V454.8z"/>
		<path fill="#282561" d="M996.1,459.3c-0.8,0-1.3-0.2-1.7-0.6c-0.4-0.4-0.6-1-0.6-1.8V451h-1.1c-0.1,0-0.2,0-0.3-0.1
			c-0.1-0.1-0.1-0.2-0.1-0.3V450l1.6-0.2l0.4-2.9c0-0.1,0.1-0.2,0.1-0.2c0.1-0.1,0.2-0.1,0.3-0.1h0.8v3.3h2.8v1.2h-2.8v5.7
			c0,0.4,0.1,0.7,0.3,0.9c0.2,0.2,0.4,0.3,0.8,0.3c0.2,0,0.3,0,0.5-0.1c0.1,0,0.2-0.1,0.3-0.2c0.1-0.1,0.2-0.1,0.2-0.2
			c0.1,0,0.1-0.1,0.2-0.1c0.1,0,0.2,0.1,0.2,0.2l0.5,0.8c-0.3,0.3-0.6,0.5-1,0.6C996.9,459.2,996.5,459.3,996.1,459.3z"/>
		<path fill="#282561" d="M1007.6,457.8c-0.2,0.3-0.5,0.5-0.7,0.7c-0.3,0.2-0.6,0.3-0.9,0.5c-0.3,0.1-0.7,0.2-1,0.3
			c-0.4,0.1-0.7,0.1-1,0.1c-0.7,0-1.3-0.1-1.8-0.3s-1-0.5-1.4-1c-0.4-0.4-0.7-1-0.9-1.6c-0.2-0.6-0.3-1.4-0.3-2.2
			c0-0.7,0.1-1.3,0.3-1.9c0.2-0.6,0.5-1.1,0.9-1.5c0.4-0.4,0.9-0.8,1.4-1c0.6-0.2,1.2-0.4,1.9-0.4c0.6,0,1.1,0.1,1.6,0.3
			c0.5,0.2,0.9,0.5,1.3,0.8c0.4,0.4,0.6,0.8,0.8,1.3c0.2,0.5,0.3,1.1,0.3,1.8c0,0.3,0,0.4-0.1,0.5c-0.1,0.1-0.2,0.1-0.3,0.1h-6.4
			c0,0.6,0.1,1.1,0.3,1.6c0.1,0.4,0.4,0.8,0.6,1.1c0.3,0.3,0.6,0.5,0.9,0.7c0.4,0.1,0.8,0.2,1.2,0.2c0.4,0,0.8,0,1.1-0.1
			c0.3-0.1,0.6-0.2,0.8-0.3c0.2-0.1,0.4-0.2,0.6-0.3c0.1-0.1,0.3-0.1,0.4-0.1c0.1,0,0.2,0.1,0.3,0.2L1007.6,457.8z M1006.2,453.3
			c0-0.4-0.1-0.7-0.2-1.1c-0.1-0.3-0.3-0.6-0.5-0.8c-0.2-0.2-0.5-0.4-0.8-0.5c-0.3-0.1-0.6-0.2-1-0.2c-0.8,0-1.4,0.2-1.9,0.7
			c-0.5,0.5-0.8,1.1-0.9,1.9H1006.2z"/>
		<path fill="#282561" d="M813.1,472.2l-3.1,9.5h-1.3c-0.2,0-0.3-0.1-0.3-0.3l-2.1-6.5c-0.1-0.1-0.1-0.3-0.1-0.4
			c0-0.1-0.1-0.3-0.1-0.4c0,0.1-0.1,0.3-0.1,0.4c0,0.1-0.1,0.3-0.1,0.4l-2.1,6.5c-0.1,0.2-0.2,0.3-0.4,0.3H802l-3.1-9.5h1.3
			c0.1,0,0.2,0,0.3,0.1c0.1,0.1,0.2,0.2,0.2,0.2l1.8,6.1c0.1,0.5,0.2,0.9,0.3,1.3c0.1-0.2,0.1-0.4,0.2-0.6c0.1-0.2,0.1-0.4,0.2-0.6
			l2-6.2c0-0.1,0.1-0.2,0.2-0.2c0.1-0.1,0.2-0.1,0.3-0.1h0.7c0.1,0,0.2,0,0.3,0.1c0.1,0.1,0.1,0.1,0.2,0.2l2,6.2
			c0.1,0.2,0.1,0.4,0.2,0.6c0.1,0.2,0.1,0.4,0.2,0.6c0-0.2,0.1-0.4,0.1-0.6c0-0.2,0.1-0.4,0.2-0.7l1.9-6.1c0-0.1,0.1-0.2,0.2-0.2
			c0.1-0.1,0.2-0.1,0.3-0.1H813.1z"/>
		<path fill="#282561" d="M818.6,472c0.7,0,1.3,0.1,1.9,0.3s1,0.6,1.4,1c0.4,0.4,0.7,0.9,0.9,1.5c0.2,0.6,0.3,1.3,0.3,2
			c0,0.8-0.1,1.4-0.3,2c-0.2,0.6-0.5,1.1-0.9,1.5c-0.4,0.4-0.9,0.8-1.4,1c-0.6,0.2-1.2,0.3-1.9,0.3c-0.7,0-1.3-0.1-1.9-0.3
			c-0.6-0.2-1-0.6-1.4-1c-0.4-0.4-0.7-0.9-0.9-1.5s-0.3-1.3-0.3-2c0-0.7,0.1-1.4,0.3-2s0.5-1.1,0.9-1.5c0.4-0.4,0.9-0.8,1.4-1
			C817.3,472.2,817.9,472,818.6,472z M818.6,480.6c0.9,0,1.6-0.3,2.1-0.9c0.5-0.6,0.7-1.5,0.7-2.6c0-1.1-0.2-2-0.7-2.7
			c-0.5-0.6-1.2-1-2.1-1c-0.5,0-0.9,0.1-1.2,0.2c-0.4,0.2-0.6,0.4-0.9,0.7c-0.2,0.3-0.4,0.7-0.5,1.1c-0.1,0.4-0.2,1-0.2,1.5
			c0,1.1,0.2,2,0.7,2.6C816.9,480.2,817.6,480.6,818.6,480.6z"/>
		<path fill="#282561" d="M826.8,474.1c0.3-0.7,0.7-1.2,1.1-1.5c0.4-0.4,1-0.6,1.6-0.6c0.2,0,0.4,0,0.6,0.1c0.2,0,0.3,0.1,0.5,0.2
			l-0.1,1.3c0,0.2-0.1,0.2-0.3,0.2c-0.1,0-0.2,0-0.4-0.1c-0.2,0-0.4-0.1-0.6-0.1c-0.3,0-0.6,0-0.8,0.1c-0.2,0.1-0.4,0.2-0.6,0.4
			c-0.2,0.2-0.4,0.4-0.5,0.6c-0.1,0.3-0.3,0.5-0.4,0.9v6h-1.7v-9.5h1c0.2,0,0.3,0,0.4,0.1c0.1,0.1,0.1,0.2,0.1,0.4L826.8,474.1z"/>
		<path fill="#282561" d="M833.8,467.9v13.9h-1.7v-13.9H833.8z"/>
		<path fill="#282561" d="M844.5,467.9v13.9h-1c-0.2,0-0.4-0.1-0.5-0.3l-0.2-1.2c-0.4,0.5-0.9,0.9-1.4,1.2c-0.5,0.3-1.1,0.5-1.8,0.5
			c-0.5,0-1-0.1-1.5-0.3c-0.4-0.2-0.8-0.5-1.1-0.9s-0.6-0.9-0.7-1.5c-0.2-0.6-0.3-1.3-0.3-2.1c0-0.7,0.1-1.4,0.3-2
			c0.2-0.6,0.5-1.1,0.8-1.6c0.4-0.4,0.8-0.8,1.3-1c0.5-0.3,1.1-0.4,1.7-0.4c0.6,0,1.1,0.1,1.5,0.3c0.4,0.2,0.8,0.5,1.1,0.8v-5.3
			H844.5z M842.8,474.5c-0.3-0.4-0.7-0.7-1-0.9s-0.8-0.2-1.2-0.2c-0.9,0-1.6,0.3-2,1c-0.5,0.6-0.7,1.5-0.7,2.7
			c0,0.6,0.1,1.2,0.2,1.6c0.1,0.4,0.3,0.8,0.5,1.1c0.2,0.3,0.5,0.5,0.8,0.6c0.3,0.1,0.6,0.2,1,0.2c0.6,0,1-0.1,1.4-0.4
			c0.4-0.3,0.8-0.6,1.1-1.1V474.5z"/>
	</g>
	<circle id="second-dot" fill="#29ABE2" cx="875.6" cy="382.4" r="8.2"/>
	<g>
		<path fill="#292562" d="M903.6,382.1v5.6c-0.7,0.5-1.5,0.9-2.3,1.2s-1.7,0.4-2.7,0.4c-1.2,0-2.2-0.2-3.2-0.5
			c-0.9-0.4-1.8-0.9-2.4-1.5c-0.7-0.7-1.2-1.4-1.5-2.4c-0.4-0.9-0.5-1.9-0.5-3c0-1.1,0.2-2.1,0.5-3c0.3-0.9,0.8-1.7,1.5-2.4
			c0.6-0.7,1.4-1.2,2.4-1.5c0.9-0.4,2-0.5,3.1-0.5c0.6,0,1.1,0,1.6,0.1c0.5,0.1,1,0.2,1.4,0.4c0.4,0.2,0.8,0.4,1.2,0.6
			c0.4,0.2,0.7,0.5,1,0.8l-0.6,0.9c-0.1,0.1-0.2,0.2-0.3,0.3s-0.3,0-0.5-0.1c-0.2-0.1-0.4-0.2-0.6-0.3c-0.2-0.1-0.5-0.3-0.8-0.4
			s-0.7-0.2-1.1-0.3s-0.9-0.1-1.5-0.1c-0.8,0-1.6,0.1-2.2,0.4c-0.7,0.3-1.2,0.7-1.7,1.2c-0.5,0.5-0.8,1.1-1.1,1.8
			c-0.3,0.7-0.4,1.5-0.4,2.4c0,0.9,0.1,1.7,0.4,2.5c0.3,0.7,0.6,1.3,1.1,1.8c0.5,0.5,1.1,0.9,1.8,1.2c0.7,0.3,1.5,0.4,2.3,0.4
			c0.7,0,1.3-0.1,1.8-0.2c0.5-0.2,1-0.4,1.5-0.6v-3.2h-2.3c-0.1,0-0.2,0-0.3-0.1c-0.1-0.1-0.1-0.2-0.1-0.3v-1.1H903.6z"/>
		<path fill="#292562" d="M908,374.1v15h-1.8v-15H908z"/>
		<path fill="#292562" d="M915.3,378.6c0.8,0,1.4,0.1,2,0.4c0.6,0.3,1.1,0.6,1.5,1.1c0.4,0.5,0.8,1,1,1.7c0.2,0.7,0.3,1.4,0.3,2.2
			c0,0.8-0.1,1.5-0.3,2.2c-0.2,0.7-0.6,1.2-1,1.7c-0.4,0.5-0.9,0.8-1.5,1.1c-0.6,0.2-1.3,0.4-2,0.4c-0.8,0-1.4-0.1-2.1-0.4
			c-0.6-0.2-1.1-0.6-1.6-1.1c-0.4-0.5-0.8-1-1-1.7s-0.3-1.4-0.3-2.2c0-0.8,0.1-1.5,0.3-2.2c0.2-0.7,0.6-1.2,1-1.7
			c0.4-0.5,0.9-0.8,1.6-1.1C913.9,378.8,914.5,378.6,915.3,378.6z M915.3,387.8c1,0,1.8-0.3,2.3-1s0.8-1.6,0.8-2.9
			c0-1.2-0.3-2.2-0.8-2.9c-0.5-0.7-1.3-1-2.3-1c-0.5,0-1,0.1-1.4,0.3s-0.7,0.4-1,0.8c-0.3,0.3-0.4,0.7-0.6,1.2
			c-0.1,0.5-0.2,1-0.2,1.6c0,1.2,0.3,2.2,0.8,2.9C913.5,387.5,914.3,387.8,915.3,387.8z"/>
		<path fill="#292562" d="M924.3,380.3c0.4-0.5,0.9-0.9,1.5-1.2c0.5-0.3,1.2-0.4,1.9-0.4c0.6,0,1.1,0.1,1.6,0.3s0.9,0.6,1.2,1
			s0.6,1,0.8,1.6c0.2,0.6,0.3,1.3,0.3,2.1c0,0.8-0.1,1.6-0.3,2.3c-0.2,0.7-0.5,1.3-0.9,1.8c-0.4,0.5-0.9,0.9-1.4,1.1
			s-1.2,0.4-1.9,0.4c-0.7,0-1.3-0.1-1.7-0.4c-0.5-0.3-0.9-0.6-1.2-1.1l-0.1,0.9c-0.1,0.3-0.2,0.4-0.5,0.4h-1.2v-15h1.8V380.3z
			 M924.3,386.6c0.3,0.4,0.7,0.8,1.1,0.9c0.4,0.2,0.8,0.3,1.3,0.3c1,0,1.7-0.3,2.2-1c0.5-0.7,0.8-1.7,0.8-3.1c0-1.3-0.2-2.2-0.7-2.8
			c-0.5-0.6-1.1-0.9-2-0.9c-0.6,0-1.1,0.1-1.5,0.4c-0.4,0.3-0.8,0.7-1.2,1.2V386.6z"/>
		<path fill="#292562" d="M933.7,380.3c0.6-0.5,1.2-1,1.8-1.2c0.7-0.3,1.4-0.4,2.2-0.4c0.6,0,1.1,0.1,1.5,0.3
			c0.4,0.2,0.8,0.5,1.1,0.8c0.3,0.3,0.5,0.8,0.7,1.2c0.2,0.5,0.2,1,0.2,1.6v6.6h-0.8c-0.2,0-0.3,0-0.4-0.1c-0.1-0.1-0.2-0.2-0.2-0.3
			l-0.2-1c-0.3,0.3-0.5,0.5-0.8,0.7c-0.3,0.2-0.5,0.4-0.8,0.5c-0.3,0.1-0.6,0.2-0.9,0.3c-0.3,0.1-0.7,0.1-1.1,0.1
			c-0.4,0-0.8-0.1-1.1-0.2c-0.4-0.1-0.7-0.3-0.9-0.5c-0.3-0.2-0.5-0.5-0.6-0.9c-0.2-0.3-0.2-0.7-0.2-1.2c0-0.4,0.1-0.8,0.3-1.2
			c0.2-0.4,0.6-0.7,1.1-1c0.5-0.3,1.2-0.5,2-0.7c0.8-0.2,1.8-0.3,3-0.3v-0.8c0-0.8-0.2-1.4-0.5-1.8c-0.3-0.4-0.9-0.6-1.5-0.6
			c-0.4,0-0.8,0.1-1.1,0.2c-0.3,0.1-0.6,0.2-0.8,0.4c-0.2,0.1-0.4,0.3-0.6,0.4c-0.2,0.1-0.3,0.2-0.5,0.2c-0.1,0-0.2,0-0.3-0.1
			c-0.1-0.1-0.2-0.1-0.2-0.2L933.7,380.3z M939.5,384.5c-0.8,0-1.5,0.1-2.1,0.2c-0.6,0.1-1.1,0.2-1.4,0.4c-0.4,0.2-0.6,0.4-0.8,0.6
			c-0.2,0.2-0.2,0.5-0.2,0.8c0,0.3,0,0.5,0.1,0.7c0.1,0.2,0.2,0.4,0.4,0.5s0.3,0.2,0.5,0.3c0.2,0.1,0.4,0.1,0.7,0.1
			c0.3,0,0.6,0,0.9-0.1c0.3-0.1,0.5-0.2,0.7-0.3c0.2-0.1,0.5-0.3,0.7-0.4c0.2-0.2,0.4-0.4,0.6-0.6V384.5z"/>
		<path fill="#292562" d="M945.9,374.1v15h-1.8v-15H945.9z"/>
		<path fill="#292562" d="M963.5,387.5l0,1.6h-9v-14.6h9v1.6h-7v4.9h5.7v1.5h-5.7v5H963.5z"/>
		<path fill="#292562" d="M974.3,389.1h-1.7c-0.1,0-0.3,0-0.4-0.1c-0.1-0.1-0.2-0.2-0.2-0.3l-2.6-4c0,0.1-0.1,0.2-0.1,0.3
			c0,0.1-0.1,0.2-0.1,0.3l-2.4,3.5c-0.1,0.1-0.1,0.2-0.2,0.3c-0.1,0.1-0.2,0.1-0.3,0.1h-1.6l3.6-5.3l-3.5-5h1.7c0.1,0,0.3,0,0.3,0.1
			s0.1,0.1,0.2,0.2l2.5,3.9c0.1-0.2,0.1-0.4,0.3-0.6l2.2-3.3c0.1-0.1,0.1-0.2,0.2-0.2c0.1-0.1,0.2-0.1,0.3-0.1h1.7l-3.5,4.9
			L974.3,389.1z"/>
		<path fill="#292562" d="M977.7,380.4c0.4-0.5,0.9-1,1.5-1.3c0.6-0.3,1.2-0.5,2-0.5c0.6,0,1.1,0.1,1.6,0.3c0.5,0.2,0.9,0.6,1.2,1
			c0.3,0.4,0.6,1,0.8,1.7c0.2,0.7,0.3,1.4,0.3,2.3c0,0.8-0.1,1.5-0.3,2.1c-0.2,0.7-0.5,1.2-0.9,1.7c-0.4,0.5-0.9,0.9-1.4,1.1
			c-0.6,0.3-1.2,0.4-1.9,0.4c-0.6,0-1.2-0.1-1.6-0.3c-0.5-0.2-0.9-0.5-1.2-0.9v4.6H976v-13.8h1.1c0.3,0,0.4,0.1,0.5,0.4L977.7,380.4
			z M977.8,386.6c0.3,0.4,0.7,0.8,1.1,0.9c0.4,0.2,0.8,0.3,1.3,0.3c1,0,1.7-0.3,2.2-1c0.5-0.7,0.8-1.7,0.8-2.9
			c0-0.7-0.1-1.3-0.2-1.7c-0.1-0.5-0.3-0.9-0.5-1.2c-0.2-0.3-0.5-0.5-0.8-0.7c-0.3-0.1-0.7-0.2-1.1-0.2c-0.6,0-1.1,0.1-1.6,0.4
			c-0.4,0.3-0.9,0.7-1.2,1.2V386.6z"/>
	</g>
	<circle id="third-dot" fill="#29ABE2" cx="986.9" cy="311.5" r="8.2"/>
	<g>
		<path fill="#28245F" d="M1014.6,322.2c0.1,0,0.2,0,0.3,0.1l0.8,0.8c-0.6,0.7-1.3,1.2-2.2,1.6c-0.8,0.4-1.9,0.6-3.1,0.6
			c-1,0-2-0.2-2.8-0.5c-0.8-0.4-1.6-0.9-2.2-1.5c-0.6-0.6-1.1-1.4-1.4-2.3c-0.3-0.9-0.5-1.9-0.5-3c0-1.1,0.2-2.1,0.5-3
			c0.3-0.9,0.8-1.7,1.4-2.3c0.6-0.7,1.4-1.2,2.2-1.5s1.8-0.5,2.9-0.5c1,0,1.9,0.2,2.7,0.5c0.8,0.3,1.5,0.8,2.1,1.3l-0.6,0.9
			c0,0.1-0.1,0.1-0.2,0.2c-0.1,0-0.1,0.1-0.3,0.1c-0.1,0-0.3-0.1-0.4-0.2c-0.2-0.1-0.4-0.3-0.7-0.4c-0.3-0.2-0.6-0.3-1.1-0.4
			c-0.4-0.1-0.9-0.2-1.6-0.2c-0.7,0-1.4,0.1-2,0.4c-0.6,0.3-1.2,0.6-1.6,1.1c-0.4,0.5-0.8,1.1-1,1.8c-0.2,0.7-0.4,1.5-0.4,2.4
			c0,0.9,0.1,1.7,0.4,2.4c0.3,0.7,0.6,1.3,1.1,1.8c0.4,0.5,1,0.9,1.6,1.1c0.6,0.3,1.3,0.4,2,0.4c0.4,0,0.8,0,1.2-0.1
			c0.3-0.1,0.7-0.1,1-0.2c0.3-0.1,0.6-0.2,0.8-0.4c0.3-0.2,0.5-0.4,0.8-0.6C1014.4,322.3,1014.5,322.2,1014.6,322.2z"/>
		<path fill="#28245F" d="M1017.3,316.4c0.6-0.5,1.2-1,1.8-1.2c0.7-0.3,1.4-0.4,2.2-0.4c0.6,0,1.1,0.1,1.5,0.3
			c0.4,0.2,0.8,0.5,1.1,0.8c0.3,0.3,0.5,0.7,0.7,1.2c0.2,0.5,0.2,1,0.2,1.6v6.5h-0.8c-0.2,0-0.3,0-0.4-0.1c-0.1-0.1-0.2-0.2-0.2-0.3
			l-0.2-1c-0.3,0.2-0.5,0.5-0.8,0.7s-0.5,0.4-0.8,0.5c-0.3,0.1-0.6,0.2-0.9,0.3c-0.3,0.1-0.7,0.1-1.1,0.1c-0.4,0-0.8-0.1-1.1-0.2
			c-0.3-0.1-0.7-0.3-0.9-0.5c-0.3-0.2-0.5-0.5-0.6-0.8c-0.2-0.3-0.2-0.7-0.2-1.2c0-0.4,0.1-0.8,0.3-1.2c0.2-0.4,0.6-0.7,1.1-1
			c0.5-0.3,1.1-0.5,1.9-0.7c0.8-0.2,1.8-0.3,2.9-0.3v-0.8c0-0.8-0.2-1.4-0.5-1.8c-0.3-0.4-0.8-0.6-1.5-0.6c-0.4,0-0.8,0.1-1.1,0.2
			s-0.6,0.2-0.8,0.4c-0.2,0.1-0.4,0.3-0.6,0.4c-0.2,0.1-0.3,0.2-0.5,0.2c-0.1,0-0.2,0-0.3-0.1c-0.1-0.1-0.2-0.1-0.2-0.2
			L1017.3,316.4z M1023.1,320.6c-0.8,0-1.5,0.1-2.1,0.2c-0.6,0.1-1.1,0.2-1.4,0.4c-0.4,0.2-0.6,0.4-0.8,0.6
			c-0.2,0.2-0.2,0.5-0.2,0.8c0,0.3,0,0.5,0.1,0.7c0.1,0.2,0.2,0.4,0.4,0.5s0.3,0.2,0.5,0.3c0.2,0.1,0.4,0.1,0.7,0.1
			c0.3,0,0.6,0,0.9-0.1c0.3-0.1,0.5-0.2,0.7-0.3c0.2-0.1,0.5-0.3,0.7-0.4c0.2-0.2,0.4-0.4,0.6-0.6V320.6z"/>
		<path fill="#28245F" d="M1029.3,317c0.3-0.7,0.7-1.2,1.2-1.6c0.5-0.4,1-0.6,1.7-0.6c0.2,0,0.4,0,0.6,0.1c0.2,0,0.4,0.1,0.5,0.2
			l-0.1,1.3c0,0.2-0.1,0.3-0.3,0.3c-0.1,0-0.2,0-0.4-0.1c-0.2,0-0.4-0.1-0.6-0.1c-0.3,0-0.6,0-0.9,0.1c-0.3,0.1-0.5,0.2-0.7,0.4
			c-0.2,0.2-0.4,0.4-0.5,0.7c-0.2,0.3-0.3,0.6-0.4,0.9v6.5h-1.8V315h1c0.2,0,0.3,0,0.4,0.1c0.1,0.1,0.1,0.2,0.2,0.4L1029.3,317z"/>
		<path fill="#28245F" d="M1042.8,323.8c-0.2,0.3-0.5,0.5-0.8,0.7c-0.3,0.2-0.6,0.4-1,0.5c-0.4,0.1-0.7,0.2-1.1,0.3
			s-0.8,0.1-1.1,0.1c-0.7,0-1.4-0.1-2-0.4c-0.6-0.2-1.1-0.6-1.5-1c-0.4-0.5-0.8-1-1-1.7c-0.2-0.7-0.4-1.5-0.4-2.3
			c0-0.7,0.1-1.4,0.3-2c0.2-0.6,0.5-1.2,0.9-1.6c0.4-0.5,0.9-0.8,1.5-1.1c0.6-0.3,1.3-0.4,2-0.4c0.6,0,1.2,0.1,1.7,0.3
			c0.5,0.2,1,0.5,1.4,0.9c0.4,0.4,0.7,0.9,0.9,1.4c0.2,0.6,0.3,1.2,0.3,1.9c0,0.3,0,0.5-0.1,0.6c-0.1,0.1-0.2,0.1-0.3,0.1h-6.8
			c0,0.6,0.1,1.2,0.3,1.7c0.2,0.5,0.4,0.9,0.7,1.2c0.3,0.3,0.6,0.6,1,0.7c0.4,0.2,0.8,0.2,1.3,0.2c0.5,0,0.8-0.1,1.2-0.2
			c0.3-0.1,0.6-0.2,0.8-0.3c0.2-0.1,0.4-0.2,0.6-0.3c0.2-0.1,0.3-0.2,0.4-0.2c0.1,0,0.3,0.1,0.3,0.2L1042.8,323.8z M1041.3,319
			c0-0.4-0.1-0.8-0.2-1.1s-0.3-0.6-0.5-0.9c-0.2-0.3-0.5-0.4-0.8-0.6c-0.3-0.1-0.7-0.2-1.1-0.2c-0.9,0-1.5,0.3-2,0.8
			c-0.5,0.5-0.8,1.2-0.9,2.1H1041.3z"/>
		<path fill="#28245F" d="M1053.5,323.8c-0.2,0.3-0.5,0.5-0.8,0.7c-0.3,0.2-0.6,0.4-1,0.5c-0.4,0.1-0.7,0.2-1.1,0.3
			s-0.8,0.1-1.1,0.1c-0.7,0-1.4-0.1-2-0.4c-0.6-0.2-1.1-0.6-1.5-1c-0.4-0.5-0.8-1-1-1.7c-0.2-0.7-0.4-1.5-0.4-2.3
			c0-0.7,0.1-1.4,0.3-2c0.2-0.6,0.5-1.2,0.9-1.6c0.4-0.5,0.9-0.8,1.5-1.1c0.6-0.3,1.3-0.4,2-0.4c0.6,0,1.2,0.1,1.7,0.3
			c0.5,0.2,1,0.5,1.4,0.9c0.4,0.4,0.7,0.9,0.9,1.4c0.2,0.6,0.3,1.2,0.3,1.9c0,0.3,0,0.5-0.1,0.6c-0.1,0.1-0.2,0.1-0.3,0.1h-6.8
			c0,0.6,0.1,1.2,0.3,1.7c0.2,0.5,0.4,0.9,0.7,1.2c0.3,0.3,0.6,0.6,1,0.7c0.4,0.2,0.8,0.2,1.3,0.2c0.5,0,0.8-0.1,1.2-0.2
			c0.3-0.1,0.6-0.2,0.8-0.3c0.2-0.1,0.4-0.2,0.6-0.3c0.2-0.1,0.3-0.2,0.4-0.2c0.1,0,0.3,0.1,0.3,0.2L1053.5,323.8z M1052,319
			c0-0.4-0.1-0.8-0.2-1.1s-0.3-0.6-0.5-0.9c-0.2-0.3-0.5-0.4-0.8-0.6c-0.3-0.1-0.7-0.2-1.1-0.2c-0.9,0-1.5,0.3-2,0.8
			c-0.5,0.5-0.8,1.2-0.9,2.1H1052z"/>
		<path fill="#28245F" d="M1057.5,317c0.3-0.7,0.7-1.2,1.2-1.6c0.5-0.4,1-0.6,1.7-0.6c0.2,0,0.4,0,0.6,0.1c0.2,0,0.4,0.1,0.5,0.2
			l-0.1,1.3c0,0.2-0.1,0.3-0.3,0.3c-0.1,0-0.2,0-0.4-0.1c-0.2,0-0.4-0.1-0.6-0.1c-0.3,0-0.6,0-0.9,0.1c-0.3,0.1-0.5,0.2-0.7,0.4
			c-0.2,0.2-0.4,0.4-0.5,0.7c-0.2,0.3-0.3,0.6-0.4,0.9v6.5h-1.8V315h1c0.2,0,0.3,0,0.4,0.1c0.1,0.1,0.1,0.2,0.2,0.4L1057.5,317z"/>
		<path fill="#28245F" d="M1075,316.8c-0.1,0.1-0.1,0.1-0.2,0.2c-0.1,0-0.1,0.1-0.2,0.1c-0.1,0-0.2,0-0.3-0.1
			c-0.1-0.1-0.3-0.2-0.4-0.3c-0.2-0.1-0.4-0.2-0.7-0.3c-0.3-0.1-0.6-0.1-1-0.1c-0.5,0-0.9,0.1-1.3,0.3c-0.4,0.2-0.7,0.4-1,0.8
			c-0.3,0.3-0.5,0.7-0.6,1.2c-0.1,0.5-0.2,1-0.2,1.6c0,0.6,0.1,1.2,0.2,1.6c0.1,0.5,0.3,0.9,0.6,1.2c0.3,0.3,0.6,0.6,0.9,0.7
			c0.4,0.2,0.8,0.3,1.2,0.3c0.4,0,0.8-0.1,1.1-0.2c0.3-0.1,0.5-0.2,0.7-0.3c0.2-0.1,0.3-0.2,0.5-0.3c0.1-0.1,0.2-0.2,0.4-0.2
			c0.1,0,0.3,0.1,0.3,0.2l0.5,0.7c-0.2,0.3-0.5,0.5-0.8,0.7c-0.3,0.2-0.6,0.4-0.9,0.5c-0.3,0.1-0.7,0.2-1,0.3
			c-0.4,0.1-0.7,0.1-1.1,0.1c-0.6,0-1.2-0.1-1.8-0.4c-0.5-0.2-1-0.6-1.4-1c-0.4-0.4-0.7-1-0.9-1.6c-0.2-0.7-0.3-1.4-0.3-2.2
			c0-0.8,0.1-1.5,0.3-2.1c0.2-0.6,0.5-1.2,0.9-1.7c0.4-0.5,0.9-0.8,1.5-1.1c0.6-0.3,1.3-0.4,2.1-0.4c0.7,0,1.4,0.1,1.9,0.3
			c0.5,0.2,1,0.6,1.5,1L1075,316.8z"/>
		<path fill="#28245F" d="M1081.7,314.8c0.7,0,1.4,0.1,2,0.4c0.6,0.2,1.1,0.6,1.5,1.1c0.4,0.5,0.7,1,1,1.7c0.2,0.6,0.3,1.4,0.3,2.2
			c0,0.8-0.1,1.5-0.3,2.2c-0.2,0.6-0.6,1.2-1,1.7c-0.4,0.5-0.9,0.8-1.5,1.1c-0.6,0.2-1.3,0.4-2,0.4c-0.8,0-1.4-0.1-2-0.4
			c-0.6-0.2-1.1-0.6-1.5-1.1c-0.4-0.5-0.7-1-1-1.7c-0.2-0.6-0.3-1.4-0.3-2.2c0-0.8,0.1-1.5,0.3-2.2c0.2-0.6,0.6-1.2,1-1.7
			c0.4-0.5,0.9-0.8,1.5-1.1C1080.3,315,1080.9,314.8,1081.7,314.8z M1081.7,324c1,0,1.8-0.3,2.3-1s0.7-1.6,0.7-2.8
			c0-1.2-0.2-2.2-0.7-2.8c-0.5-0.7-1.3-1-2.3-1c-0.5,0-1,0.1-1.3,0.3c-0.4,0.2-0.7,0.4-0.9,0.8c-0.3,0.3-0.4,0.7-0.6,1.2
			c-0.1,0.5-0.2,1-0.2,1.6c0,1.2,0.3,2.2,0.8,2.8C1079.9,323.6,1080.7,324,1081.7,324z"/>
		<path fill="#28245F" d="M1090.5,316.5c0.2-0.2,0.5-0.5,0.7-0.7c0.2-0.2,0.5-0.4,0.8-0.5c0.3-0.1,0.6-0.3,0.9-0.3
			c0.3-0.1,0.7-0.1,1-0.1c0.6,0,1.1,0.1,1.5,0.3c0.4,0.2,0.8,0.4,1.1,0.8c0.3,0.3,0.5,0.7,0.7,1.2c0.1,0.5,0.2,1,0.2,1.6v6.5h-1.8
			v-6.5c0-0.8-0.2-1.4-0.5-1.8c-0.4-0.4-0.9-0.6-1.6-0.6c-0.5,0-1,0.1-1.5,0.4c-0.5,0.3-0.9,0.6-1.3,1v7.5h-1.8V315h1.1
			c0.3,0,0.4,0.1,0.5,0.4L1090.5,316.5z"/>
		<path fill="#28245F" d="M1100.6,325.2v-8.7l-1.1-0.1c-0.1,0-0.3-0.1-0.4-0.2c-0.1-0.1-0.1-0.2-0.1-0.3v-0.7h1.6v-0.6
			c0-0.6,0.1-1.2,0.3-1.7c0.2-0.5,0.5-1,0.9-1.3c0.4-0.4,0.9-0.7,1.5-0.9c0.6-0.2,1.3-0.3,2-0.3c0.3,0,0.5,0,0.8,0.1
			c0.3,0,0.5,0.1,0.7,0.2l-0.1,0.9c0,0.1,0,0.1-0.1,0.1c0,0-0.1,0-0.2,0.1c-0.1,0-0.2,0-0.3,0c-0.1,0-0.2,0-0.4,0
			c-1.2,0-2.1,0.2-2.6,0.7c-0.5,0.5-0.8,1.2-0.8,2.2v0.5h6.2v10h-1.8v-8.7h-4.3v8.7H1100.6z"/>
		<path fill="#28245F" d="M1119.9,310.3v14.9h-1.1c-0.3,0-0.4-0.1-0.5-0.4l-0.2-1.2c-0.4,0.5-0.9,0.9-1.5,1.3
			c-0.6,0.3-1.2,0.5-1.9,0.5c-0.6,0-1.1-0.1-1.6-0.3c-0.5-0.2-0.9-0.6-1.2-1s-0.6-1-0.8-1.6c-0.2-0.7-0.3-1.4-0.3-2.3
			c0-0.8,0.1-1.5,0.3-2.1c0.2-0.6,0.5-1.2,0.9-1.7c0.4-0.5,0.8-0.9,1.4-1.1c0.5-0.3,1.2-0.4,1.9-0.4c0.6,0,1.2,0.1,1.6,0.3
			c0.4,0.2,0.8,0.5,1.2,0.9v-5.7H1119.9z M1118.1,317.4c-0.3-0.5-0.7-0.8-1.1-0.9c-0.4-0.2-0.8-0.3-1.3-0.3c-0.9,0-1.7,0.3-2.2,1
			c-0.5,0.7-0.8,1.6-0.8,2.9c0,0.7,0.1,1.2,0.2,1.7s0.3,0.9,0.5,1.2c0.2,0.3,0.5,0.5,0.8,0.7c0.3,0.1,0.7,0.2,1.1,0.2
			c0.6,0,1.1-0.1,1.5-0.4c0.4-0.3,0.8-0.6,1.2-1.1V317.4z"/>
		<path fill="#28245F" d="M1131.1,323.8c-0.2,0.3-0.5,0.5-0.8,0.7c-0.3,0.2-0.6,0.4-1,0.5c-0.4,0.1-0.7,0.2-1.1,0.3
			s-0.8,0.1-1.1,0.1c-0.7,0-1.4-0.1-2-0.4c-0.6-0.2-1.1-0.6-1.5-1c-0.4-0.5-0.8-1-1-1.7c-0.2-0.7-0.4-1.5-0.4-2.3
			c0-0.7,0.1-1.4,0.3-2c0.2-0.6,0.5-1.2,0.9-1.6c0.4-0.5,0.9-0.8,1.5-1.1c0.6-0.3,1.3-0.4,2-0.4c0.6,0,1.2,0.1,1.7,0.3
			c0.5,0.2,1,0.5,1.4,0.9c0.4,0.4,0.7,0.9,0.9,1.4c0.2,0.6,0.3,1.2,0.3,1.9c0,0.3,0,0.5-0.1,0.6c-0.1,0.1-0.2,0.1-0.3,0.1h-6.8
			c0,0.6,0.1,1.2,0.3,1.7c0.2,0.5,0.4,0.9,0.7,1.2c0.3,0.3,0.6,0.6,1,0.7c0.4,0.2,0.8,0.2,1.3,0.2c0.5,0,0.8-0.1,1.2-0.2
			c0.3-0.1,0.6-0.2,0.8-0.3c0.2-0.1,0.4-0.2,0.6-0.3c0.2-0.1,0.3-0.2,0.4-0.2c0.1,0,0.3,0.1,0.3,0.2L1131.1,323.8z M1129.6,319
			c0-0.4-0.1-0.8-0.2-1.1s-0.3-0.6-0.5-0.9c-0.2-0.3-0.5-0.4-0.8-0.6c-0.3-0.1-0.7-0.2-1.1-0.2c-0.9,0-1.5,0.3-2,0.8
			c-0.5,0.5-0.8,1.2-0.9,2.1H1129.6z"/>
		<path fill="#28245F" d="M1135.1,316.5c0.2-0.2,0.5-0.5,0.7-0.7c0.2-0.2,0.5-0.4,0.8-0.5c0.3-0.1,0.6-0.3,0.9-0.3
			c0.3-0.1,0.7-0.1,1-0.1c0.6,0,1.1,0.1,1.5,0.3c0.4,0.2,0.8,0.4,1.1,0.8s0.5,0.7,0.7,1.2c0.1,0.5,0.2,1,0.2,1.6v6.5h-1.8v-6.5
			c0-0.8-0.2-1.4-0.5-1.8c-0.4-0.4-0.9-0.6-1.6-0.6c-0.5,0-1,0.1-1.5,0.4c-0.5,0.3-0.9,0.6-1.3,1v7.5h-1.8V315h1.1
			c0.3,0,0.4,0.1,0.5,0.4L1135.1,316.5z"/>
		<path fill="#28245F" d="M1151.8,316.8c-0.1,0.1-0.1,0.1-0.2,0.2c-0.1,0-0.1,0.1-0.2,0.1c-0.1,0-0.2,0-0.3-0.1
			c-0.1-0.1-0.3-0.2-0.4-0.3c-0.2-0.1-0.4-0.2-0.7-0.3c-0.3-0.1-0.6-0.1-1-0.1c-0.5,0-0.9,0.1-1.3,0.3c-0.4,0.2-0.7,0.4-1,0.8
			c-0.3,0.3-0.5,0.7-0.6,1.2c-0.1,0.5-0.2,1-0.2,1.6c0,0.6,0.1,1.2,0.2,1.6c0.1,0.5,0.3,0.9,0.6,1.2c0.3,0.3,0.6,0.6,0.9,0.7
			c0.4,0.2,0.8,0.3,1.2,0.3c0.4,0,0.8-0.1,1.1-0.2c0.3-0.1,0.5-0.2,0.7-0.3c0.2-0.1,0.3-0.2,0.5-0.3c0.1-0.1,0.2-0.2,0.4-0.2
			c0.1,0,0.3,0.1,0.3,0.2l0.5,0.7c-0.2,0.3-0.5,0.5-0.8,0.7c-0.3,0.2-0.6,0.4-0.9,0.5c-0.3,0.1-0.7,0.2-1,0.3
			c-0.4,0.1-0.7,0.1-1.1,0.1c-0.6,0-1.2-0.1-1.8-0.4c-0.5-0.2-1-0.6-1.4-1c-0.4-0.4-0.7-1-0.9-1.6c-0.2-0.7-0.3-1.4-0.3-2.2
			c0-0.8,0.1-1.5,0.3-2.1c0.2-0.6,0.5-1.2,0.9-1.7c0.4-0.5,0.9-0.8,1.5-1.1c0.6-0.3,1.3-0.4,2.1-0.4c0.7,0,1.4,0.1,1.9,0.3
			c0.5,0.2,1,0.6,1.5,1L1151.8,316.8z"/>
		<path fill="#28245F" d="M1162.5,323.8c-0.2,0.3-0.5,0.5-0.8,0.7c-0.3,0.2-0.6,0.4-1,0.5c-0.4,0.1-0.7,0.2-1.1,0.3
			c-0.4,0.1-0.8,0.1-1.1,0.1c-0.7,0-1.4-0.1-2-0.4c-0.6-0.2-1.1-0.6-1.5-1c-0.4-0.5-0.8-1-1-1.7c-0.2-0.7-0.4-1.5-0.4-2.3
			c0-0.7,0.1-1.4,0.3-2c0.2-0.6,0.5-1.2,0.9-1.6c0.4-0.5,0.9-0.8,1.5-1.1s1.3-0.4,2-0.4c0.6,0,1.2,0.1,1.7,0.3
			c0.5,0.2,1,0.5,1.4,0.9c0.4,0.4,0.7,0.9,0.9,1.4c0.2,0.6,0.3,1.2,0.3,1.9c0,0.3,0,0.5-0.1,0.6c-0.1,0.1-0.2,0.1-0.3,0.1h-6.8
			c0,0.6,0.1,1.2,0.3,1.7c0.2,0.5,0.4,0.9,0.7,1.2c0.3,0.3,0.6,0.6,1,0.7c0.4,0.2,0.8,0.2,1.3,0.2c0.5,0,0.8-0.1,1.2-0.2
			c0.3-0.1,0.6-0.2,0.8-0.3c0.2-0.1,0.4-0.2,0.6-0.3c0.2-0.1,0.3-0.2,0.4-0.2c0.1,0,0.3,0.1,0.3,0.2L1162.5,323.8z M1161,319
			c0-0.4-0.1-0.8-0.2-1.1s-0.3-0.6-0.5-0.9c-0.2-0.3-0.5-0.4-0.8-0.6c-0.3-0.1-0.7-0.2-1.1-0.2c-0.9,0-1.5,0.3-2,0.8
			c-0.5,0.5-0.8,1.2-0.9,2.1H1161z"/>
	</g>
	<circle id="fourth-dot" fill="#29ABE2" cx="1088.8" cy="241.6" r="8.2"/>
	<g>
		<path fill="#282560" d="M1116.9,245.7c0.1,0,0.2,0,0.3,0.1l0.8,0.9c-0.6,0.7-1.4,1.3-2.2,1.7s-1.9,0.6-3.2,0.6
			c-1.1,0-2-0.2-2.9-0.6s-1.6-0.9-2.2-1.6c-0.6-0.7-1.1-1.5-1.4-2.4c-0.3-0.9-0.5-2-0.5-3.1c0-1.1,0.2-2.2,0.5-3.1
			c0.4-0.9,0.9-1.7,1.5-2.4c0.6-0.7,1.4-1.2,2.3-1.6c0.9-0.4,1.9-0.6,3-0.6c1.1,0,2,0.2,2.8,0.5c0.8,0.3,1.5,0.8,2.1,1.4l-0.7,0.9
			c0,0.1-0.1,0.1-0.2,0.2c-0.1,0-0.2,0.1-0.3,0.1c-0.1,0-0.3-0.1-0.5-0.2c-0.2-0.1-0.4-0.3-0.7-0.5s-0.7-0.3-1.1-0.5
			c-0.4-0.1-1-0.2-1.6-0.2c-0.8,0-1.5,0.1-2.1,0.4c-0.6,0.3-1.2,0.7-1.7,1.2c-0.5,0.5-0.8,1.1-1.1,1.9c-0.3,0.7-0.4,1.6-0.4,2.5
			c0,0.9,0.1,1.8,0.4,2.5c0.3,0.7,0.6,1.3,1.1,1.8c0.5,0.5,1,0.9,1.6,1.2c0.6,0.3,1.3,0.4,2,0.4c0.4,0,0.8,0,1.2-0.1
			c0.4-0.1,0.7-0.1,1-0.2c0.3-0.1,0.6-0.3,0.8-0.4c0.3-0.2,0.5-0.4,0.8-0.6C1116.7,245.8,1116.8,245.7,1116.9,245.7z"/>
		<path fill="#282560" d="M1121.6,240.3c0.3-0.7,0.7-1.3,1.2-1.7c0.5-0.4,1.1-0.6,1.8-0.6c0.2,0,0.4,0,0.6,0.1
			c0.2,0,0.4,0.1,0.5,0.2l-0.1,1.4c0,0.2-0.1,0.3-0.3,0.3c-0.1,0-0.2,0-0.4-0.1c-0.2,0-0.4-0.1-0.6-0.1c-0.3,0-0.6,0-0.9,0.1
			c-0.3,0.1-0.5,0.2-0.7,0.4c-0.2,0.2-0.4,0.4-0.6,0.7c-0.2,0.3-0.3,0.6-0.4,1v6.7h-1.9v-10.6h1.1c0.2,0,0.3,0,0.4,0.1
			c0.1,0.1,0.1,0.2,0.2,0.4L1121.6,240.3z"/>
		<path fill="#282560" d="M1131.5,238.1c0.8,0,1.5,0.1,2.1,0.4c0.6,0.3,1.1,0.6,1.6,1.1c0.4,0.5,0.8,1,1,1.7
			c0.2,0.7,0.3,1.4,0.3,2.2c0,0.8-0.1,1.6-0.3,2.3c-0.2,0.7-0.6,1.2-1,1.7c-0.4,0.5-1,0.8-1.6,1.1c-0.6,0.3-1.3,0.4-2.1,0.4
			c-0.8,0-1.5-0.1-2.1-0.4c-0.6-0.3-1.2-0.6-1.6-1.1c-0.4-0.5-0.8-1-1-1.7c-0.2-0.7-0.3-1.4-0.3-2.3c0-0.8,0.1-1.6,0.3-2.2
			c0.2-0.7,0.6-1.2,1-1.7c0.4-0.5,1-0.8,1.6-1.1C1130,238.2,1130.7,238.1,1131.5,238.1z M1131.5,247.5c1,0,1.8-0.3,2.3-1
			c0.5-0.7,0.8-1.7,0.8-2.9c0-1.3-0.3-2.2-0.8-2.9c-0.5-0.7-1.3-1.1-2.3-1.1c-0.5,0-1,0.1-1.4,0.3c-0.4,0.2-0.7,0.4-1,0.8
			c-0.3,0.3-0.5,0.8-0.6,1.3c-0.1,0.5-0.2,1.1-0.2,1.7c0,1.3,0.3,2.2,0.8,2.9C1129.6,247.1,1130.4,247.5,1131.5,247.5z"/>
		<path fill="#282560" d="M1145,240c-0.1,0.2-0.2,0.2-0.4,0.2c-0.1,0-0.2,0-0.4-0.1c-0.1-0.1-0.3-0.2-0.5-0.3
			c-0.2-0.1-0.4-0.2-0.7-0.3c-0.3-0.1-0.6-0.1-0.9-0.1c-0.3,0-0.6,0-0.8,0.1s-0.5,0.2-0.6,0.3c-0.2,0.1-0.3,0.3-0.4,0.5
			c-0.1,0.2-0.1,0.4-0.1,0.6c0,0.3,0.1,0.5,0.2,0.7c0.2,0.2,0.4,0.3,0.6,0.5c0.3,0.1,0.5,0.2,0.9,0.3c0.3,0.1,0.7,0.2,1,0.3
			c0.3,0.1,0.7,0.2,1,0.4c0.3,0.1,0.6,0.3,0.9,0.5c0.3,0.2,0.5,0.5,0.6,0.8c0.2,0.3,0.2,0.7,0.2,1.1c0,0.5-0.1,0.9-0.3,1.3
			c-0.2,0.4-0.4,0.8-0.8,1.1c-0.3,0.3-0.8,0.5-1.3,0.7c-0.5,0.2-1.1,0.3-1.7,0.3c-0.7,0-1.4-0.1-2-0.4c-0.6-0.2-1.1-0.5-1.5-0.9
			l0.4-0.7c0.1-0.1,0.1-0.2,0.2-0.2c0.1,0,0.2-0.1,0.3-0.1c0.1,0,0.3,0,0.4,0.1c0.1,0.1,0.3,0.2,0.5,0.3c0.2,0.1,0.4,0.2,0.7,0.3
			c0.3,0.1,0.6,0.1,1.1,0.1c0.4,0,0.7,0,0.9-0.1s0.5-0.2,0.7-0.4c0.2-0.2,0.3-0.3,0.4-0.6c0.1-0.2,0.1-0.4,0.1-0.7
			c0-0.3-0.1-0.5-0.2-0.7c-0.2-0.2-0.4-0.4-0.6-0.5c-0.3-0.1-0.6-0.3-0.9-0.4c-0.3-0.1-0.7-0.2-1-0.3c-0.3-0.1-0.7-0.2-1-0.4
			c-0.3-0.1-0.6-0.3-0.9-0.5c-0.3-0.2-0.5-0.5-0.6-0.8c-0.2-0.3-0.2-0.7-0.2-1.2c0-0.4,0.1-0.8,0.2-1.2c0.2-0.4,0.4-0.7,0.7-1
			c0.3-0.3,0.7-0.5,1.2-0.7c0.5-0.2,1-0.3,1.6-0.3c0.7,0,1.3,0.1,1.9,0.3c0.6,0.2,1,0.5,1.4,0.9L1145,240z"/>
		<path fill="#282560" d="M1154,240c-0.1,0.2-0.2,0.2-0.4,0.2c-0.1,0-0.2,0-0.4-0.1c-0.1-0.1-0.3-0.2-0.5-0.3
			c-0.2-0.1-0.4-0.2-0.7-0.3c-0.3-0.1-0.6-0.1-0.9-0.1c-0.3,0-0.6,0-0.8,0.1s-0.5,0.2-0.6,0.3c-0.2,0.1-0.3,0.3-0.4,0.5
			c-0.1,0.2-0.1,0.4-0.1,0.6c0,0.3,0.1,0.5,0.2,0.7c0.2,0.2,0.4,0.3,0.6,0.5c0.3,0.1,0.5,0.2,0.9,0.3c0.3,0.1,0.7,0.2,1,0.3
			c0.3,0.1,0.7,0.2,1,0.4c0.3,0.1,0.6,0.3,0.9,0.5c0.3,0.2,0.5,0.5,0.6,0.8c0.2,0.3,0.2,0.7,0.2,1.1c0,0.5-0.1,0.9-0.3,1.3
			c-0.2,0.4-0.4,0.8-0.8,1.1c-0.3,0.3-0.8,0.5-1.3,0.7c-0.5,0.2-1.1,0.3-1.7,0.3c-0.7,0-1.4-0.1-2-0.4c-0.6-0.2-1.1-0.5-1.5-0.9
			l0.4-0.7c0.1-0.1,0.1-0.2,0.2-0.2c0.1,0,0.2-0.1,0.3-0.1c0.1,0,0.3,0,0.4,0.1c0.1,0.1,0.3,0.2,0.5,0.3c0.2,0.1,0.4,0.2,0.7,0.3
			c0.3,0.1,0.6,0.1,1.1,0.1c0.4,0,0.7,0,0.9-0.1c0.3-0.1,0.5-0.2,0.7-0.4c0.2-0.2,0.3-0.3,0.4-0.6c0.1-0.2,0.1-0.4,0.1-0.7
			c0-0.3-0.1-0.5-0.2-0.7c-0.2-0.2-0.4-0.4-0.6-0.5c-0.3-0.1-0.6-0.3-0.9-0.4c-0.3-0.1-0.7-0.2-1-0.3c-0.3-0.1-0.7-0.2-1-0.4
			c-0.3-0.1-0.6-0.3-0.9-0.5c-0.3-0.2-0.5-0.5-0.6-0.8c-0.2-0.3-0.2-0.7-0.2-1.2c0-0.4,0.1-0.8,0.2-1.2c0.2-0.4,0.4-0.7,0.7-1
			c0.3-0.3,0.7-0.5,1.2-0.7c0.5-0.2,1-0.3,1.6-0.3c0.7,0,1.3,0.1,1.9,0.3c0.6,0.2,1,0.5,1.4,0.9L1154,240z"/>
		<path fill="#282560" d="M1169.6,240.1c-0.1,0.1-0.1,0.1-0.2,0.2c-0.1,0-0.1,0.1-0.2,0.1c-0.1,0-0.2,0-0.3-0.1
			c-0.1-0.1-0.3-0.2-0.5-0.3c-0.2-0.1-0.4-0.2-0.7-0.3c-0.3-0.1-0.6-0.1-1-0.1c-0.5,0-1,0.1-1.4,0.3c-0.4,0.2-0.7,0.5-1,0.8
			c-0.3,0.3-0.5,0.8-0.6,1.3c-0.1,0.5-0.2,1-0.2,1.7c0,0.6,0.1,1.2,0.2,1.7c0.1,0.5,0.4,0.9,0.6,1.3c0.3,0.3,0.6,0.6,1,0.8
			c0.4,0.2,0.8,0.3,1.3,0.3c0.5,0,0.8-0.1,1.1-0.2c0.3-0.1,0.5-0.2,0.7-0.4c0.2-0.1,0.4-0.3,0.5-0.4c0.1-0.1,0.3-0.2,0.4-0.2
			c0.2,0,0.3,0.1,0.4,0.2l0.5,0.7c-0.2,0.3-0.5,0.5-0.8,0.7c-0.3,0.2-0.6,0.4-0.9,0.5c-0.3,0.1-0.7,0.2-1.1,0.3
			c-0.4,0.1-0.7,0.1-1.1,0.1c-0.7,0-1.3-0.1-1.8-0.4c-0.6-0.2-1.1-0.6-1.5-1.1c-0.4-0.5-0.7-1-1-1.7c-0.2-0.7-0.4-1.4-0.4-2.3
			c0-0.8,0.1-1.5,0.3-2.2c0.2-0.7,0.5-1.2,1-1.7c0.4-0.5,0.9-0.9,1.6-1.1c0.6-0.3,1.3-0.4,2.1-0.4c0.7,0,1.4,0.1,2,0.4
			c0.6,0.2,1.1,0.6,1.5,1L1169.6,240.1z"/>
		<path fill="#282560" d="M1180.8,238.2v10.6h-1.1c-0.3,0-0.4-0.1-0.5-0.4l-0.1-1.1c-0.5,0.5-1,0.9-1.5,1.2c-0.6,0.3-1.2,0.5-2,0.5
			c-0.6,0-1.1-0.1-1.5-0.3c-0.4-0.2-0.8-0.5-1.1-0.8c-0.3-0.3-0.5-0.8-0.7-1.3c-0.1-0.5-0.2-1-0.2-1.6v-6.7h1.9v6.7
			c0,0.8,0.2,1.4,0.5,1.9c0.4,0.4,0.9,0.7,1.7,0.7c0.5,0,1.1-0.1,1.5-0.4c0.5-0.3,0.9-0.6,1.3-1.1v-7.8H1180.8z"/>
		<path fill="#282560" d="M1185.7,233.4v15.4h-1.9v-15.4H1185.7z"/>
		<path fill="#282560" d="M1191.9,249c-0.8,0-1.5-0.2-1.9-0.7c-0.4-0.5-0.7-1.1-0.7-2v-6.5h-1.3c-0.1,0-0.2,0-0.3-0.1
			c-0.1-0.1-0.1-0.2-0.1-0.3v-0.7l1.7-0.2l0.4-3.3c0-0.1,0.1-0.2,0.1-0.3c0.1-0.1,0.2-0.1,0.3-0.1h0.9v3.6h3.1v1.3h-3.1v6.3
			c0,0.4,0.1,0.8,0.3,1c0.2,0.2,0.5,0.3,0.8,0.3c0.2,0,0.4,0,0.5-0.1c0.1-0.1,0.3-0.1,0.4-0.2c0.1-0.1,0.2-0.1,0.3-0.2
			c0.1-0.1,0.1-0.1,0.2-0.1c0.1,0,0.2,0.1,0.3,0.2l0.5,0.9c-0.3,0.3-0.7,0.5-1.2,0.7C1192.9,248.9,1192.4,249,1191.9,249z"/>
		<path fill="#282560" d="M1197.9,240.3c0.3-0.7,0.7-1.3,1.2-1.7c0.5-0.4,1.1-0.6,1.8-0.6c0.2,0,0.4,0,0.6,0.1
			c0.2,0,0.4,0.1,0.5,0.2l-0.1,1.4c0,0.2-0.1,0.3-0.3,0.3c-0.1,0-0.2,0-0.4-0.1c-0.2,0-0.4-0.1-0.6-0.1c-0.3,0-0.6,0-0.9,0.1
			c-0.3,0.1-0.5,0.2-0.7,0.4c-0.2,0.2-0.4,0.4-0.6,0.7c-0.2,0.3-0.3,0.6-0.4,1v6.7h-1.9v-10.6h1.1c0.2,0,0.3,0,0.4,0.1
			c0.1,0.1,0.1,0.2,0.2,0.4L1197.9,240.3z"/>
		<path fill="#282560" d="M1203.3,239.7c0.6-0.6,1.2-1,1.9-1.3c0.7-0.3,1.4-0.4,2.2-0.4c0.6,0,1.1,0.1,1.6,0.3
			c0.5,0.2,0.8,0.5,1.2,0.8c0.3,0.3,0.5,0.8,0.7,1.3c0.2,0.5,0.2,1,0.2,1.6v6.8h-0.8c-0.2,0-0.3,0-0.4-0.1c-0.1-0.1-0.2-0.2-0.2-0.3
			l-0.2-1c-0.3,0.3-0.5,0.5-0.8,0.7c-0.3,0.2-0.5,0.4-0.8,0.5c-0.3,0.1-0.6,0.2-0.9,0.3c-0.3,0.1-0.7,0.1-1.1,0.1
			c-0.4,0-0.8-0.1-1.2-0.2c-0.4-0.1-0.7-0.3-0.9-0.5c-0.3-0.2-0.5-0.5-0.6-0.9c-0.2-0.3-0.2-0.8-0.2-1.2c0-0.4,0.1-0.8,0.3-1.2
			c0.2-0.4,0.6-0.7,1.1-1c0.5-0.3,1.2-0.5,2-0.7c0.8-0.2,1.8-0.3,3-0.3V242c0-0.8-0.2-1.4-0.5-1.9c-0.4-0.4-0.9-0.6-1.6-0.6
			c-0.5,0-0.8,0.1-1.2,0.2c-0.3,0.1-0.6,0.2-0.8,0.4s-0.4,0.3-0.6,0.4c-0.2,0.1-0.3,0.2-0.5,0.2c-0.1,0-0.2,0-0.3-0.1
			c-0.1-0.1-0.2-0.1-0.2-0.2L1203.3,239.7z M1209.3,244c-0.9,0-1.6,0.1-2.2,0.2c-0.6,0.1-1.1,0.2-1.5,0.4c-0.4,0.2-0.7,0.4-0.8,0.6
			c-0.2,0.2-0.3,0.5-0.3,0.8c0,0.3,0,0.5,0.1,0.7c0.1,0.2,0.2,0.4,0.4,0.5c0.2,0.1,0.3,0.2,0.6,0.3c0.2,0.1,0.4,0.1,0.7,0.1
			c0.3,0,0.6,0,0.9-0.1s0.5-0.2,0.8-0.3c0.2-0.1,0.5-0.3,0.7-0.4c0.2-0.2,0.4-0.4,0.6-0.6V244z"/>
		<path fill="#282560" d="M1215.9,233.4v15.4h-1.9v-15.4H1215.9z"/>
		<path fill="#282560" d="M1233.9,247.1l0,1.6h-9.2v-14.9h9.2v1.6h-7.2v5h5.8v1.6h-5.8v5.1H1233.9z"/>
		<path fill="#282560" d="M1244.9,248.8h-1.8c-0.2,0-0.3,0-0.4-0.1c-0.1-0.1-0.2-0.2-0.2-0.3l-2.7-4.1c0,0.1-0.1,0.2-0.1,0.3
			c0,0.1-0.1,0.2-0.1,0.3l-2.5,3.6c-0.1,0.1-0.1,0.2-0.2,0.3c-0.1,0.1-0.2,0.1-0.3,0.1h-1.7l3.7-5.4l-3.6-5.1h1.8
			c0.2,0,0.3,0,0.3,0.1c0.1,0,0.1,0.1,0.2,0.2l2.6,4c0.1-0.2,0.1-0.4,0.3-0.6l2.3-3.3c0.1-0.1,0.1-0.2,0.2-0.2
			c0.1-0.1,0.2-0.1,0.3-0.1h1.7l-3.6,5L1244.9,248.8z"/>
		<path fill="#282560" d="M1248.4,239.9c0.4-0.5,1-1,1.5-1.3c0.6-0.3,1.3-0.5,2-0.5c0.6,0,1.2,0.1,1.7,0.3c0.5,0.2,0.9,0.6,1.3,1
			c0.3,0.5,0.6,1,0.8,1.7c0.2,0.7,0.3,1.4,0.3,2.3c0,0.8-0.1,1.5-0.3,2.2c-0.2,0.7-0.5,1.3-0.9,1.7c-0.4,0.5-0.9,0.9-1.4,1.2
			c-0.6,0.3-1.2,0.4-1.9,0.4c-0.6,0-1.2-0.1-1.7-0.3c-0.5-0.2-0.9-0.5-1.2-0.9v4.7h-1.9v-14.1h1.1c0.3,0,0.4,0.1,0.5,0.4
			L1248.4,239.9z M1248.5,246.2c0.3,0.5,0.7,0.8,1.1,1c0.4,0.2,0.9,0.3,1.4,0.3c1,0,1.7-0.4,2.3-1.1c0.5-0.7,0.8-1.7,0.8-3
			c0-0.7-0.1-1.3-0.2-1.8c-0.1-0.5-0.3-0.9-0.5-1.2c-0.2-0.3-0.5-0.5-0.8-0.7c-0.3-0.1-0.7-0.2-1.1-0.2c-0.6,0-1.1,0.1-1.6,0.4
			c-0.5,0.3-0.9,0.7-1.3,1.2V246.2z"/>
	</g>
	<circle id="fifth-dot" fill="#29ABE2" cx="1180.8" cy="176.8" r="8.2"/>
	<g>
		<path fill="#282561" d="M1206.9,177.9v1.7h-8.5v-15h2v13.3H1206.9z"/>
		<path fill="#282561" d="M1216.5,178.1c-0.2,0.3-0.5,0.5-0.8,0.7c-0.3,0.2-0.7,0.4-1,0.5c-0.4,0.1-0.7,0.2-1.1,0.3
			c-0.4,0.1-0.8,0.1-1.2,0.1c-0.7,0-1.4-0.1-2-0.4c-0.6-0.2-1.1-0.6-1.6-1.1c-0.4-0.5-0.8-1.1-1-1.8c-0.3-0.7-0.4-1.5-0.4-2.4
			c0-0.7,0.1-1.4,0.3-2.1c0.2-0.6,0.6-1.2,1-1.7c0.4-0.5,0.9-0.8,1.6-1.1c0.6-0.3,1.3-0.4,2.1-0.4c0.6,0,1.2,0.1,1.8,0.3
			c0.5,0.2,1,0.5,1.4,0.9c0.4,0.4,0.7,0.9,0.9,1.5c0.2,0.6,0.3,1.3,0.3,2c0,0.3,0,0.5-0.1,0.6c-0.1,0.1-0.2,0.1-0.4,0.1h-7.1
			c0,0.7,0.1,1.2,0.3,1.7c0.2,0.5,0.4,0.9,0.7,1.2c0.3,0.3,0.6,0.6,1,0.7c0.4,0.2,0.9,0.2,1.4,0.2c0.5,0,0.9-0.1,1.2-0.2
			c0.3-0.1,0.6-0.2,0.9-0.4c0.2-0.1,0.4-0.2,0.6-0.3c0.2-0.1,0.3-0.2,0.4-0.2c0.2,0,0.3,0.1,0.4,0.2L1216.5,178.1z M1215,173.1
			c0-0.4-0.1-0.8-0.2-1.2c-0.1-0.4-0.3-0.7-0.5-0.9c-0.2-0.3-0.5-0.5-0.9-0.6c-0.3-0.1-0.7-0.2-1.1-0.2c-0.9,0-1.6,0.3-2.1,0.8
			c-0.5,0.5-0.8,1.2-1,2.2H1215z"/>
		<path fill="#282561" d="M1218.7,170.5c0.6-0.6,1.2-1,1.9-1.3c0.7-0.3,1.4-0.4,2.2-0.4c0.6,0,1.1,0.1,1.6,0.3
			c0.5,0.2,0.8,0.5,1.2,0.8c0.3,0.3,0.6,0.8,0.7,1.3c0.2,0.5,0.2,1,0.2,1.6v6.8h-0.8c-0.2,0-0.3,0-0.4-0.1c-0.1-0.1-0.2-0.2-0.2-0.3
			l-0.2-1c-0.3,0.3-0.6,0.5-0.8,0.7c-0.3,0.2-0.5,0.4-0.8,0.5c-0.3,0.1-0.6,0.2-0.9,0.3s-0.7,0.1-1.1,0.1c-0.4,0-0.8-0.1-1.2-0.2
			c-0.4-0.1-0.7-0.3-0.9-0.5c-0.3-0.2-0.5-0.5-0.6-0.9c-0.2-0.4-0.2-0.8-0.2-1.2c0-0.4,0.1-0.8,0.3-1.2c0.2-0.4,0.6-0.7,1.1-1
			c0.5-0.3,1.2-0.5,2-0.7c0.8-0.2,1.8-0.3,3-0.3v-0.8c0-0.8-0.2-1.4-0.5-1.9c-0.4-0.4-0.9-0.6-1.6-0.6c-0.5,0-0.8,0.1-1.2,0.2
			c-0.3,0.1-0.6,0.2-0.8,0.4c-0.2,0.1-0.4,0.3-0.6,0.4c-0.2,0.1-0.3,0.2-0.5,0.2c-0.1,0-0.2,0-0.3-0.1c-0.1-0.1-0.2-0.1-0.2-0.2
			L1218.7,170.5z M1224.7,174.8c-0.9,0-1.6,0.1-2.2,0.2c-0.6,0.1-1.1,0.2-1.5,0.4c-0.4,0.2-0.7,0.4-0.8,0.6
			c-0.2,0.2-0.3,0.5-0.3,0.8c0,0.3,0,0.5,0.1,0.7c0.1,0.2,0.2,0.4,0.4,0.5c0.2,0.1,0.3,0.2,0.6,0.3c0.2,0.1,0.4,0.1,0.7,0.1
			c0.3,0,0.6,0,0.9-0.1c0.3-0.1,0.5-0.2,0.8-0.3c0.2-0.1,0.5-0.3,0.7-0.4c0.2-0.2,0.4-0.4,0.6-0.6V174.8z"/>
		<path fill="#282561" d="M1238.1,164.2v15.4h-1.1c-0.3,0-0.4-0.1-0.5-0.4l-0.2-1.3c-0.5,0.5-1,1-1.5,1.3c-0.6,0.3-1.2,0.5-2,0.5
			c-0.6,0-1.2-0.1-1.7-0.4c-0.5-0.2-0.9-0.6-1.3-1c-0.3-0.5-0.6-1-0.8-1.7c-0.2-0.7-0.3-1.5-0.3-2.3c0-0.8,0.1-1.5,0.3-2.2
			c0.2-0.7,0.5-1.3,0.9-1.7c0.4-0.5,0.9-0.9,1.4-1.2s1.2-0.4,1.9-0.4c0.6,0,1.2,0.1,1.7,0.3c0.5,0.2,0.9,0.5,1.2,0.9v-5.9H1238.1z
			 M1236.2,171.5c-0.3-0.5-0.7-0.8-1.1-1c-0.4-0.2-0.9-0.3-1.4-0.3c-1,0-1.7,0.4-2.3,1.1c-0.5,0.7-0.8,1.7-0.8,3
			c0,0.7,0.1,1.3,0.2,1.8s0.3,0.9,0.5,1.2c0.2,0.3,0.5,0.5,0.8,0.7c0.3,0.1,0.7,0.2,1.1,0.2c0.6,0,1.1-0.1,1.6-0.4
			c0.5-0.3,0.9-0.7,1.3-1.2V171.5z"/>
		<path fill="#282561" d="M1249.6,178.1c-0.2,0.3-0.5,0.5-0.8,0.7c-0.3,0.2-0.7,0.4-1,0.5c-0.4,0.1-0.7,0.2-1.1,0.3
			c-0.4,0.1-0.8,0.1-1.2,0.1c-0.7,0-1.4-0.1-2-0.4c-0.6-0.2-1.1-0.6-1.6-1.1c-0.4-0.5-0.8-1.1-1-1.8c-0.3-0.7-0.4-1.5-0.4-2.4
			c0-0.7,0.1-1.4,0.3-2.1c0.2-0.6,0.6-1.2,1-1.7c0.4-0.5,0.9-0.8,1.6-1.1s1.3-0.4,2.1-0.4c0.6,0,1.2,0.1,1.8,0.3
			c0.5,0.2,1,0.5,1.4,0.9c0.4,0.4,0.7,0.9,0.9,1.5c0.2,0.6,0.3,1.3,0.3,2c0,0.3,0,0.5-0.1,0.6c-0.1,0.1-0.2,0.1-0.4,0.1h-7.1
			c0,0.7,0.1,1.2,0.3,1.7c0.2,0.5,0.4,0.9,0.7,1.2c0.3,0.3,0.6,0.6,1,0.7c0.4,0.2,0.9,0.2,1.4,0.2c0.5,0,0.9-0.1,1.2-0.2
			c0.3-0.1,0.6-0.2,0.9-0.4c0.2-0.1,0.4-0.2,0.6-0.3c0.2-0.1,0.3-0.2,0.4-0.2c0.2,0,0.3,0.1,0.4,0.2L1249.6,178.1z M1248.1,173.1
			c0-0.4-0.1-0.8-0.2-1.2c-0.1-0.4-0.3-0.7-0.5-0.9c-0.2-0.3-0.5-0.5-0.9-0.6c-0.3-0.1-0.7-0.2-1.1-0.2c-0.9,0-1.6,0.3-2.1,0.8
			c-0.5,0.5-0.8,1.2-1,2.2H1248.1z"/>
		<path fill="#282561" d="M1253.8,171.1c0.3-0.7,0.7-1.3,1.2-1.7c0.5-0.4,1.1-0.6,1.8-0.6c0.2,0,0.4,0,0.6,0.1
			c0.2,0,0.4,0.1,0.5,0.2l-0.1,1.4c0,0.2-0.1,0.3-0.3,0.3c-0.1,0-0.2,0-0.4-0.1c-0.2,0-0.4-0.1-0.6-0.1c-0.3,0-0.6,0-0.9,0.1
			c-0.3,0.1-0.5,0.2-0.7,0.4c-0.2,0.2-0.4,0.4-0.6,0.7c-0.2,0.3-0.3,0.6-0.4,1v6.7h-1.9V169h1.1c0.2,0,0.3,0,0.4,0.1
			c0.1,0.1,0.1,0.2,0.2,0.4L1253.8,171.1z"/>
		<path fill="#282561" d="M1265.8,170.7c-0.1,0.2-0.2,0.2-0.4,0.2c-0.1,0-0.2,0-0.4-0.1c-0.1-0.1-0.3-0.2-0.5-0.3
			c-0.2-0.1-0.4-0.2-0.7-0.3c-0.3-0.1-0.6-0.1-0.9-0.1c-0.3,0-0.6,0-0.8,0.1s-0.5,0.2-0.6,0.3c-0.2,0.1-0.3,0.3-0.4,0.5
			c-0.1,0.2-0.1,0.4-0.1,0.6c0,0.3,0.1,0.5,0.2,0.7c0.2,0.2,0.4,0.3,0.6,0.5c0.3,0.1,0.6,0.2,0.9,0.4c0.3,0.1,0.7,0.2,1,0.3
			c0.3,0.1,0.7,0.2,1,0.4c0.3,0.1,0.6,0.3,0.9,0.5c0.3,0.2,0.5,0.5,0.6,0.8c0.2,0.3,0.2,0.7,0.2,1.1c0,0.5-0.1,0.9-0.3,1.4
			c-0.2,0.4-0.4,0.8-0.8,1.1c-0.3,0.3-0.8,0.5-1.3,0.7c-0.5,0.2-1.1,0.3-1.7,0.3c-0.7,0-1.4-0.1-2-0.4c-0.6-0.2-1.1-0.5-1.5-0.9
			l0.4-0.7c0.1-0.1,0.1-0.2,0.2-0.2c0.1,0,0.2-0.1,0.3-0.1c0.1,0,0.3,0,0.4,0.1c0.1,0.1,0.3,0.2,0.5,0.3c0.2,0.1,0.4,0.2,0.7,0.3
			c0.3,0.1,0.6,0.1,1.1,0.1c0.4,0,0.7,0,1-0.1c0.3-0.1,0.5-0.2,0.7-0.4s0.3-0.3,0.4-0.6c0.1-0.2,0.1-0.4,0.1-0.7
			c0-0.3-0.1-0.5-0.2-0.7c-0.2-0.2-0.4-0.4-0.6-0.5c-0.3-0.1-0.6-0.3-0.9-0.4c-0.3-0.1-0.7-0.2-1-0.3c-0.3-0.1-0.7-0.2-1-0.4
			c-0.3-0.1-0.6-0.3-0.9-0.5c-0.3-0.2-0.5-0.5-0.6-0.8c-0.2-0.3-0.2-0.7-0.2-1.2c0-0.4,0.1-0.8,0.3-1.2c0.2-0.4,0.4-0.7,0.7-1
			c0.3-0.3,0.7-0.5,1.2-0.7c0.5-0.2,1-0.3,1.6-0.3c0.7,0,1.3,0.1,1.9,0.3c0.6,0.2,1,0.5,1.4,0.9L1265.8,170.7z"/>
		<path fill="#282561" d="M1270.5,170.4c0.5-0.5,1-0.9,1.5-1.1s1.2-0.4,1.9-0.4c0.6,0,1.1,0.1,1.5,0.3c0.4,0.2,0.8,0.5,1.1,0.8
			s0.5,0.8,0.7,1.3c0.2,0.5,0.2,1,0.2,1.6v6.7h-1.9v-6.7c0-0.8-0.2-1.4-0.5-1.9c-0.4-0.4-0.9-0.7-1.7-0.7c-0.6,0-1.1,0.1-1.5,0.4
			c-0.5,0.3-0.9,0.6-1.3,1.1v7.8h-1.9v-15.4h1.9V170.4z"/>
		<path fill="#282561" d="M1282.7,165.7c0,0.2,0,0.4-0.1,0.5c-0.1,0.2-0.2,0.3-0.3,0.4c-0.1,0.1-0.3,0.2-0.4,0.3
			c-0.2,0.1-0.3,0.1-0.5,0.1s-0.3,0-0.5-0.1c-0.2-0.1-0.3-0.2-0.4-0.3c-0.1-0.1-0.2-0.3-0.3-0.4c-0.1-0.2-0.1-0.3-0.1-0.5
			c0-0.2,0-0.4,0.1-0.5s0.2-0.3,0.3-0.4c0.1-0.1,0.3-0.2,0.4-0.3c0.2-0.1,0.3-0.1,0.5-0.1s0.4,0,0.5,0.1c0.2,0.1,0.3,0.2,0.4,0.3
			c0.1,0.1,0.2,0.3,0.3,0.4C1282.6,165.3,1282.7,165.5,1282.7,165.7z M1282.3,169v10.6h-1.9V169H1282.3z"/>
		<path fill="#282561" d="M1287.1,170.6c0.4-0.6,1-1,1.5-1.3c0.6-0.3,1.3-0.5,2-0.5c0.6,0,1.2,0.1,1.7,0.3c0.5,0.2,0.9,0.6,1.3,1
			c0.3,0.5,0.6,1,0.8,1.7c0.2,0.7,0.3,1.5,0.3,2.3c0,0.8-0.1,1.5-0.3,2.2c-0.2,0.7-0.5,1.3-0.9,1.7c-0.4,0.5-0.9,0.9-1.4,1.2
			c-0.6,0.3-1.2,0.4-1.9,0.4c-0.6,0-1.2-0.1-1.7-0.3c-0.5-0.2-0.9-0.5-1.2-0.9v4.7h-1.9V169h1.1c0.3,0,0.4,0.1,0.5,0.4L1287.1,170.6
			z M1287.2,177c0.3,0.5,0.7,0.8,1.1,1c0.4,0.2,0.9,0.3,1.4,0.3c1,0,1.7-0.4,2.3-1.1c0.5-0.7,0.8-1.7,0.8-3c0-0.7-0.1-1.3-0.2-1.8
			c-0.1-0.5-0.3-0.9-0.5-1.2c-0.2-0.3-0.5-0.5-0.8-0.7c-0.3-0.1-0.7-0.2-1.1-0.2c-0.6,0-1.1,0.1-1.6,0.4c-0.5,0.3-0.9,0.7-1.3,1.2
			V177z"/>
		<path fill="#282561" d="M1311.1,164.2v15.4h-1.1c-0.3,0-0.4-0.1-0.5-0.4l-0.2-1.3c-0.5,0.5-1,1-1.5,1.3c-0.6,0.3-1.2,0.5-2,0.5
			c-0.6,0-1.2-0.1-1.7-0.4c-0.5-0.2-0.9-0.6-1.3-1c-0.3-0.5-0.6-1-0.8-1.7c-0.2-0.7-0.3-1.5-0.3-2.3c0-0.8,0.1-1.5,0.3-2.2
			c0.2-0.7,0.5-1.3,0.9-1.7c0.4-0.5,0.9-0.9,1.4-1.2s1.2-0.4,1.9-0.4c0.6,0,1.2,0.1,1.7,0.3c0.5,0.2,0.9,0.5,1.2,0.9v-5.9H1311.1z
			 M1309.2,171.5c-0.3-0.5-0.7-0.8-1.1-1c-0.4-0.2-0.9-0.3-1.4-0.3c-1,0-1.7,0.4-2.3,1.1c-0.5,0.7-0.8,1.7-0.8,3
			c0,0.7,0.1,1.3,0.2,1.8c0.1,0.5,0.3,0.9,0.5,1.2c0.2,0.3,0.5,0.5,0.8,0.7c0.3,0.1,0.7,0.2,1.1,0.2c0.6,0,1.1-0.1,1.6-0.4
			c0.5-0.3,0.9-0.7,1.3-1.2V171.5z"/>
		<path fill="#282561" d="M1322.6,178.1c-0.2,0.3-0.5,0.5-0.8,0.7c-0.3,0.2-0.7,0.4-1,0.5c-0.4,0.1-0.7,0.2-1.1,0.3
			c-0.4,0.1-0.8,0.1-1.2,0.1c-0.7,0-1.4-0.1-2-0.4c-0.6-0.2-1.1-0.6-1.6-1.1c-0.4-0.5-0.8-1.1-1-1.8c-0.3-0.7-0.4-1.5-0.4-2.4
			c0-0.7,0.1-1.4,0.3-2.1c0.2-0.6,0.6-1.2,1-1.7c0.4-0.5,0.9-0.8,1.6-1.1c0.6-0.3,1.3-0.4,2.1-0.4c0.6,0,1.2,0.1,1.8,0.3
			c0.5,0.2,1,0.5,1.4,0.9c0.4,0.4,0.7,0.9,0.9,1.5c0.2,0.6,0.3,1.3,0.3,2c0,0.3,0,0.5-0.1,0.6c-0.1,0.1-0.2,0.1-0.4,0.1h-7.1
			c0,0.7,0.1,1.2,0.3,1.7c0.2,0.5,0.4,0.9,0.7,1.2c0.3,0.3,0.6,0.6,1,0.7c0.4,0.2,0.9,0.2,1.4,0.2c0.5,0,0.9-0.1,1.2-0.2
			c0.3-0.1,0.6-0.2,0.9-0.4c0.2-0.1,0.4-0.2,0.6-0.3c0.2-0.1,0.3-0.2,0.4-0.2c0.2,0,0.3,0.1,0.4,0.2L1322.6,178.1z M1321.1,173.1
			c0-0.4-0.1-0.8-0.2-1.2c-0.1-0.4-0.3-0.7-0.5-0.9c-0.2-0.3-0.5-0.5-0.9-0.6c-0.3-0.1-0.7-0.2-1.1-0.2c-0.9,0-1.6,0.3-2.1,0.8
			c-0.5,0.5-0.8,1.2-1,2.2H1321.1z"/>
		<path fill="#282561" d="M1333.9,169l-4.3,10.6h-1.7l-4.3-10.6h1.5c0.2,0,0.3,0,0.4,0.1c0.1,0.1,0.2,0.2,0.2,0.3l2.7,6.8
			c0.1,0.3,0.2,0.5,0.2,0.8c0.1,0.2,0.1,0.5,0.2,0.7c0.1-0.2,0.1-0.5,0.2-0.7c0.1-0.2,0.1-0.5,0.2-0.8l2.7-6.8
			c0-0.1,0.1-0.2,0.2-0.3c0.1-0.1,0.2-0.1,0.3-0.1H1333.9z"/>
		<path fill="#282561" d="M1343.9,178.1c-0.2,0.3-0.5,0.5-0.8,0.7c-0.3,0.2-0.7,0.4-1,0.5c-0.4,0.1-0.7,0.2-1.1,0.3
			c-0.4,0.1-0.8,0.1-1.2,0.1c-0.7,0-1.4-0.1-2-0.4c-0.6-0.2-1.1-0.6-1.6-1.1c-0.4-0.5-0.8-1.1-1-1.8c-0.3-0.7-0.4-1.5-0.4-2.4
			c0-0.7,0.1-1.4,0.3-2.1c0.2-0.6,0.6-1.2,1-1.7c0.4-0.5,0.9-0.8,1.6-1.1c0.6-0.3,1.3-0.4,2.1-0.4c0.6,0,1.2,0.1,1.8,0.3
			c0.5,0.2,1,0.5,1.4,0.9c0.4,0.4,0.7,0.9,0.9,1.5c0.2,0.6,0.3,1.3,0.3,2c0,0.3,0,0.5-0.1,0.6c-0.1,0.1-0.2,0.1-0.4,0.1h-7.1
			c0,0.7,0.1,1.2,0.3,1.7c0.2,0.5,0.4,0.9,0.7,1.2c0.3,0.3,0.6,0.6,1,0.7c0.4,0.2,0.9,0.2,1.4,0.2c0.5,0,0.9-0.1,1.2-0.2
			c0.3-0.1,0.6-0.2,0.9-0.4c0.2-0.1,0.4-0.2,0.6-0.3c0.2-0.1,0.3-0.2,0.4-0.2c0.2,0,0.3,0.1,0.4,0.2L1343.9,178.1z M1342.4,173.1
			c0-0.4-0.1-0.8-0.2-1.2c-0.1-0.4-0.3-0.7-0.5-0.9c-0.2-0.3-0.5-0.5-0.9-0.6c-0.3-0.1-0.7-0.2-1.1-0.2c-0.9,0-1.6,0.3-2.1,0.8
			c-0.5,0.5-0.8,1.2-1,2.2H1342.4z"/>
		<path fill="#282561" d="M1348.3,164.2v15.4h-1.9v-15.4H1348.3z"/>
		<path fill="#282561" d="M1355.7,168.8c0.8,0,1.5,0.1,2.1,0.4c0.6,0.3,1.1,0.6,1.6,1.1c0.4,0.5,0.8,1,1,1.7
			c0.2,0.7,0.3,1.4,0.3,2.3c0,0.8-0.1,1.6-0.3,2.3s-0.6,1.2-1,1.7c-0.4,0.5-1,0.8-1.6,1.1c-0.6,0.3-1.3,0.4-2.1,0.4
			c-0.8,0-1.5-0.1-2.1-0.4c-0.6-0.3-1.2-0.6-1.6-1.1c-0.4-0.5-0.8-1-1-1.7s-0.3-1.4-0.3-2.3c0-0.8,0.1-1.6,0.3-2.3
			c0.2-0.7,0.6-1.2,1-1.7c0.4-0.5,1-0.8,1.6-1.1C1354.3,169,1355,168.8,1355.7,168.8z M1355.7,178.3c1,0,1.8-0.3,2.3-1
			c0.5-0.7,0.8-1.7,0.8-2.9c0-1.3-0.3-2.2-0.8-2.9c-0.5-0.7-1.3-1.1-2.3-1.1c-0.5,0-1,0.1-1.4,0.3c-0.4,0.2-0.7,0.4-1,0.8
			c-0.3,0.3-0.5,0.8-0.6,1.3c-0.1,0.5-0.2,1.1-0.2,1.7c0,1.3,0.3,2.2,0.8,2.9C1353.9,177.9,1354.7,178.3,1355.7,178.3z"/>
		<path fill="#282561" d="M1364.9,170.6c0.4-0.6,1-1,1.5-1.3c0.6-0.3,1.3-0.5,2-0.5c0.6,0,1.2,0.1,1.7,0.3c0.5,0.2,0.9,0.6,1.3,1
			c0.3,0.5,0.6,1,0.8,1.7c0.2,0.7,0.3,1.5,0.3,2.3c0,0.8-0.1,1.5-0.3,2.2c-0.2,0.7-0.5,1.3-0.9,1.7c-0.4,0.5-0.9,0.9-1.4,1.2
			c-0.6,0.3-1.2,0.4-1.9,0.4c-0.6,0-1.2-0.1-1.7-0.3c-0.5-0.2-0.9-0.5-1.2-0.9v4.7h-1.9V169h1.1c0.3,0,0.4,0.1,0.5,0.4L1364.9,170.6
			z M1365,177c0.3,0.5,0.7,0.8,1.1,1c0.4,0.2,0.9,0.3,1.4,0.3c1,0,1.7-0.4,2.3-1.1c0.5-0.7,0.8-1.7,0.8-3c0-0.7-0.1-1.3-0.2-1.8
			c-0.1-0.5-0.3-0.9-0.5-1.2c-0.2-0.3-0.5-0.5-0.8-0.7c-0.3-0.1-0.7-0.2-1.1-0.2c-0.6,0-1.1,0.1-1.6,0.4c-0.5,0.3-0.9,0.7-1.3,1.2
			V177z"/>
		<path fill="#282561" d="M1374.8,179.6V169h1.1c0.3,0,0.4,0.1,0.5,0.4l0.1,1.1c0.4-0.5,0.8-0.9,1.3-1.2c0.5-0.3,1.1-0.5,1.7-0.5
			c0.7,0,1.3,0.2,1.7,0.6c0.4,0.4,0.8,0.9,1,1.6c0.2-0.4,0.3-0.7,0.6-1c0.2-0.3,0.5-0.5,0.8-0.7c0.3-0.2,0.6-0.3,1-0.4
			c0.3-0.1,0.7-0.1,1-0.1c0.6,0,1.1,0.1,1.5,0.3c0.4,0.2,0.8,0.4,1.1,0.8c0.3,0.3,0.5,0.8,0.7,1.3c0.2,0.5,0.2,1.1,0.2,1.7v6.7h-1.9
			v-6.7c0-0.8-0.2-1.5-0.5-1.9c-0.4-0.4-0.9-0.6-1.6-0.6c-0.3,0-0.6,0.1-0.9,0.2c-0.3,0.1-0.5,0.3-0.7,0.5c-0.2,0.2-0.4,0.5-0.5,0.8
			c-0.1,0.3-0.2,0.7-0.2,1.1v6.7h-1.9v-6.7c0-0.8-0.2-1.5-0.5-1.9c-0.3-0.4-0.8-0.6-1.5-0.6c-0.5,0-0.9,0.1-1.3,0.4
			c-0.4,0.2-0.7,0.6-1.1,1v7.9H1374.8z"/>
		<path fill="#282561" d="M1400.6,178.1c-0.2,0.3-0.5,0.5-0.8,0.7c-0.3,0.2-0.7,0.4-1,0.5c-0.4,0.1-0.7,0.2-1.1,0.3
			c-0.4,0.1-0.8,0.1-1.2,0.1c-0.7,0-1.4-0.1-2-0.4c-0.6-0.2-1.1-0.6-1.6-1.1c-0.4-0.5-0.8-1.1-1-1.8c-0.3-0.7-0.4-1.5-0.4-2.4
			c0-0.7,0.1-1.4,0.3-2.1c0.2-0.6,0.6-1.2,1-1.7c0.4-0.5,0.9-0.8,1.6-1.1c0.6-0.3,1.3-0.4,2.1-0.4c0.6,0,1.2,0.1,1.8,0.3
			c0.5,0.2,1,0.5,1.4,0.9c0.4,0.4,0.7,0.9,0.9,1.5c0.2,0.6,0.3,1.3,0.3,2c0,0.3,0,0.5-0.1,0.6c-0.1,0.1-0.2,0.1-0.4,0.1h-7.1
			c0,0.7,0.1,1.2,0.3,1.7c0.2,0.5,0.4,0.9,0.7,1.2c0.3,0.3,0.6,0.6,1,0.7c0.4,0.2,0.9,0.2,1.4,0.2c0.5,0,0.9-0.1,1.2-0.2
			c0.3-0.1,0.6-0.2,0.9-0.4c0.2-0.1,0.4-0.2,0.6-0.3c0.2-0.1,0.3-0.2,0.4-0.2c0.2,0,0.3,0.1,0.4,0.2L1400.6,178.1z M1399.1,173.1
			c0-0.4-0.1-0.8-0.2-1.2c-0.1-0.4-0.3-0.7-0.5-0.9c-0.2-0.3-0.5-0.5-0.9-0.6c-0.3-0.1-0.7-0.2-1.1-0.2c-0.9,0-1.6,0.3-2.1,0.8
			c-0.5,0.5-0.8,1.2-1,2.2H1399.1z"/>
		<path fill="#282561" d="M1404.8,170.5c0.2-0.3,0.5-0.5,0.7-0.7c0.3-0.2,0.5-0.4,0.8-0.5c0.3-0.1,0.6-0.3,0.9-0.3
			c0.3-0.1,0.7-0.1,1-0.1c0.6,0,1.1,0.1,1.5,0.3c0.4,0.2,0.8,0.5,1.1,0.8c0.3,0.4,0.5,0.8,0.7,1.3c0.2,0.5,0.2,1,0.2,1.6v6.7h-1.9
			v-6.7c0-0.8-0.2-1.4-0.5-1.9c-0.4-0.4-0.9-0.7-1.7-0.7c-0.6,0-1.1,0.1-1.5,0.4c-0.5,0.3-0.9,0.6-1.3,1.1v7.8h-1.9V169h1.1
			c0.3,0,0.4,0.1,0.5,0.4L1404.8,170.5z"/>
		<path fill="#282561" d="M1417.8,179.7c-0.8,0-1.5-0.2-1.9-0.7c-0.4-0.5-0.7-1.1-0.7-2v-6.5h-1.3c-0.1,0-0.2,0-0.3-0.1
			c-0.1-0.1-0.1-0.2-0.1-0.3v-0.7l1.7-0.2l0.4-3.3c0-0.1,0.1-0.2,0.1-0.3c0.1-0.1,0.2-0.1,0.3-0.1h0.9v3.6h3.1v1.3h-3.1v6.3
			c0,0.4,0.1,0.8,0.3,1c0.2,0.2,0.5,0.3,0.8,0.3c0.2,0,0.4,0,0.5-0.1c0.1-0.1,0.3-0.1,0.4-0.2c0.1-0.1,0.2-0.1,0.3-0.2
			c0.1-0.1,0.1-0.1,0.2-0.1c0.1,0,0.2,0.1,0.3,0.2l0.5,0.9c-0.3,0.3-0.7,0.5-1.2,0.7C1418.7,179.7,1418.3,179.7,1417.8,179.7z"/>
	</g>
	<circle id="sixth-dot" fill="#29ABE2" cx="1273" cy="104.3" r="8.2"/>
	<g>
		<path fill="#282561" d="M1290,97.3c0.9,0,1.7,0.1,2.3,0.3c0.7,0.2,1.2,0.5,1.7,0.9c0.4,0.4,0.8,0.8,1,1.4c0.2,0.5,0.3,1.1,0.3,1.8
			c0,0.7-0.1,1.3-0.3,1.8c-0.2,0.5-0.6,1-1,1.4c-0.4,0.4-1,0.7-1.7,0.9c-0.7,0.2-1.4,0.3-2.3,0.3h-2.3v5.3h-1.9V97.3H1290z
			 M1290,104.7c0.5,0,1-0.1,1.5-0.2c0.4-0.1,0.8-0.3,1.1-0.6c0.3-0.3,0.5-0.6,0.6-0.9c0.1-0.4,0.2-0.8,0.2-1.2
			c0-0.9-0.3-1.6-0.8-2.1c-0.6-0.5-1.4-0.8-2.5-0.8h-2.3v5.8H1290z"/>
		<path fill="#282561" d="M1299.5,98.3c0,0.2,0,0.3-0.1,0.5c-0.1,0.1-0.2,0.3-0.3,0.4c-0.1,0.1-0.3,0.2-0.4,0.3
			c-0.2,0.1-0.3,0.1-0.5,0.1c-0.2,0-0.3,0-0.5-0.1c-0.1-0.1-0.3-0.2-0.4-0.3s-0.2-0.2-0.3-0.4c-0.1-0.1-0.1-0.3-0.1-0.5
			s0-0.3,0.1-0.5c0.1-0.2,0.2-0.3,0.3-0.4s0.2-0.2,0.4-0.3c0.1-0.1,0.3-0.1,0.5-0.1c0.2,0,0.3,0,0.5,0.1c0.2,0.1,0.3,0.2,0.4,0.3
			c0.1,0.1,0.2,0.3,0.3,0.4C1299.5,98,1299.5,98.2,1299.5,98.3z M1299.1,101.5v10h-1.8v-10H1299.1z"/>
		<path fill="#282561" d="M1306.3,101.3c0.7,0,1.4,0.1,2,0.4c0.6,0.2,1.1,0.6,1.5,1c0.4,0.4,0.7,1,1,1.6c0.2,0.6,0.3,1.3,0.3,2.1
			c0,0.8-0.1,1.5-0.3,2.1c-0.2,0.6-0.5,1.2-1,1.6c-0.4,0.4-0.9,0.8-1.5,1c-0.6,0.2-1.2,0.4-2,0.4c-0.7,0-1.4-0.1-2-0.4
			c-0.6-0.2-1.1-0.6-1.5-1c-0.4-0.4-0.7-1-1-1.6c-0.2-0.6-0.3-1.3-0.3-2.1c0-0.8,0.1-1.5,0.3-2.1c0.2-0.6,0.5-1.2,1-1.6
			c0.4-0.4,0.9-0.8,1.5-1C1304.9,101.5,1305.5,101.3,1306.3,101.3z M1306.3,110.3c1,0,1.7-0.3,2.2-1c0.5-0.7,0.7-1.6,0.7-2.8
			c0-1.2-0.2-2.1-0.7-2.8c-0.5-0.7-1.2-1-2.2-1c-0.5,0-0.9,0.1-1.3,0.3c-0.4,0.2-0.7,0.4-0.9,0.7c-0.2,0.3-0.4,0.7-0.6,1.2
			s-0.2,1-0.2,1.6c0,1.2,0.2,2.1,0.7,2.8C1304.5,110,1305.3,110.3,1306.3,110.3z"/>
		<path fill="#282561" d="M1314.9,103c0.2-0.2,0.5-0.5,0.7-0.7c0.2-0.2,0.5-0.4,0.8-0.5c0.3-0.1,0.6-0.3,0.9-0.3
			c0.3-0.1,0.6-0.1,1-0.1c0.5,0,1,0.1,1.5,0.3c0.4,0.2,0.8,0.4,1.1,0.8c0.3,0.3,0.5,0.7,0.6,1.2c0.1,0.5,0.2,1,0.2,1.6v6.4h-1.8
			v-6.4c0-0.8-0.2-1.3-0.5-1.8c-0.3-0.4-0.9-0.6-1.6-0.6c-0.5,0-1,0.1-1.5,0.4c-0.5,0.3-0.9,0.6-1.3,1v7.4h-1.8v-10h1.1
			c0.3,0,0.4,0.1,0.5,0.4L1314.9,103z"/>
		<path fill="#282561" d="M1332.5,110.1c-0.2,0.3-0.5,0.5-0.8,0.7c-0.3,0.2-0.6,0.4-1,0.5c-0.3,0.1-0.7,0.2-1.1,0.3
			c-0.4,0.1-0.7,0.1-1.1,0.1c-0.7,0-1.3-0.1-1.9-0.4c-0.6-0.2-1.1-0.6-1.5-1c-0.4-0.5-0.8-1-1-1.7c-0.2-0.7-0.4-1.4-0.4-2.3
			c0-0.7,0.1-1.4,0.3-2c0.2-0.6,0.5-1.1,0.9-1.6c0.4-0.4,0.9-0.8,1.5-1.1c0.6-0.3,1.2-0.4,2-0.4c0.6,0,1.2,0.1,1.7,0.3
			c0.5,0.2,1,0.5,1.3,0.9c0.4,0.4,0.7,0.8,0.9,1.4c0.2,0.6,0.3,1.2,0.3,1.9c0,0.3,0,0.5-0.1,0.6s-0.2,0.1-0.3,0.1h-6.7
			c0,0.6,0.1,1.2,0.3,1.7c0.2,0.5,0.4,0.9,0.6,1.2c0.3,0.3,0.6,0.5,1,0.7c0.4,0.2,0.8,0.2,1.3,0.2c0.4,0,0.8-0.1,1.1-0.2
			c0.3-0.1,0.6-0.2,0.8-0.3c0.2-0.1,0.4-0.2,0.6-0.3c0.2-0.1,0.3-0.2,0.4-0.2c0.1,0,0.3,0.1,0.3,0.2L1332.5,110.1z M1331,105.4
			c0-0.4-0.1-0.8-0.2-1.1c-0.1-0.3-0.3-0.6-0.5-0.9c-0.2-0.2-0.5-0.4-0.8-0.6c-0.3-0.1-0.7-0.2-1.1-0.2c-0.8,0-1.5,0.2-2,0.7
			c-0.5,0.5-0.8,1.2-0.9,2H1331z"/>
		<path fill="#282561" d="M1342.9,110.1c-0.2,0.3-0.5,0.5-0.8,0.7c-0.3,0.2-0.6,0.4-1,0.5c-0.3,0.1-0.7,0.2-1.1,0.3
			c-0.4,0.1-0.7,0.1-1.1,0.1c-0.7,0-1.3-0.1-1.9-0.4c-0.6-0.2-1.1-0.6-1.5-1c-0.4-0.5-0.8-1-1-1.7c-0.2-0.7-0.4-1.4-0.4-2.3
			c0-0.7,0.1-1.4,0.3-2c0.2-0.6,0.5-1.1,0.9-1.6c0.4-0.4,0.9-0.8,1.5-1.1c0.6-0.3,1.2-0.4,2-0.4c0.6,0,1.2,0.1,1.7,0.3
			c0.5,0.2,1,0.5,1.3,0.9c0.4,0.4,0.7,0.8,0.9,1.4c0.2,0.6,0.3,1.2,0.3,1.9c0,0.3,0,0.5-0.1,0.6c-0.1,0.1-0.2,0.1-0.3,0.1h-6.7
			c0,0.6,0.1,1.2,0.3,1.7c0.2,0.5,0.4,0.9,0.6,1.2c0.3,0.3,0.6,0.5,1,0.7c0.4,0.2,0.8,0.2,1.3,0.2c0.4,0,0.8-0.1,1.1-0.2
			c0.3-0.1,0.6-0.2,0.8-0.3c0.2-0.1,0.4-0.2,0.6-0.3c0.2-0.1,0.3-0.2,0.4-0.2c0.1,0,0.3,0.1,0.3,0.2L1342.9,110.1z M1341.5,105.4
			c0-0.4-0.1-0.8-0.2-1.1c-0.1-0.3-0.3-0.6-0.5-0.9c-0.2-0.2-0.5-0.4-0.8-0.6c-0.3-0.1-0.7-0.2-1.1-0.2c-0.8,0-1.5,0.2-2,0.7
			c-0.5,0.5-0.8,1.2-0.9,2H1341.5z"/>
		<path fill="#282561" d="M1346.9,103.5c0.3-0.7,0.7-1.2,1.2-1.6c0.5-0.4,1-0.6,1.7-0.6c0.2,0,0.4,0,0.6,0.1c0.2,0,0.4,0.1,0.5,0.2
			l-0.1,1.3c0,0.2-0.1,0.2-0.3,0.2c-0.1,0-0.2,0-0.4-0.1c-0.2,0-0.4-0.1-0.6-0.1c-0.3,0-0.6,0-0.8,0.1c-0.2,0.1-0.5,0.2-0.7,0.4
			c-0.2,0.2-0.4,0.4-0.5,0.7c-0.2,0.3-0.3,0.6-0.4,0.9v6.3h-1.8v-10h1c0.2,0,0.3,0,0.4,0.1c0.1,0.1,0.1,0.2,0.1,0.4L1346.9,103.5z"
			/>
		<path fill="#282561" d="M1360.2,111.7c-0.8,0-1.4-0.2-1.8-0.7c-0.4-0.4-0.6-1.1-0.6-1.9V103h-1.2c-0.1,0-0.2,0-0.3-0.1
			c-0.1-0.1-0.1-0.2-0.1-0.3v-0.7l1.6-0.2l0.4-3.1c0-0.1,0.1-0.2,0.1-0.2c0.1-0.1,0.2-0.1,0.3-0.1h0.9v3.5h2.9v1.3h-2.9v6
			c0,0.4,0.1,0.7,0.3,0.9c0.2,0.2,0.5,0.3,0.8,0.3c0.2,0,0.3,0,0.5-0.1c0.1,0,0.3-0.1,0.4-0.2s0.2-0.1,0.3-0.2
			c0.1,0,0.1-0.1,0.2-0.1c0.1,0,0.2,0.1,0.2,0.2l0.5,0.8c-0.3,0.3-0.7,0.5-1.1,0.7C1361.1,111.6,1360.7,111.7,1360.2,111.7z"/>
		<path fill="#282561" d="M1366,102.8c0.4-0.5,0.9-0.8,1.4-1.1c0.5-0.3,1.1-0.4,1.8-0.4c0.5,0,1,0.1,1.5,0.3
			c0.4,0.2,0.8,0.4,1.1,0.8c0.3,0.3,0.5,0.7,0.6,1.2c0.1,0.5,0.2,1,0.2,1.6v6.4h-1.8v-6.4c0-0.8-0.2-1.3-0.5-1.8
			c-0.3-0.4-0.9-0.6-1.6-0.6c-0.5,0-1,0.1-1.5,0.4s-0.9,0.6-1.3,1v7.4h-1.8V96.9h1.8V102.8z"/>
		<path fill="#282561" d="M1383.4,110.1c-0.2,0.3-0.5,0.5-0.8,0.7c-0.3,0.2-0.6,0.4-1,0.5c-0.3,0.1-0.7,0.2-1.1,0.3
			c-0.4,0.1-0.7,0.1-1.1,0.1c-0.7,0-1.3-0.1-1.9-0.4c-0.6-0.2-1.1-0.6-1.5-1c-0.4-0.5-0.8-1-1-1.7c-0.2-0.7-0.4-1.4-0.4-2.3
			c0-0.7,0.1-1.4,0.3-2c0.2-0.6,0.5-1.1,0.9-1.6c0.4-0.4,0.9-0.8,1.5-1.1c0.6-0.3,1.2-0.4,2-0.4c0.6,0,1.2,0.1,1.7,0.3
			c0.5,0.2,1,0.5,1.3,0.9c0.4,0.4,0.7,0.8,0.9,1.4c0.2,0.6,0.3,1.2,0.3,1.9c0,0.3,0,0.5-0.1,0.6c-0.1,0.1-0.2,0.1-0.3,0.1h-6.7
			c0,0.6,0.1,1.2,0.3,1.7c0.2,0.5,0.4,0.9,0.6,1.2c0.3,0.3,0.6,0.5,1,0.7c0.4,0.2,0.8,0.2,1.3,0.2c0.4,0,0.8-0.1,1.1-0.2
			c0.3-0.1,0.6-0.2,0.8-0.3c0.2-0.1,0.4-0.2,0.6-0.3c0.2-0.1,0.3-0.2,0.4-0.2c0.1,0,0.3,0.1,0.3,0.2L1383.4,110.1z M1382,105.4
			c0-0.4-0.1-0.8-0.2-1.1c-0.1-0.3-0.3-0.6-0.5-0.9c-0.2-0.2-0.5-0.4-0.8-0.6c-0.3-0.1-0.7-0.2-1.1-0.2c-0.8,0-1.5,0.2-2,0.7
			c-0.5,0.5-0.8,1.2-0.9,2H1382z"/>
		<path fill="#282561" d="M1391.5,111.5V103l-1.1-0.1c-0.1,0-0.3-0.1-0.3-0.2c-0.1-0.1-0.1-0.2-0.1-0.3v-0.7h1.6v-0.6
			c0-0.6,0.1-1.2,0.3-1.7c0.2-0.5,0.5-1,0.9-1.3c0.4-0.4,0.9-0.7,1.4-0.9c0.6-0.2,1.2-0.3,2-0.3c0.3,0,0.5,0,0.8,0
			c0.3,0,0.5,0.1,0.7,0.1l-0.1,0.9c0,0.1,0,0.1-0.1,0.1s-0.1,0-0.2,0c-0.1,0-0.2,0-0.3,0c-0.1,0-0.2,0-0.4,0c-1.2,0-2,0.2-2.6,0.7
			c-0.5,0.5-0.8,1.2-0.8,2.2v0.5h6.1v9.8h-1.8V103h-4.2v8.6H1391.5z"/>
		<path fill="#282561" d="M1410.3,110.1c-0.2,0.3-0.5,0.5-0.8,0.7c-0.3,0.2-0.6,0.4-1,0.5c-0.3,0.1-0.7,0.2-1.1,0.3
			c-0.4,0.1-0.7,0.1-1.1,0.1c-0.7,0-1.3-0.1-1.9-0.4c-0.6-0.2-1.1-0.6-1.5-1c-0.4-0.5-0.8-1-1-1.7c-0.2-0.7-0.4-1.4-0.4-2.3
			c0-0.7,0.1-1.4,0.3-2c0.2-0.6,0.5-1.1,0.9-1.6c0.4-0.4,0.9-0.8,1.5-1.1c0.6-0.3,1.2-0.4,2-0.4c0.6,0,1.2,0.1,1.7,0.3
			c0.5,0.2,1,0.5,1.3,0.9c0.4,0.4,0.7,0.8,0.9,1.4c0.2,0.6,0.3,1.2,0.3,1.9c0,0.3,0,0.5-0.1,0.6c-0.1,0.1-0.2,0.1-0.3,0.1h-6.7
			c0,0.6,0.1,1.2,0.3,1.7c0.2,0.5,0.4,0.9,0.6,1.2c0.3,0.3,0.6,0.5,1,0.7c0.4,0.2,0.8,0.2,1.3,0.2c0.4,0,0.8-0.1,1.1-0.2
			c0.3-0.1,0.6-0.2,0.8-0.3c0.2-0.1,0.4-0.2,0.6-0.3c0.2-0.1,0.3-0.2,0.4-0.2c0.1,0,0.3,0.1,0.3,0.2L1410.3,110.1z M1408.9,105.4
			c0-0.4-0.1-0.8-0.2-1.1c-0.1-0.3-0.3-0.6-0.5-0.9c-0.2-0.2-0.5-0.4-0.8-0.6c-0.3-0.1-0.7-0.2-1.1-0.2c-0.8,0-1.5,0.2-2,0.7
			c-0.5,0.5-0.8,1.2-0.9,2H1408.9z"/>
		<path fill="#282561" d="M1414.5,96.9v14.6h-1.8V96.9H1414.5z"/>
		<path fill="#282561" d="M1425.6,96.9v14.6h-1.1c-0.3,0-0.4-0.1-0.5-0.4l-0.2-1.2c-0.4,0.5-0.9,0.9-1.5,1.2
			c-0.5,0.3-1.2,0.5-1.9,0.5c-0.6,0-1.1-0.1-1.6-0.3c-0.5-0.2-0.9-0.5-1.2-1c-0.3-0.4-0.6-1-0.8-1.6c-0.2-0.6-0.3-1.4-0.3-2.2
			c0-0.7,0.1-1.4,0.3-2.1c0.2-0.6,0.5-1.2,0.9-1.7c0.4-0.5,0.8-0.8,1.4-1.1c0.5-0.3,1.1-0.4,1.8-0.4c0.6,0,1.1,0.1,1.6,0.3
			c0.4,0.2,0.8,0.5,1.2,0.9v-5.6H1425.6z M1423.9,103.9c-0.3-0.4-0.7-0.8-1.1-0.9c-0.4-0.2-0.8-0.3-1.3-0.3c-0.9,0-1.6,0.3-2.2,1
			c-0.5,0.7-0.8,1.6-0.8,2.9c0,0.7,0.1,1.2,0.2,1.7s0.3,0.8,0.5,1.1c0.2,0.3,0.5,0.5,0.8,0.7c0.3,0.1,0.7,0.2,1.1,0.2
			c0.6,0,1.1-0.1,1.5-0.4c0.4-0.3,0.8-0.6,1.2-1.1V103.9z"/>
	</g>
</g>
<g>
	<path fill="#282561" d="M212.6,195.1l-11.5,54.5c-2.5,11.7-7.6,18.9-20.2,18.9c-7.3,0-11.4-4.4-11.4-10.8c0-5.2,3.3-10.3,9.4-10.3
		c3.1,0,7.5,0.2,7.5,5.1c0,0.8-0.2,1.9-0.5,3.1c-1.9-1.6-3.1-2-4.6-2c-3.5,0-5.4,2.8-5.4,5.7c0,4,3,5.4,5.2,5.4
		c3.5,0,5.5-1.5,7.3-9.4l12-54.8c-6.7,2.8-10.8,8.6-10.8,16.8c0,3.9,1,4.5,1.1,5.2c-5.3,0-8.2-1.9-8.2-7.4
		c0-10.2,14.1-19.9,26.9-19.9H212.6z"/>
	<path fill="#282561" d="M244.6,214.3l-5.5,26.1c-0.2,1-0.3,1.8-0.3,2.5c0,2.1,1,2.8,3.1,2.8c3,0,5.1-2.9,6.2-6.8h3.2
		c-4.4,12.5-11.3,14.2-15.4,14.2c-4.4,0-7.1-2.5-7.6-7.3c-3.8,6.3-8.1,7.3-11.4,7.3c-4.6,0-8.2-2.8-8.2-9.2c0-1.5,0.2-3.1,0.6-5
		l5.2-24.6h11l-5.5,26.1c-0.2,0.8-0.2,1.5-0.2,2.1c0,1.8,0.6,3.1,2.3,3.1c3,0,5-2.9,6.1-6.8l5.2-24.6H244.6z"/>
	<path fill="#282561" d="M286.4,220.9c-2.8,0-4.8,3.2-6,7.1l-5.2,24.6h-11l5.6-26.5c0.2-0.6,0.2-1.2,0.2-1.9c0-1.7-0.6-3.4-2.3-3.4
		c-3,0-5.1,3.3-6.2,7.1l-5.2,24.6h-11l8.1-38.4h11l-0.8,4c3.2-3.7,6.7-4.4,9.4-4.4c4.1,0,7.1,1.8,7.9,6.6c3.7-5.7,7.8-6.5,10.7-6.5
		c4.9,0,8.5,2.5,8.5,8.7c0,6.2-3.7,15.5-3.7,19.8c0,1.9,0.8,3.2,3.1,3.2c3.4,0,4.8-2.8,6.4-6.8h3.2c-4.3,12.6-10.2,14.2-14.3,14.2
		c-6.7,0-9.1-4.3-9.1-8.7c0-5.2,3.5-14.7,3.5-19.6C289.2,222.3,288.3,220.9,286.4,220.9z"/>
	<path fill="#282561" d="M322.7,211.4l-1.2,5.8c2.2-1.9,5.1-3.3,9-3.3c5.2,0,9.4,3,9.4,12.1c0,10.4-4,27.1-18.9,27.1
		c-3.8,0-5.7-1.3-6.5-2.8l-4,18.7l-11.6,2.8l12.8-60.4H322.7z M329.3,225.8c0-5.9-2.5-6.4-3.8-6.4c-1.7,0-3.8,1.3-5.3,3.8l-4.5,21.5
		c0.3,0.8,1.2,1.8,2.9,1.8C326.6,246.4,329.3,233,329.3,225.8z"/>
	<path fill="#282561" d="M393.8,212c-1.4,0-2.5-0.5-3.5-1.6c2.1-1.2,3.5-4.1,3.5-6.6c0-2.7-1.5-5.1-5.7-5.1c-4.2,0-7.1,2.4-7.1,7
		c0,11.3,17.3,12.8,17.3,29.4c0,12.9-10.4,19.2-21.6,19.2c-8.7,0-16.3-3.8-16.3-13.2c0-8.3,5.9-12.6,11.3-12.6
		c2.7,0,6.5,1.1,6.8,5.1c-4.1,0-9,1.9-9,7.2c0,3.8,2.5,7.4,7.4,7.4c5.1,0,8.9-3.8,8.9-10.2c0-13.1-15.7-17.8-15.7-29.1
		c0-8,7.8-13.7,17.7-13.7c3.6,0,12.4,0.8,12.4,9.2C400.1,208.7,397.6,212,393.8,212z"/>
	<path fill="#282561" d="M421,202.1l-2.6,12.1h4.6l-0.6,3.1h-4.6l-4.9,23c-0.2,1-0.3,1.8-0.3,2.5c0,2.1,1,2.8,3.1,2.8
		c3,0,5.8-2.9,6.9-6.8h3.2c-4.4,12.5-12,14.2-16.1,14.2c-4.6,0-8.2-2.8-8.2-9.2c0-1.5,0.2-3.1,0.6-5l4.6-21.6h-2.5l0.6-3.1h2.5
		l2.3-10.6L421,202.1z"/>
	<path fill="#282561" d="M459.4,214.3l-5.5,26.1c-0.2,1-0.3,1.8-0.3,2.5c0,2.1,1,3.3,3.1,3.3c3,0,5.1-3.4,6.2-7.2h3.2
		c-4.4,12.5-11.3,14.2-15.4,14.2c-4.3,0-7.1-2.5-7.5-7.1c-2.4,3.5-6,7.1-11.4,7.1c-5.2,0-10.2-3.2-10.2-12.4
		c0-10.4,6.4-26.8,19.7-26.8c4.4,0,6.2,1.7,6.2,3.9v0.5l0.8-4.1H459.4z M432.9,239.6c0,5.9,2.5,6,3.8,6c2.2,0,5.4-2.3,6.4-6.8
		l3.7-17.3c0-0.9-0.7-2.9-3.1-2.9C437.1,218.6,432.9,232.4,432.9,239.6z"/>
	<path fill="#282561" d="M479.2,214.3l-1,4.8c2.7-2.3,5.6-4.8,9.3-4.8c3.5,0,5.3,2.8,5.3,5.8c0,2.7-1.8,5.6-5.5,5.6
		c-4.3,0-2.1-5.1-4.4-5.1s-3.7,1.2-5.6,2.9l-6.1,29.2h-11l8.1-38.4H479.2z"/>
	<path fill="#282561" d="M502.8,240.3c-0.2,0.9-0.4,1.8-0.4,2.7c0,1.6,0.6,2.8,2.7,2.8c0.5,0,1.4,0,2-0.2c-2.1,6.6-5.5,7.5-8.1,7.5
		c-5.4,0-7.7-3.8-7.7-8.7c0-1.3,0.2-2.7,0.5-4.1l4.9-23h-2.5l0.6-3.1h2.5l2.3-10.6l11.4-1.5c0,0-1.2,5.2-2.6,12.1h4.6l-0.6,3.1h-4.6
		L502.8,240.3z"/>
	<path fill="#282561" d="M564.8,214.3l-7.6,35.6c4.7-1.7,7.5-4.3,9.7-11h3.2c-3,10.1-8.8,13-13.6,14.3l-1.2,5.5
		c-2.3,11-8.7,13-13.8,13c-4.7,0-8.6-2.5-8.6-7.4c0-6.4,6.8-9.7,12.5-11.4l0.9-4.1c-3.2,3.6-6.6,4.3-9.2,4.3c-4.6,0-8.2-2.8-8.2-9.2
		c0-1.5,0.2-3.1,0.6-5l5.2-24.6h11l-5.5,26.1c-0.2,0.6-0.2,1.3-0.2,1.9c0,1.8,0.5,3.4,2.3,3.4c2.8,0,4.8-2.7,6-6.3l5.4-25.1H564.8z
		 M539.8,265.8c1.6,0,3.5-2.3,4.4-6.8l0.5-2.2c-3.9,1.5-7.5,3.5-7.5,6.5C537.2,264.3,538.1,265.8,539.8,265.8z"/>
	<path fill="#282561" d="M596.6,225.8c0.3,0.2,0.6,0.2,0.8,0.2c3.5,0,8.5-2.3,11.8-4.6l0.7,2.1c-2.9,3.1-8,5.4-13.6,6.4
		c-1.2,14.2-8.9,23.1-18.3,23.1c-7.1,0-12.3-3.4-12.3-12.1c0-8.8,5.2-27.2,21-27.2C593.4,213.6,596.6,217.8,596.6,225.8z M590,230.1
		c-1.6-0.4-2.1-1.7-2.1-3.2c0-2.1,1-3.5,2.4-4.1c-0.2-3.2-0.9-4.4-2.9-4.4c-5.4,0-10.2,14-10.2,21.6c0,5.1,1,6.2,3.9,6.2
		C584.9,246,588.8,239.1,590,230.1z"/>
	<path fill="#282561" d="M635.7,214.3l-5.5,26.1c-0.2,1-0.3,1.8-0.3,2.5c0,2.1,1,2.8,3.1,2.8c3,0,5.1-2.9,6.2-6.8h3.2
		c-4.4,12.5-11.3,14.2-15.4,14.2c-4.4,0-7.1-2.5-7.6-7.3c-3.8,6.3-8.1,7.3-11.4,7.3c-4.6,0-8.2-2.8-8.2-9.2c0-1.5,0.2-3.1,0.6-5
		l5.2-24.6h11l-5.5,26.1c-0.2,0.8-0.2,1.5-0.2,2.1c0,1.8,0.6,3.1,2.3,3.1c3,0,5-2.9,6.1-6.8l5.2-24.6H635.7z"/>
	<path fill="#282561" d="M655.5,214.3l-1,4.8c2.7-2.3,5.6-4.8,9.3-4.8c3.5,0,5.3,2.8,5.3,5.8c0,2.7-1.8,5.6-5.5,5.6
		c-4.3,0-2.1-5.1-4.4-5.1c-2.3,0-3.7,1.2-5.6,2.9l-6.1,29.2h-11l8.1-38.4H655.5z"/>
	<path fill="#282561" d="M341.6,331.6c-4.1,10.3-14.9,14.3-21.9,14.3c-11.4,0-16.8-5.1-16.8-18.9c0-13.9,6.7-39.9,26.8-39.9
		c7.2,0,12.8,2.8,12.8,10.3c0,4.1-1.5,7.1-5.4,7.1c-1.2,0-2.9-0.3-4.4-2c1.8-0.9,3.5-4.1,3.5-7.1c0-2.5-1.2-4.7-4.7-4.7
		c-8.4,0-16,20.2-16,35.8c0,7.1,1.8,12,9.2,12c6,0,11.4-2.9,15-7.7L341.6,331.6z"/>
	<path fill="#282561" d="M376.4,306.3l-5.5,26.1c-0.2,1-0.3,1.8-0.3,2.5c0,2.1,1,3.3,3.1,3.3c3,0,5.1-3.4,6.2-7.2h3.2
		c-4.4,12.5-11.3,14.2-15.4,14.2c-4.3,0-7.1-2.5-7.5-7.1c-2.4,3.5-6,7.1-11.4,7.1c-5.2,0-10.2-3.2-10.2-12.4
		c0-10.4,6.4-26.8,19.7-26.8c4.4,0,6.2,1.7,6.2,3.9v0.5l0.8-4.1H376.4z M349.9,331.7c0,5.9,2.5,6,3.8,6c2.2,0,5.4-2.3,6.4-6.8
		l3.7-17.3c0-0.9-0.7-2.9-3.1-2.9C354.1,310.7,349.9,324.5,349.9,331.7z"/>
	<path fill="#282561" d="M396.2,306.3l-1,4.8c2.7-2.3,5.6-4.8,9.3-4.8c3.5,0,5.3,2.8,5.3,5.8c0,2.7-1.8,5.6-5.5,5.6
		c-4.3,0-2.1-5.1-4.4-5.1s-3.7,1.2-5.6,2.9l-6.1,29.2h-11l8.1-38.4H396.2z"/>
	<path fill="#282561" d="M424.6,338.7c6.1,0,9.7-3.4,13.6-7.7h2.6c-4.4,7.1-10.9,14.2-21.1,14.2c-7.2,0-12-3.5-12-12.2
		c0-8.8,5-27.3,20.7-27.3c6.8,0,8.4,3.5,8.4,7.4c0,8.8-8.4,15.6-17.6,16.2c-0.1,1.1-0.2,2.1-0.2,3.1
		C419.1,337.4,421,338.7,424.6,338.7z M429.1,309.7c-3.9,0-7.7,8.2-9.2,15.8c5.9-0.4,11.1-6.3,11.1-12.7
		C431,310.9,430.5,309.7,429.1,309.7z"/>
	<path fill="#282561" d="M454.1,338.7c6.1,0,9.7-3.4,13.6-7.7h2.6c-4.4,7.1-10.9,14.2-21.1,14.2c-7.2,0-12-3.5-12-12.2
		c0-8.8,5-27.3,20.7-27.3c6.8,0,8.4,3.5,8.4,7.4c0,8.8-8.4,15.6-17.6,16.2c-0.1,1.1-0.2,2.1-0.2,3.1
		C448.6,337.4,450.4,338.7,454.1,338.7z M458.5,309.7c-3.9,0-7.7,8.2-9.2,15.8c5.9-0.4,11.1-6.3,11.1-12.7
		C460.5,310.9,460,309.7,458.5,309.7z"/>
	<path fill="#282561" d="M483.9,306.3l-1,4.8c2.7-2.3,5.6-4.8,9.3-4.8c3.5,0,5.3,2.8,5.3,5.8c0,2.7-1.8,5.6-5.5,5.6
		c-4.3,0-2.1-5.1-4.4-5.1c-2.3,0-3.7,1.2-5.6,2.9l-6.1,29.2h-11l8.1-38.4H483.9z"/>
</g>
<path fill="none" stroke="#000000" stroke-width="3" stroke-miterlimit="10" stroke-dasharray="12" d="M777.3,450.4
	c0,0,333.6-133.2,503-346.4"/>
<g>
	<path d="M1450,518.5h-4.2v11h-0.2v-11h-4.2v-0.2h8.6V518.5z"/>
	<path d="M1452.3,518.8c0,0.1,0,0.2-0.1,0.3c-0.1,0.1-0.2,0.1-0.3,0.1c-0.1,0-0.2,0-0.3-0.1c-0.1-0.1-0.1-0.2-0.1-0.3
		c0-0.1,0-0.2,0.1-0.3c0.1-0.1,0.2-0.1,0.3-0.1c0.1,0,0.2,0,0.3,0.1C1452.3,518.6,1452.3,518.7,1452.3,518.8z M1452,521.7v7.8h-0.2
		v-7.8H1452z"/>
	<path d="M1455,529.5v-7.8h0c0.1,0,0.1,0,0.1,0.1l0,1.5c0.3-0.5,0.7-0.9,1.1-1.3c0.4-0.3,0.9-0.5,1.4-0.5c0.6,0,1.1,0.2,1.5,0.6
		c0.4,0.4,0.6,0.9,0.7,1.7c0.1-0.4,0.2-0.7,0.3-1s0.3-0.5,0.6-0.7c0.2-0.2,0.5-0.3,0.7-0.4c0.3-0.1,0.6-0.1,0.9-0.1
		c0.4,0,0.7,0.1,1,0.2c0.3,0.1,0.6,0.3,0.8,0.6c0.2,0.2,0.4,0.6,0.5,0.9c0.1,0.4,0.2,0.8,0.2,1.3v5h-0.2v-5c0-0.9-0.2-1.6-0.6-2.1
		c-0.4-0.5-0.9-0.7-1.6-0.7c-0.3,0-0.6,0.1-0.9,0.2c-0.3,0.1-0.5,0.3-0.8,0.5c-0.2,0.2-0.4,0.5-0.5,0.9s-0.2,0.8-0.2,1.2v5h-0.2v-5
		c0-0.4,0-0.8-0.1-1.2c-0.1-0.3-0.2-0.6-0.4-0.9s-0.4-0.4-0.6-0.5c-0.3-0.1-0.5-0.2-0.9-0.2c-0.5,0-1,0.2-1.4,0.5s-0.8,0.8-1.1,1.3
		v6H1455z"/>
	<path d="M1473.3,528.6c-0.1,0.1-0.2,0.2-0.4,0.3c-0.2,0.1-0.4,0.2-0.6,0.3s-0.5,0.2-0.8,0.2c-0.3,0.1-0.6,0.1-0.9,0.1
		c-0.5,0-1-0.1-1.4-0.3s-0.8-0.5-1.1-0.8c-0.3-0.4-0.5-0.8-0.7-1.3c-0.2-0.5-0.2-1.1-0.2-1.8c0-0.6,0.1-1.1,0.2-1.6
		c0.2-0.5,0.4-0.9,0.7-1.2c0.3-0.3,0.7-0.6,1.1-0.8c0.4-0.2,0.9-0.3,1.4-0.3c0.4,0,0.8,0.1,1.2,0.2c0.4,0.1,0.7,0.4,0.9,0.7
		c0.3,0.3,0.5,0.6,0.6,1.1c0.2,0.4,0.2,0.9,0.2,1.4c0,0,0,0,0,0.1c0,0,0,0-0.1,0h-6.1c0,0.1,0,0.1,0,0.2c0,0.1,0,0.1,0,0.2
		c0,0.7,0.1,1.2,0.2,1.7c0.2,0.5,0.4,0.9,0.7,1.3c0.3,0.3,0.6,0.6,1,0.8c0.4,0.2,0.8,0.3,1.3,0.3c0.4,0,0.8,0,1.1-0.1
		c0.3-0.1,0.6-0.2,0.8-0.3c0.2-0.1,0.4-0.2,0.5-0.3C1473.2,528.6,1473.2,528.5,1473.3,528.6C1473.3,528.5,1473.3,528.5,1473.3,528.6
		L1473.3,528.6z M1473.4,524.9c0-0.5-0.1-1-0.2-1.3c-0.1-0.4-0.3-0.7-0.6-1s-0.6-0.5-0.9-0.6c-0.3-0.1-0.7-0.2-1.1-0.2
		c-0.5,0-0.9,0.1-1.3,0.2c-0.4,0.1-0.7,0.4-1,0.6c-0.3,0.3-0.5,0.6-0.7,1c-0.2,0.4-0.3,0.8-0.3,1.3H1473.4z"/>
</g>
<path fill="none" stroke="#000000" stroke-width="3" stroke-miterlimit="10" stroke-dasharray="12" d="M1176.6,173.8
	c0,0-6-149.7,99.5-62.2"/>
<path fill="none" stroke="#000000" stroke-width="3" stroke-miterlimit="10" stroke-dasharray="12" d="M872.7,379.1
	c0,0,7.3-157.8,112.8-70.3"/>
<path fill="none" stroke="#000000" stroke-width="3" stroke-miterlimit="10" stroke-dasharray="12" d="M775.3,447.8
	c0,0-8.2-155.9,97.2-68.4"/>
<path fill="none" stroke="#000000" stroke-width="3" stroke-miterlimit="10" stroke-dasharray="12" d="M987.7,312.7
	c0,0-3.6-152.6,101.9-65.1"/>
<path fill="none" stroke="#000000" stroke-width="3" stroke-miterlimit="10" stroke-dasharray="12" d="M1089.6,247.6
	c0,0-18.5-161.4,87-73.8"/>
</svg>
