<?xml version="1.0" encoding="utf-8"?>
<!-- Generator: Adobe Illustrator 18.0.0, SVG Export Plug-In . SVG Version: 6.00 Build 0)  -->
<!DOCTYPE svg PUBLIC "-//W3C//DTD SVG 1.1//EN" "http://www.w3.org/Graphics/SVG/1.1/DTD/svg11.dtd">
<svg version="1.1" id="Position_1" xmlns="http://www.w3.org/2000/svg" xmlns:xlink="http://www.w3.org/1999/xlink" x="0px" y="0px"
	 viewBox="0 0 89.4 403.6" enable-background="new 0 0 89.4 403.6" xml:space="preserve">
<g id="XMLID_400_">
	<circle id="head" fill="#444444" cx="36.1" cy="35.5" r="35.5"/>
	<path id="body" fill="#444444" d="M31.9,87.1c9.4-9.8,21.4-15.7,27.9,7.6c0.7,2.4,1.1,4.8,1.2,7.3c0.6,13.9,4.4,71.2,9.8,106.2
		c2.2,14.3,9.7,26.5-5.8,33.8c-8,3.8-18.8,6.6-35.3,2.9C-10.1,236,7,151.1,15.2,118C18.1,106.5,23.6,95.7,31.9,87.1z"/>
	<path id="leg2" fill="#444444" d="M22.1,404.6L22.1,404.6c9.3,1.1,17.9-5.6,19-14.9l9.5-80.1c1.1-9.3-5.6-17.9-14.9-19l0,0
		c-9.3-1.1-17.9,5.6-19,14.9l-9.5,80.1C6.1,394.9,12.8,403.5,22.1,404.6z"/>
	<path id="they2" fill="#444444" d="M34.8,324.4L34.8,324.4c9.4-0.6,16.5-8.8,15.9-18.2l-6.1-92.1c-0.6-9.4-8.8-16.5-18.2-15.9h0
		c-9.4,0.6-16.5,8.8-15.9,18.2l6.1,92.1C17.3,317.9,25.4,325.1,34.8,324.4z"/>
	<path id="leg" fill="#444444" d="M56.4,404.5L56.4,404.5c9.3,1.5,18.1-4.8,19.6-14.1l13.2-81.1c1.5-9.3-4.8-18.1-14.1-19.6h0
		c-9.3-1.5-18.1,4.8-19.6,14.1l-13.2,81.1C40.8,394.2,47.1,403,56.4,404.5z"/>
	<path id="thy" fill="#444444" d="M75.9,324.2L75.9,324.2c9.2-1.9,15.2-11,13.3-20.2l-18.6-90.4c-1.9-9.2-11-15.2-20.2-13.3l0,0
		c-9.2,1.9-15.2,11-13.3,20.2l18.6,90.4C57.6,320.1,66.7,326.1,75.9,324.2z"/>
	<path id="arm" fill="#444444" stroke="#FFFFFF" stroke-miterlimit="10" d="M44.2,78.8c0,0-17.7,94.5-0.4,140.6c0,0,2,10.6-7.5,15.3
		s-20.9-7.6-27.2-28.3s-13.4-61.2-7.2-86.4S44.2,78.8,44.2,78.8z"/>
</g>
</svg>
