<?xml version="1.0" encoding="utf-8"?>
<!-- Generator: Adobe Illustrator 18.0.0, SVG Export Plug-In . SVG Version: 6.00 Build 0)  -->
<!DOCTYPE svg PUBLIC "-//W3C//DTD SVG 1.1//EN" "http://www.w3.org/Graphics/SVG/1.1/DTD/svg11.dtd">
<svg version="1.1" id="Briefcase" xmlns="http://www.w3.org/2000/svg" xmlns:xlink="http://www.w3.org/1999/xlink" x="0px" y="0px"
	 viewBox="0 0 370 440" enable-background="new 0 0 370 440" xml:space="preserve">
<path fill="#FFFFFF" stroke="#000000" stroke-miterlimit="10" d="M166.5,220h37v37H370c0,0-2.8-82.5-3.7-108.3
	c-0.9-24.5-9.7-39.7-37-39.7H270c-9.2-17.4-19.1-36-22.1-41.7c-6.1-11.5-8.2-13.8-21.8-13.8h-82c-13.6,0-15.7,2.2-21.8,13.8
	c-3.1,5.8-13,24.4-22.1,41.7H40.7c-27.3,0-36,15.2-37,39.7C2.7,173.3,0,257,0,257h166.5V220z M141.5,88.9c4.3-8,5.7-9.5,15.1-9.5
	h56.7c9.4,0,10.9,1.6,15.1,9.5c1.6,3,5.9,11.1,10.6,20.1H130.9C135.6,100,139.9,91.9,141.5,88.9z M203.5,312.5h-37v-37H9.2
	c0,0,2.3,33.2,3.7,61.5c0.6,11.7,4,31,33.3,31h277.5c29.3,0,32.7-19.4,33.3-31c1.6-29,3.7-61.5,3.7-61.5H203.5V312.5z"/>
</svg>
