<?xml version="1.0" encoding="utf-8"?>
<!-- Generator: Adobe Illustrator 18.0.0, SVG Export Plug-In . SVG Version: 6.00 Build 0)  -->
<!DOCTYPE svg PUBLIC "-//W3C//DTD SVG 1.1//EN" "http://www.w3.org/Graphics/SVG/1.1/DTD/svg11.dtd">
<svg version="1.1" id="Layer_1" xmlns="http://www.w3.org/2000/svg" xmlns:xlink="http://www.w3.org/1999/xlink" x="0px" y="0px"
	 viewBox="0 0 197.5 176.8" enable-background="new 0 0 197.5 176.8" xml:space="preserve">
<path fill="#FFFFFF" d="M70.5,29.5l56.4-0.1l0-14.7l-56.4,0.1L70.5,29.5L70.5,29.5z M31.7,29.5l0.2,147.2l-7,0
	c-6.8,0-12.6-2.5-17.4-7.6S0.1,158.1,0.1,151L0,55.3c0-7.1,2.4-13.1,7.2-18.2s10.6-7.6,17.4-7.6L31.7,29.5L31.7,29.5z M155,29.4
	l0.2,147.2l-112.8,0.1L42.3,29.5l14.1,0l0-18.4c0-3.1,1-5.7,3.1-7.8c2.1-2.1,4.5-3.2,7.5-3.2L130.3,0c2.9,0,5.4,1.1,7.5,3.2
	c2.1,2.1,3.1,4.8,3.1,7.8l0,18.4L155,29.4z M197.4,55.1l0.1,95.7c0,7.1-2.4,13.1-7.2,18.2c-4.8,5.1-10.6,7.6-17.4,7.6l-7,0
	l-0.2-147.2l7,0c6.8,0,12.6,2.5,17.4,7.6C194.9,42,197.3,48.1,197.4,55.1z"/>
</svg>
