<?xml version="1.0" encoding="utf-8"?>
<!-- Generator: Adobe Illustrator 18.0.0, SVG Export Plug-In . SVG Version: 6.00 Build 0)  -->
<!DOCTYPE svg PUBLIC "-//W3C//DTD SVG 1.1//EN" "http://www.w3.org/Graphics/SVG/1.1/DTD/svg11.dtd">
<svg version="1.1" id="Globe" xmlns="http://www.w3.org/2000/svg" xmlns:xlink="http://www.w3.org/1999/xlink" x="0px" y="0px"
	 viewBox="0 0 370 440" enable-background="new 0 0 370 440" xml:space="preserve">
<path fill="#FFFFFF" d="M185,42.4C87,42.4,7.4,122.1,7.4,220S87,397.6,185,397.6c97.9,0,177.6-79.7,177.6-177.6S282.9,42.4,185,42.4
	z M336.5,220c0,34.7-11.8,66.6-31.4,92.1c-5.5-4.3-11.5-16-5.9-28.2c5.6-12.2,7.1-40.5,5.8-51.5c-1.2-11-6.9-37.5-22.5-37.7
	c-15.5-0.2-26.1-5.3-35.4-23.7c-19.1-38.3,35.9-45.6,16.8-66.8c-5.3-6-33,24.5-37-16.1c-0.3-2.9,2.5-7.3,6.2-11.8
	C293.1,96.6,336.5,153.3,336.5,220z M164.2,70c-3.6,7.1-13.2,9.9-19,15.2c-12.7,11.5-18.1,9.9-24.9,20.8c-6.9,11-29,26.8-29,34.8
	s11.2,17.3,16.8,15.5c5.6-1.8,20.3-1.7,29,1.3c8.7,3.1,72.4,6.1,52.1,60c-6.4,17.1-34.7,14.2-42.2,42.6c-1.1,4.2-5,21.9-5.3,27.8
	c-0.5,9,6.4,42.9-2.3,42.9c-8.7,0-32.2-30.3-32.2-35.8s-6.1-24.8-6.1-41.3c0-16.5-28.1-16.2-28.1-38.1c0-19.8,15.2-29.6,11.8-39.1
	c-3.3-9.4-30.1-9.7-41.3-10.9C63.1,115.2,108.9,77.7,164.2,70z M137.3,363.7c9.1-4.8,10-11,18.3-11.3c9.4-0.4,17.1-3.7,27.8-6
	c9.4-2.1,26.3-11.6,41.2-12.9c12.5-1,37.3,0.6,43.9,12.7c-24,15.9-52.7,25.2-83.5,25.2C168.4,371.5,152.3,368.7,137.3,363.7z"/>
</svg>
