<?xml version="1.0" encoding="utf-8"?>
<!-- Generator: Adobe Illustrator 18.0.0, SVG Export Plug-In . SVG Version: 6.00 Build 0)  -->
<!DOCTYPE svg PUBLIC "-//W3C//DTD SVG 1.1//EN" "http://www.w3.org/Graphics/SVG/1.1/DTD/svg11.dtd">
<svg version="1.1" id="Graduation_cap" xmlns="http://www.w3.org/2000/svg" xmlns:xlink="http://www.w3.org/1999/xlink" x="0px"
	 y="0px" viewBox="0 0 370 440" enable-background="new 0 0 370 440" xml:space="preserve">
<path fill="#FFFFFF" d="M61.1,261.4c8.6,34.8,19.5,50,55.9,65.9c36.4,15.9,53.7,33.3,68,33.3c14.3,0,30.5-15.2,66.9-31.2
	c36.4-15.9,26.7-20.8,35.3-55.5L185,323.6L61.1,261.4z M361,170.7l-154-86.2c-12.1-6.8-31.8-6.8-43.9,0L9,170.7
	C-3,177.5-3,188.5,9,195.3l154,86.2c12.1,6.8,31.8,6.8,43.9,0l99.6-55.8l-108-25.3c-4.2,1-8.7,1.6-13.5,1.6
	c-19.5,0-35.2-9.4-35.2-20.9c0-11.6,15.8-21,35.2-21c15.1,0,27.9,5.7,32.9,13.6l114.4,37.5l28.7-16C373,188.5,373,177.5,361,170.7z
	 M313.9,334.1c-1.2,7.1,23.7,18.8,26.1-2c10.7-93.8-7.7-120.8-7.7-120.8l-25.8,14.4C306.5,225.8,328.4,246.6,313.9,334.1z"/>
</svg>
