<?xml version="1.0" encoding="utf-8"?>
<!-- Generator: Adobe Illustrator 18.0.0, SVG Export Plug-In . SVG Version: 6.00 Build 0)  -->
<!DOCTYPE svg PUBLIC "-//W3C//DTD SVG 1.1//EN" "http://www.w3.org/Graphics/SVG/1.1/DTD/svg11.dtd">
<svg version="1.1" id="Heart_outlined" xmlns="http://www.w3.org/2000/svg" xmlns:xlink="http://www.w3.org/1999/xlink" x="0px"
	 y="0px" viewBox="0 0 370 440" enable-background="new 0 0 370 440" xml:space="preserve">
<path fill="#FFFFFF" d="M318,111.9c-30.9-28.4-81.1-28.4-112,0l-21,19.3l-21-19.3c-30.9-28.4-81.1-28.4-112,0
	c-34.8,31.9-34.8,83.6,0,115.5l133,122.1l133-122.1C352.8,195.5,352.8,143.8,318,111.9z M298.3,208.4L185,314.2L71.7,208.4
	c-11.4-10.5-15.8-24.2-15.8-38.7s2.6-26.5,14-37c10.1-9.3,23.6-14.4,38.2-14.4c14.5,0,28.1,8.8,38.1,18.1l38.9,33.8l38.8-33.8
	c10.1-9.3,23.6-18.1,38.2-18.1c14.5,0,28.1,5.1,38.2,14.4c11.4,10.5,14,22.4,14,37C314.1,184.2,309.7,197.9,298.3,208.4z"/>
</svg>
