<?xml version="1.0" encoding="utf-8"?>
<!-- Generator: Adobe Illustrator 18.0.0, SVG Export Plug-In . SVG Version: 6.00 Build 0)  -->
<!DOCTYPE svg PUBLIC "-//W3C//DTD SVG 1.1//EN" "http://www.w3.org/Graphics/SVG/1.1/DTD/svg11.dtd">
<svg version="1.1" id="Layer_1" xmlns="http://www.w3.org/2000/svg" xmlns:xlink="http://www.w3.org/1999/xlink" x="0px" y="0px"
	 viewBox="0 0 248.3 196.3" enable-background="new 0 0 248.3 196.3" xml:space="preserve">
<g>
	<path fill="#FFFFFF" d="M110.9,185.4c-14.7,0-27.8-2-40.5-6.5c-4.4-1.6-8.5-4-12.8-6c-3.8-1.7-7.7-3.2-11.5-4.8c-1.5-0.6-3-0.2-4,1
		c-1.7,1.9-3.4,3.9-4.9,6c-2.5,3.8-4.7,7.8-7.3,11.5c-1.6,2.3-3.6,4.4-5.6,6.4c-4.2,4.1-9.2,4-14.2,1.5c-2.1-1-3.8-2.5-5-4.5
		c-1.4-2.4-2.9-4.7-4.2-7.1c-1.3-2.4-0.9-4.9-0.1-7.4c1.1-3.4,3.4-6.1,5.7-8.7c3.4-3.8,7.6-6.6,11.5-9.8c2.6-2.2,5-4.5,7.4-6.9
		c0.6-0.6,1-1.3,1.4-2c0.7-1.2,0.8-2.4,0.2-3.7c-0.5-1.1-0.8-2.2-1.3-3.2c-2.8-5.7-3.5-11.8-3.6-18C21.5,97.6,31,76.4,49.4,59.1
		C62.5,46.8,77.7,38,94.6,32.1c7.5-2.7,15.4-3.8,23.3-4.2c12.6-0.7,25.3-1.1,37.9-1.6c9.2-0.4,18.3-0.6,27.4-2.5
		c6.3-1.3,12.5-2.9,18-6.5c1.4-0.9,2.7-2,3.9-3.1c3.4-3.2,6.8-6.4,10.2-9.6c0.4-0.4,0.8-1,1.6-0.4c0.2,0.2,0.9-0.2,1.4-0.5
		c1.4-0.8,2.8-1.7,4.2-2.4c1-0.5,2-1,3.1-1.2c0.6-0.1,1.2,0.4,1.9,0.6c0.3,0.1,0.6,0.5,0.9,0.5c3.6,0.4,6.1,2.5,8.2,5.2
		c3.7,4.9,5.9,10.4,7.3,16.3c2.2,9.1,3.9,18.3,4.4,27.6c0.4,8-0.3,16-1.6,23.9c-1.8,11.3-4.9,22.1-9.6,32.5
		c-6.3,14-15.4,26-26.6,36.5c-11.7,10.9-24.8,19.6-39.1,26.8c-9.4,4.7-19.1,8.6-29.2,11.3C131.6,184,120.8,185.4,110.9,185.4z
		 M163.5,72.1c0-0.1,0-0.2,0-0.2c-6,0.7-12.1,1.1-18.1,2c-18.6,2.8-35.7,9.5-51.4,19.8c-11.3,7.4-21.1,16.5-30.5,26.1
		c-2.6,2.6-5,5.3-7.5,8c-2.3,2.5-3.3,5.3-2.4,8.6c1.5,5.4,8.7,9.5,14.8,3.9c2.6-2.4,5.1-4.8,7.6-7.2c7.5-7.4,14.9-14.8,23.3-21.2
		c17.5-13.5,37.2-20.8,59.3-21.8c3.7-0.2,7.4-0.1,11.1-0.5c4.5-0.4,7.8-4.6,7.6-9.3c-0.2-4.4-4-8.2-8.5-8.3
		C167.1,72,165.3,72.1,163.5,72.1z"/>
</g>
</svg>
