<?xml version="1.0" encoding="utf-8"?>
<!-- Generator: Adobe Illustrator 18.0.0, SVG Export Plug-In . SVG Version: 6.00 Build 0)  -->
<!DOCTYPE svg PUBLIC "-//W3C//DTD SVG 1.1//EN" "http://www.w3.org/Graphics/SVG/1.1/DTD/svg11.dtd">
<svg version="1.1" id="Megaphone" xmlns="http://www.w3.org/2000/svg" xmlns:xlink="http://www.w3.org/1999/xlink" x="0px" y="0px"
	 viewBox="0 0 370 440" enable-background="new 0 0 370 440" xml:space="preserve">
<path fill="#FFFFFF" d="M318.6,165.1C289.3,96.9,242.2,45,218.3,54.7C177.8,71.1,242.5,150.2,43.6,231C26.4,238,22,266,29.2,282.7
	c7.2,16.7,30.7,33.3,47.9,26.3c3-1.2,13.9-4.7,13.9-4.7c12.3,16.5,25.1,6.7,29.7,17.2c5.5,12.6,17.4,39.9,21.4,49.2
	s13.2,17.9,19.9,15.4c6.6-2.5,29.3-11.1,37.9-14.4c8.7-3.3,10.7-11,8.1-17.1c-2.8-6.6-14.5-8.5-17.9-16.2
	c-3.3-7.6-14.2-32.2-17.4-39.9c-4.3-10.5,4.8-19.1,17.9-20.4c90.5-9.5,107.5,46.5,138.3,33.9C352.8,302.3,347.9,233.2,318.6,165.1z
	 M308.4,275.6c-5.3,2.1-40.9-25.9-63.7-78.9c-22.8-53-19.9-101.4-14.6-103.5c5.3-2.1,40.1,31.8,62.8,84.7
	C315.7,230.8,313.7,273.4,308.4,275.6z"/>
</svg>
