<?xml version="1.0" encoding="utf-8"?>
<!-- Generator: Adobe Illustrator 18.0.0, SVG Export Plug-In . SVG Version: 6.00 Build 0)  -->
<!DOCTYPE svg PUBLIC "-//W3C//DTD SVG 1.1//EN" "http://www.w3.org/Graphics/SVG/1.1/DTD/svg11.dtd">
<svg version="1.1" id="Paper_plane" xmlns="http://www.w3.org/2000/svg" xmlns:xlink="http://www.w3.org/1999/xlink" x="0px"
	 y="0px" viewBox="0 0 370 440" enable-background="new 0 0 370 440" xml:space="preserve">
<path fill="#FFFFFF" d="M344.8,83.7C338.5,86,24.4,196.7,18.2,198.8c-5.3,1.9-6.4,6.4-0.2,8.9c7.4,3,70.2,28.1,70.2,28.1l0,0
	l41.6,16.7c0,0,200.5-147.2,203.2-149.2c2.7-2,5.9,1.8,3.9,3.9c-2,2.2-145.6,157.5-145.6,157.5v0L183,274l11.1,6l0,0
	c0,0,86,46.3,92.2,49.6c5.4,2.9,12.4,0.5,13.9-6.2c1.8-7.9,52.6-226.8,53.8-231.7C355.4,85.4,351.2,81.5,344.8,83.7z M129.5,352.5
	c0,4.6,2.6,5.8,6.1,2.6c4.6-4.2,52.7-47.4,52.7-47.4l-58.8-30.4V352.5z"/>
</svg>
