<?xml version="1.0" encoding="utf-8"?>
<!-- Generator: Adobe Illustrator 18.0.0, SVG Export Plug-In . SVG Version: 6.00 Build 0)  -->
<!DOCTYPE svg PUBLIC "-//W3C//DTD SVG 1.1//EN" "http://www.w3.org/Graphics/SVG/1.1/DTD/svg11.dtd">
<svg version="1.1" id="Brush" xmlns="http://www.w3.org/2000/svg" xmlns:xlink="http://www.w3.org/1999/xlink" x="0px" y="0px"
	 viewBox="0 0 370 440" enable-background="new 0 0 370 440" xml:space="preserve">
<path fill="#FFFFFF" d="M333,109h-18.5v277.5H333c20.4,0,37-16.6,37-37V146C370,125.7,353.4,109,333,109z M0,146v203.5
	c0,20.4,16.6,37,37,37h18.5V109H37C16.6,109,0,125.7,0,146z M249.8,70.3c-12.6-5.8-34.9-16.8-65.1-16.8c-30.2,0-51.8,10.9-64.4,16.8
	V109H74v277.5h222V109h-46.2V70.3z M222,109h-74V84.3c9.9-4.3,19.9-8.6,36.6-8.6c16.7,0,27.5,4.3,37.4,8.6V109z"/>
</svg>
