<?xml version="1.0" encoding="utf-8"?>
<!-- Generator: Adobe Illustrator 18.0.0, SVG Export Plug-In . SVG Version: 6.00 Build 0)  -->
<!DOCTYPE svg PUBLIC "-//W3C//DTD SVG 1.1//EN" "http://www.w3.org/Graphics/SVG/1.1/DTD/svg11.dtd">
<svg version="1.1" id="Users" xmlns="http://www.w3.org/2000/svg" xmlns:xlink="http://www.w3.org/1999/xlink" x="0px" y="0px"
	 viewBox="0 0 370 440" enable-background="new 0 0 370 440" xml:space="preserve">
<path fill="#FFFDFD" d="M295.8,388.9c0-41.6-40.5-62.7-79.9-79.7c-39.3-16.9-51.8-31.2-51.8-61.7c0-18.3,12-12.3,17.2-45.9
	c2.2-13.9,12.8-0.2,14.8-32c0-12.7-5.8-15.8-5.8-15.8s2.9-18.7,4.1-33.2c1.2-15.1-7.4-47.4-42.6-57.3c-6.1-6.3-10.3-16.3,8.6-26.3
	c-41.4-1.9-51.1,19.8-73.1,35.7c-18.8,14-23.8,36.1-22.9,47.9c1.2,14.4,4.1,33.2,4.1,33.2s-5.8,3.1-5.8,15.8
	c2,31.8,12.7,18.1,14.9,32c5.3,33.6,17.3,27.6,17.3,45.9c0,30.5-3.9,40.9-43.2,57.8c-39.4,17-51.7,44.2-51.5,83.5
	C0.3,400.7,0,405,0,405h296C296,405,295.8,400.7,295.8,388.9z M342.8,282.3c-21-8.5-29.7-18.5-29.7-38.2c0-11.9,7.7-8,11.1-29.7
	c1.4-9,8.3-0.1,9.6-20.6c0-8.2-3.7-10.2-3.7-10.2s1.9-12.1,2.6-21.4c0.9-11.6-6.7-41.6-42-41.6c-35.2,0-42.9,30-42,41.6
	c0.8,9.3,2.7,21.4,2.7,21.4s-3.7,2-3.7,10.2c1.3,20.5,8.2,11.7,9.6,20.6c3.4,21.7,11.1,17.8,11.1,29.7c0,19.7-8.1,28.9-33.5,39.8
	c-1.3,0.5-2.2,1.3-3.4,1.9c30.3,13.2,78.2,35.9,89.5,82.3H370c0,0,0-35.3,0-42.9C370,306.6,364.9,291.2,342.8,282.3z"/>
</svg>
